<?xml version="1.0" encoding="UTF-8" standalone="no"?>
<!DOCTYPE svg PUBLIC "-//W3C//DTD SVG 1.1//EN" "http://www.w3.org/Graphics/SVG/1.1/DTD/svg11.dtd">
<svg width="100%" height="100%" viewBox="0 0 1505 2159" version="1.1" xmlns="http://www.w3.org/2000/svg" xmlns:xlink="http://www.w3.org/1999/xlink" xml:space="preserve" xmlns:serif="http://www.serif.com/" style="fill-rule:evenodd;clip-rule:evenodd;stroke-linecap:round;stroke-linejoin:round;stroke-miterlimit:1.5;">
    <g id="Artboard1" transform="matrix(1,0,0,1.17164,-1044.76,-377.08)">
        <rect x="1044.76" y="321.841" width="1504.33" height="1842.66" style="fill:none;"/>
        <g id="Large-Display" serif:id="Large Display" transform="matrix(0.899816,0,0,0.884106,153.032,18.0074)">
            <path d="M2234.05,555.349C2234.05,549.358 2228.45,544.493 2221.55,544.493L1376.29,544.493C1369.39,544.493 1363.79,549.358 1363.79,555.349L1363.79,1123.13C1363.79,1129.12 1369.39,1133.99 1376.29,1133.99L2221.55,1133.99C2228.45,1133.99 2234.05,1129.12 2234.05,1123.13L2234.05,555.349Z" style="fill:none;stroke:black;stroke-width:0.64px;"/>
        </g>
        <g transform="matrix(1.02871,0,0,2.00038,-46.4854,-1377.79)">
            <path d="M2073.49,1316.87C2073.49,1301.33 2044.75,1288.71 2009.34,1288.71L1566.11,1288.71C1530.7,1288.71 1501.95,1301.33 1501.95,1316.87C1501.95,1332.42 1530.7,1345.03 1566.11,1345.03L2009.34,1345.03C2044.75,1345.03 2073.49,1332.42 2073.49,1316.87Z" style="fill:none;stroke:black;stroke-width:0.46px;"/>
        </g>
        <g transform="matrix(303.35,0,0,258.911,2264.22,972.668)">
            <path d="M0.258,-0.458C0.258,-0.452 0.262,-0.444 0.269,-0.435C0.276,-0.425 0.285,-0.415 0.294,-0.405C0.303,-0.394 0.311,-0.384 0.319,-0.373C0.326,-0.362 0.33,-0.352 0.33,-0.343C0.33,-0.332 0.326,-0.323 0.319,-0.316C0.311,-0.309 0.302,-0.305 0.293,-0.305C0.278,-0.305 0.267,-0.312 0.26,-0.327C0.252,-0.341 0.246,-0.357 0.242,-0.374C0.238,-0.391 0.235,-0.406 0.233,-0.421C0.231,-0.435 0.228,-0.442 0.225,-0.442C0.221,-0.442 0.218,-0.435 0.215,-0.421C0.212,-0.406 0.209,-0.391 0.205,-0.374C0.201,-0.357 0.195,-0.341 0.188,-0.327C0.181,-0.312 0.17,-0.305 0.156,-0.305C0.145,-0.305 0.136,-0.309 0.129,-0.316C0.122,-0.323 0.118,-0.333 0.118,-0.344C0.118,-0.353 0.122,-0.364 0.13,-0.376C0.137,-0.388 0.146,-0.4 0.155,-0.411C0.164,-0.422 0.172,-0.431 0.18,-0.44C0.187,-0.449 0.191,-0.454 0.191,-0.457C0.191,-0.458 0.19,-0.458 0.188,-0.458C0.182,-0.458 0.174,-0.456 0.165,-0.451C0.155,-0.446 0.145,-0.441 0.135,-0.436C0.124,-0.43 0.114,-0.425 0.103,-0.42C0.092,-0.415 0.081,-0.413 0.072,-0.413C0.059,-0.413 0.05,-0.417 0.043,-0.424C0.036,-0.431 0.033,-0.44 0.033,-0.45C0.033,-0.479 0.057,-0.494 0.104,-0.494C0.118,-0.494 0.13,-0.493 0.139,-0.492C0.148,-0.491 0.157,-0.49 0.168,-0.49C0.177,-0.49 0.182,-0.491 0.182,-0.494C0.182,-0.499 0.176,-0.504 0.164,-0.51C0.151,-0.515 0.138,-0.522 0.123,-0.529C0.108,-0.536 0.095,-0.544 0.083,-0.553C0.07,-0.562 0.064,-0.572 0.064,-0.584C0.064,-0.594 0.068,-0.603 0.075,-0.61C0.082,-0.616 0.091,-0.62 0.102,-0.62C0.113,-0.62 0.123,-0.615 0.134,-0.605C0.145,-0.595 0.155,-0.584 0.165,-0.572C0.174,-0.56 0.183,-0.549 0.19,-0.539C0.197,-0.529 0.202,-0.524 0.206,-0.524C0.207,-0.524 0.207,-0.526 0.207,-0.53C0.207,-0.547 0.204,-0.565 0.198,-0.582C0.191,-0.599 0.188,-0.618 0.188,-0.637C0.188,-0.652 0.192,-0.663 0.199,-0.67C0.206,-0.677 0.215,-0.681 0.226,-0.681C0.235,-0.681 0.243,-0.677 0.252,-0.67C0.26,-0.663 0.264,-0.652 0.264,-0.637C0.264,-0.618 0.261,-0.6 0.254,-0.583C0.247,-0.565 0.243,-0.547 0.243,-0.528L0.243,-0.524C0.248,-0.524 0.254,-0.529 0.262,-0.539C0.27,-0.549 0.279,-0.56 0.289,-0.572C0.298,-0.584 0.308,-0.595 0.319,-0.605C0.329,-0.615 0.339,-0.62 0.349,-0.62C0.359,-0.62 0.368,-0.616 0.375,-0.609C0.382,-0.602 0.386,-0.593 0.386,-0.583C0.386,-0.572 0.38,-0.562 0.368,-0.553C0.355,-0.544 0.342,-0.535 0.327,-0.528C0.312,-0.52 0.298,-0.513 0.286,-0.508C0.273,-0.502 0.267,-0.497 0.267,-0.494C0.267,-0.493 0.27,-0.493 0.277,-0.493C0.284,-0.492 0.291,-0.492 0.299,-0.492C0.312,-0.492 0.323,-0.492 0.331,-0.493C0.338,-0.493 0.345,-0.493 0.35,-0.493C0.393,-0.493 0.415,-0.478 0.415,-0.449C0.415,-0.44 0.412,-0.431 0.406,-0.424C0.399,-0.416 0.39,-0.412 0.377,-0.412C0.368,-0.412 0.358,-0.414 0.347,-0.419C0.336,-0.424 0.326,-0.429 0.315,-0.435C0.304,-0.441 0.294,-0.446 0.285,-0.451C0.275,-0.456 0.266,-0.458 0.258,-0.458Z" style="fill:none;fill-rule:nonzero;"/>
        </g>
        <g transform="matrix(0.885357,0,0,0.802336,97.2735,118.724)">
            <path d="M2691.37,1121.29C2691.37,461.716 2640.9,333.06 2556.68,333.06L1282.79,333.06C1222.03,331.733 1148.15,451.111 1148.15,1119.75C1148.15,1385.21 1145.99,2408.87 1145.99,2408.87C1145.99,2442.01 1175.94,2468.91 1212.83,2468.91L2626.64,2468.91C2663.53,2468.91 2693.48,2442.01 2693.48,2408.87C2693.48,2408.87 2691.37,1387.75 2691.37,1121.29Z" style="fill:none;stroke:black;stroke-width:0.91px;"/>
        </g>
        <g transform="matrix(0.835244,0,0,0.712887,433.9,174.123)">
            <circle cx="989.432" cy="378.805" r="17.959" style="fill:none;stroke:black;stroke-width:1px;"/>
        </g>
        <g transform="matrix(0.835244,0,0,0.712887,433.9,801.451)">
            <circle cx="989.432" cy="378.805" r="17.959" style="fill:none;stroke:black;stroke-width:1px;"/>
        </g>
        <g transform="matrix(0.835244,0,0,0.712887,1498.9,174.123)">
            <circle cx="989.432" cy="378.805" r="17.959" style="fill:none;stroke:black;stroke-width:1px;"/>
        </g>
        <g transform="matrix(0.835244,0,0,0.712887,1498.9,801.451)">
            <circle cx="989.432" cy="378.805" r="17.959" style="fill:none;stroke:black;stroke-width:1px;"/>
        </g>
    </g>
</svg>
