M48
; DRILL file {KiCad (5.1.10-1-10_14)} date Friday, August 05, 2022 at 12:13:01 PM
; FORMAT={-:-/ absolute / inch / decimal}
; #@! TF.CreationDate,2022-08-05T12:13:01-05:00
; #@! TF.GenerationSoftware,Kicad,Pcbnew,(5.1.10-1-10_14)
; #@! TF.FileFunction,Plated,1,2,PTH
FMAT,2
INCH
T1C0.0315
T2C0.0354
T3C0.0374
T4C0.0394
T5C0.0433
%
G90
G05
T1
X4.525Y-3.4281
X4.525Y-3.625
X4.9Y-3.275
X4.9Y-3.775
X5.49Y-5.12
X5.49Y-5.3169
X5.75Y-4.625
X5.75Y-4.925
X5.85Y-4.5219
X5.85Y-4.625
X5.85Y-4.925
X5.95Y-4.625
X5.95Y-4.925
X6.0469Y-4.5219
X6.05Y-4.625
X6.05Y-4.925
X6.15Y-4.625
X6.15Y-4.925
X6.25Y-4.625
X6.25Y-4.925
X6.35Y-4.625
X6.35Y-4.925
X6.45Y-4.625
X6.45Y-4.925
X6.55Y-4.625
X6.55Y-4.925
X6.65Y-4.625
X6.65Y-4.925
X6.85Y-4.325
X7.35Y-4.325
T2
X4.35Y-3.425
X4.35Y-3.525
X4.35Y-3.625
X4.35Y-3.725
X4.35Y-3.825
X4.35Y-3.925
X4.35Y-4.025
X4.35Y-4.125
X4.35Y-4.225
X4.35Y-4.325
X4.35Y-4.425
X4.35Y-4.525
X4.35Y-4.625
X4.35Y-4.725
X4.7Y-3.32
X4.7Y-3.62
T3
X7.55Y-3.925
X7.55Y-4.025
X7.55Y-4.125
X7.55Y-4.225
X7.65Y-3.925
X7.65Y-4.025
X7.65Y-4.125
X7.65Y-4.225
T4
X5.75Y-5.225
X5.75Y-5.325
X5.85Y-5.225
X5.85Y-5.325
X5.95Y-5.225
X5.95Y-5.325
X6.05Y-5.225
X6.05Y-5.325
X6.15Y-5.225
X6.15Y-5.325
X6.25Y-5.225
X6.25Y-5.325
X6.35Y-5.225
X6.35Y-5.325
X6.45Y-5.225
X6.45Y-5.325
X6.55Y-5.225
X6.55Y-5.325
X6.65Y-5.225
X6.65Y-5.325
X7.0Y-4.68
X7.0Y-4.78
X7.0Y-4.88
X7.1Y-4.68
X7.1Y-4.78
X7.1Y-4.88
X7.9961Y-4.5033
X8.0Y-4.3459
T5
X4.7Y-3.925
X4.7Y-4.025
X4.7Y-4.125
X4.7Y-4.225
X4.7Y-4.325
X4.7Y-4.425
X4.7Y-4.525
X4.7Y-4.625
X4.7Y-4.725
X4.7Y-4.825
X4.7Y-4.925
X4.7Y-5.025
X4.7Y-5.125
X4.7Y-5.225
X5.3Y-3.925
X5.3Y-4.025
X5.3Y-4.125
X5.3Y-4.225
X5.3Y-4.325
X5.3Y-4.425
X5.3Y-4.525
X5.3Y-4.625
X5.3Y-4.725
X5.3Y-4.825
X5.3Y-4.925
X5.3Y-5.025
X5.3Y-5.125
X5.3Y-5.225
T0
M30
