%TF.GenerationSoftware,KiCad,Pcbnew,(5.1.10-1-10_14)*%
%TF.CreationDate,2022-08-05T12:13:03-05:00*%
%TF.ProjectId,Adam74,4164616d-3734-42e6-9b69-6361645f7063,rev?*%
%TF.SameCoordinates,Original*%
%TF.FileFunction,Legend,Top*%
%TF.FilePolarity,Positive*%
%FSLAX46Y46*%
G04 Gerber Fmt 4.6, Leading zero omitted, Abs format (unit mm)*
G04 Created by KiCad (PCBNEW (5.1.10-1-10_14)) date 2022-08-05 12:13:03*
%MOMM*%
%LPD*%
G01*
G04 APERTURE LIST*
%ADD10C,0.200000*%
%ADD11C,0.180000*%
%ADD12C,0.120000*%
%ADD13C,0.010000*%
%ADD14C,0.150000*%
G04 APERTURE END LIST*
D10*
X191442857Y-96714000D02*
X191785714Y-97628285D01*
X192128571Y-96714000D01*
X191842857Y-96256857D02*
X191842857Y-95228285D01*
X191157142Y-93914000D02*
X191100000Y-93856857D01*
X191042857Y-93742571D01*
X191042857Y-93456857D01*
X191100000Y-93342571D01*
X191157142Y-93285428D01*
X191271428Y-93228285D01*
X191385714Y-93228285D01*
X191557142Y-93285428D01*
X192242857Y-93971142D01*
X192242857Y-93228285D01*
X192128571Y-92714000D02*
X192185714Y-92656857D01*
X192242857Y-92714000D01*
X192185714Y-92771142D01*
X192128571Y-92714000D01*
X192242857Y-92714000D01*
X191557142Y-91971142D02*
X191500000Y-92085428D01*
X191442857Y-92142571D01*
X191328571Y-92199714D01*
X191271428Y-92199714D01*
X191157142Y-92142571D01*
X191100000Y-92085428D01*
X191042857Y-91971142D01*
X191042857Y-91742571D01*
X191100000Y-91628285D01*
X191157142Y-91571142D01*
X191271428Y-91514000D01*
X191328571Y-91514000D01*
X191442857Y-91571142D01*
X191500000Y-91628285D01*
X191557142Y-91742571D01*
X191557142Y-91971142D01*
X191614285Y-92085428D01*
X191671428Y-92142571D01*
X191785714Y-92199714D01*
X192014285Y-92199714D01*
X192128571Y-92142571D01*
X192185714Y-92085428D01*
X192242857Y-91971142D01*
X192242857Y-91742571D01*
X192185714Y-91628285D01*
X192128571Y-91571142D01*
X192014285Y-91514000D01*
X191785714Y-91514000D01*
X191671428Y-91571142D01*
X191614285Y-91628285D01*
X191557142Y-91742571D01*
X191042857Y-90999714D02*
X191100000Y-90999714D01*
X191214285Y-91056857D01*
X191271428Y-91114000D01*
X191042857Y-90542571D02*
X191100000Y-90542571D01*
X191214285Y-90599714D01*
X191271428Y-90656857D01*
X192242857Y-89171142D02*
X191042857Y-89171142D01*
X191042857Y-88885428D01*
X191100000Y-88714000D01*
X191214285Y-88599714D01*
X191328571Y-88542571D01*
X191557142Y-88485428D01*
X191728571Y-88485428D01*
X191957142Y-88542571D01*
X192071428Y-88599714D01*
X192185714Y-88714000D01*
X192242857Y-88885428D01*
X192242857Y-89171142D01*
X192242857Y-87971142D02*
X191042857Y-87971142D01*
X192185714Y-87456857D02*
X192242857Y-87285428D01*
X192242857Y-86999714D01*
X192185714Y-86885428D01*
X192128571Y-86828285D01*
X192014285Y-86771142D01*
X191900000Y-86771142D01*
X191785714Y-86828285D01*
X191728571Y-86885428D01*
X191671428Y-86999714D01*
X191614285Y-87228285D01*
X191557142Y-87342571D01*
X191500000Y-87399714D01*
X191385714Y-87456857D01*
X191271428Y-87456857D01*
X191157142Y-87399714D01*
X191100000Y-87342571D01*
X191042857Y-87228285D01*
X191042857Y-86942571D01*
X191100000Y-86771142D01*
X192242857Y-86256857D02*
X191042857Y-86256857D01*
X191042857Y-85799714D01*
X191100000Y-85685428D01*
X191157142Y-85628285D01*
X191271428Y-85571142D01*
X191442857Y-85571142D01*
X191557142Y-85628285D01*
X191614285Y-85685428D01*
X191671428Y-85799714D01*
X191671428Y-86256857D01*
X192242857Y-84485428D02*
X192242857Y-85056857D01*
X191042857Y-85056857D01*
X191900000Y-84142571D02*
X191900000Y-83571142D01*
X192242857Y-84256857D02*
X191042857Y-83856857D01*
X192242857Y-83456857D01*
X191671428Y-82828285D02*
X192242857Y-82828285D01*
X191042857Y-83228285D02*
X191671428Y-82828285D01*
X191042857Y-82428285D01*
X191042857Y-80885428D02*
X191042857Y-80656857D01*
X191100000Y-80542571D01*
X191214285Y-80428285D01*
X191442857Y-80371142D01*
X191842857Y-80371142D01*
X192071428Y-80428285D01*
X192185714Y-80542571D01*
X192242857Y-80656857D01*
X192242857Y-80885428D01*
X192185714Y-80999714D01*
X192071428Y-81114000D01*
X191842857Y-81171142D01*
X191442857Y-81171142D01*
X191214285Y-81114000D01*
X191100000Y-80999714D01*
X191042857Y-80885428D01*
X192242857Y-79856857D02*
X191042857Y-79856857D01*
X192242857Y-79171142D01*
X191042857Y-79171142D01*
X192242857Y-78028285D02*
X192242857Y-78599714D01*
X191042857Y-78599714D01*
X191671428Y-77399714D02*
X192242857Y-77399714D01*
X191042857Y-77799714D02*
X191671428Y-77399714D01*
X191042857Y-76999714D01*
X193842857Y-96714000D02*
X194185714Y-97628285D01*
X194528571Y-96714000D01*
X194242857Y-96256857D02*
X194242857Y-95228285D01*
X193442857Y-93971142D02*
X193442857Y-93228285D01*
X193900000Y-93628285D01*
X193900000Y-93456857D01*
X193957142Y-93342571D01*
X194014285Y-93285428D01*
X194128571Y-93228285D01*
X194414285Y-93228285D01*
X194528571Y-93285428D01*
X194585714Y-93342571D01*
X194642857Y-93456857D01*
X194642857Y-93799714D01*
X194585714Y-93914000D01*
X194528571Y-93971142D01*
X194528571Y-92714000D02*
X194585714Y-92656857D01*
X194642857Y-92714000D01*
X194585714Y-92771142D01*
X194528571Y-92714000D01*
X194642857Y-92714000D01*
X193557142Y-92199714D02*
X193500000Y-92142571D01*
X193442857Y-92028285D01*
X193442857Y-91742571D01*
X193500000Y-91628285D01*
X193557142Y-91571142D01*
X193671428Y-91514000D01*
X193785714Y-91514000D01*
X193957142Y-91571142D01*
X194642857Y-92256857D01*
X194642857Y-91514000D01*
X193442857Y-90999714D02*
X193500000Y-90999714D01*
X193614285Y-91056857D01*
X193671428Y-91114000D01*
X193442857Y-90542571D02*
X193500000Y-90542571D01*
X193614285Y-90599714D01*
X193671428Y-90656857D01*
X194642857Y-89171142D02*
X193442857Y-89171142D01*
X193442857Y-88885428D01*
X193500000Y-88714000D01*
X193614285Y-88599714D01*
X193728571Y-88542571D01*
X193957142Y-88485428D01*
X194128571Y-88485428D01*
X194357142Y-88542571D01*
X194471428Y-88599714D01*
X194585714Y-88714000D01*
X194642857Y-88885428D01*
X194642857Y-89171142D01*
X194642857Y-87971142D02*
X193442857Y-87971142D01*
X194585714Y-87456857D02*
X194642857Y-87285428D01*
X194642857Y-86999714D01*
X194585714Y-86885428D01*
X194528571Y-86828285D01*
X194414285Y-86771142D01*
X194300000Y-86771142D01*
X194185714Y-86828285D01*
X194128571Y-86885428D01*
X194071428Y-86999714D01*
X194014285Y-87228285D01*
X193957142Y-87342571D01*
X193900000Y-87399714D01*
X193785714Y-87456857D01*
X193671428Y-87456857D01*
X193557142Y-87399714D01*
X193500000Y-87342571D01*
X193442857Y-87228285D01*
X193442857Y-86942571D01*
X193500000Y-86771142D01*
X194642857Y-86256857D02*
X193442857Y-86256857D01*
X193442857Y-85799714D01*
X193500000Y-85685428D01*
X193557142Y-85628285D01*
X193671428Y-85571142D01*
X193842857Y-85571142D01*
X193957142Y-85628285D01*
X194014285Y-85685428D01*
X194071428Y-85799714D01*
X194071428Y-86256857D01*
X194642857Y-84485428D02*
X194642857Y-85056857D01*
X193442857Y-85056857D01*
X194300000Y-84142571D02*
X194300000Y-83571142D01*
X194642857Y-84256857D02*
X193442857Y-83856857D01*
X194642857Y-83456857D01*
X194071428Y-82828285D02*
X194642857Y-82828285D01*
X193442857Y-83228285D02*
X194071428Y-82828285D01*
X193442857Y-82428285D01*
X193442857Y-80885428D02*
X193442857Y-80656857D01*
X193500000Y-80542571D01*
X193614285Y-80428285D01*
X193842857Y-80371142D01*
X194242857Y-80371142D01*
X194471428Y-80428285D01*
X194585714Y-80542571D01*
X194642857Y-80656857D01*
X194642857Y-80885428D01*
X194585714Y-80999714D01*
X194471428Y-81114000D01*
X194242857Y-81171142D01*
X193842857Y-81171142D01*
X193614285Y-81114000D01*
X193500000Y-80999714D01*
X193442857Y-80885428D01*
X194642857Y-79856857D02*
X193442857Y-79856857D01*
X194642857Y-79171142D01*
X193442857Y-79171142D01*
X194642857Y-78028285D02*
X194642857Y-78599714D01*
X193442857Y-78599714D01*
X194071428Y-77399714D02*
X194642857Y-77399714D01*
X193442857Y-77799714D02*
X194071428Y-77399714D01*
X193442857Y-76999714D01*
D11*
X144619142Y-87948571D02*
X144619142Y-86448571D01*
X144619142Y-87162857D02*
X145476285Y-87162857D01*
X145476285Y-87948571D02*
X145476285Y-86448571D01*
X146190571Y-87948571D02*
X146190571Y-86948571D01*
X146190571Y-86448571D02*
X146119142Y-86520000D01*
X146190571Y-86591428D01*
X146262000Y-86520000D01*
X146190571Y-86448571D01*
X146190571Y-86591428D01*
X146976285Y-87877142D02*
X146976285Y-87948571D01*
X146904857Y-88091428D01*
X146833428Y-88162857D01*
X148547714Y-86948571D02*
X149119142Y-86948571D01*
X148762000Y-86448571D02*
X148762000Y-87734285D01*
X148833428Y-87877142D01*
X148976285Y-87948571D01*
X149119142Y-87948571D01*
X149619142Y-87948571D02*
X149619142Y-86448571D01*
X150262000Y-87948571D02*
X150262000Y-87162857D01*
X150190571Y-87020000D01*
X150047714Y-86948571D01*
X149833428Y-86948571D01*
X149690571Y-87020000D01*
X149619142Y-87091428D01*
X151547714Y-87877142D02*
X151404857Y-87948571D01*
X151119142Y-87948571D01*
X150976285Y-87877142D01*
X150904857Y-87734285D01*
X150904857Y-87162857D01*
X150976285Y-87020000D01*
X151119142Y-86948571D01*
X151404857Y-86948571D01*
X151547714Y-87020000D01*
X151619142Y-87162857D01*
X151619142Y-87305714D01*
X150904857Y-87448571D01*
X154047714Y-87948571D02*
X154047714Y-86448571D01*
X154047714Y-87877142D02*
X153904857Y-87948571D01*
X153619142Y-87948571D01*
X153476285Y-87877142D01*
X153404857Y-87805714D01*
X153333428Y-87662857D01*
X153333428Y-87234285D01*
X153404857Y-87091428D01*
X153476285Y-87020000D01*
X153619142Y-86948571D01*
X153904857Y-86948571D01*
X154047714Y-87020000D01*
X154762000Y-87948571D02*
X154762000Y-86948571D01*
X154762000Y-86448571D02*
X154690571Y-86520000D01*
X154762000Y-86591428D01*
X154833428Y-86520000D01*
X154762000Y-86448571D01*
X154762000Y-86591428D01*
X155404857Y-87877142D02*
X155547714Y-87948571D01*
X155833428Y-87948571D01*
X155976285Y-87877142D01*
X156047714Y-87734285D01*
X156047714Y-87662857D01*
X155976285Y-87520000D01*
X155833428Y-87448571D01*
X155619142Y-87448571D01*
X155476285Y-87377142D01*
X155404857Y-87234285D01*
X155404857Y-87162857D01*
X155476285Y-87020000D01*
X155619142Y-86948571D01*
X155833428Y-86948571D01*
X155976285Y-87020000D01*
X156690571Y-86948571D02*
X156690571Y-88448571D01*
X156690571Y-87020000D02*
X156833428Y-86948571D01*
X157119142Y-86948571D01*
X157262000Y-87020000D01*
X157333428Y-87091428D01*
X157404857Y-87234285D01*
X157404857Y-87662857D01*
X157333428Y-87805714D01*
X157262000Y-87877142D01*
X157119142Y-87948571D01*
X156833428Y-87948571D01*
X156690571Y-87877142D01*
X158262000Y-87948571D02*
X158119142Y-87877142D01*
X158047714Y-87734285D01*
X158047714Y-86448571D01*
X159476285Y-87948571D02*
X159476285Y-87162857D01*
X159404857Y-87020000D01*
X159262000Y-86948571D01*
X158976285Y-86948571D01*
X158833428Y-87020000D01*
X159476285Y-87877142D02*
X159333428Y-87948571D01*
X158976285Y-87948571D01*
X158833428Y-87877142D01*
X158762000Y-87734285D01*
X158762000Y-87591428D01*
X158833428Y-87448571D01*
X158976285Y-87377142D01*
X159333428Y-87377142D01*
X159476285Y-87305714D01*
X160047714Y-86948571D02*
X160404857Y-87948571D01*
X160762000Y-86948571D02*
X160404857Y-87948571D01*
X160262000Y-88305714D01*
X160190571Y-88377142D01*
X160047714Y-88448571D01*
X163690571Y-87948571D02*
X163619142Y-87948571D01*
X163476285Y-87877142D01*
X163262000Y-87662857D01*
X162904857Y-87234285D01*
X162762000Y-87020000D01*
X162690571Y-86805714D01*
X162690571Y-86662857D01*
X162762000Y-86520000D01*
X162904857Y-86448571D01*
X162976285Y-86448571D01*
X163119142Y-86520000D01*
X163190571Y-86662857D01*
X163190571Y-86734285D01*
X163119142Y-86877142D01*
X163047714Y-86948571D01*
X162619142Y-87234285D01*
X162547714Y-87305714D01*
X162476285Y-87448571D01*
X162476285Y-87662857D01*
X162547714Y-87805714D01*
X162619142Y-87877142D01*
X162762000Y-87948571D01*
X162976285Y-87948571D01*
X163119142Y-87877142D01*
X163190571Y-87805714D01*
X163404857Y-87520000D01*
X163476285Y-87305714D01*
X163476285Y-87162857D01*
X165404857Y-87877142D02*
X165547714Y-87948571D01*
X165833428Y-87948571D01*
X165976285Y-87877142D01*
X166047714Y-87734285D01*
X166047714Y-87662857D01*
X165976285Y-87520000D01*
X165833428Y-87448571D01*
X165619142Y-87448571D01*
X165476285Y-87377142D01*
X165404857Y-87234285D01*
X165404857Y-87162857D01*
X165476285Y-87020000D01*
X165619142Y-86948571D01*
X165833428Y-86948571D01*
X165976285Y-87020000D01*
X166690571Y-86948571D02*
X166690571Y-88448571D01*
X166690571Y-87020000D02*
X166833428Y-86948571D01*
X167119142Y-86948571D01*
X167262000Y-87020000D01*
X167333428Y-87091428D01*
X167404857Y-87234285D01*
X167404857Y-87662857D01*
X167333428Y-87805714D01*
X167262000Y-87877142D01*
X167119142Y-87948571D01*
X166833428Y-87948571D01*
X166690571Y-87877142D01*
X168619142Y-87877142D02*
X168476285Y-87948571D01*
X168190571Y-87948571D01*
X168047714Y-87877142D01*
X167976285Y-87734285D01*
X167976285Y-87162857D01*
X168047714Y-87020000D01*
X168190571Y-86948571D01*
X168476285Y-86948571D01*
X168619142Y-87020000D01*
X168690571Y-87162857D01*
X168690571Y-87305714D01*
X167976285Y-87448571D01*
X169976285Y-87948571D02*
X169976285Y-87162857D01*
X169904857Y-87020000D01*
X169762000Y-86948571D01*
X169476285Y-86948571D01*
X169333428Y-87020000D01*
X169976285Y-87877142D02*
X169833428Y-87948571D01*
X169476285Y-87948571D01*
X169333428Y-87877142D01*
X169262000Y-87734285D01*
X169262000Y-87591428D01*
X169333428Y-87448571D01*
X169476285Y-87377142D01*
X169833428Y-87377142D01*
X169976285Y-87305714D01*
X170690571Y-87948571D02*
X170690571Y-86448571D01*
X170833428Y-87377142D02*
X171262000Y-87948571D01*
X171262000Y-86948571D02*
X170690571Y-87520000D01*
X172476285Y-87877142D02*
X172333428Y-87948571D01*
X172047714Y-87948571D01*
X171904857Y-87877142D01*
X171833428Y-87734285D01*
X171833428Y-87162857D01*
X171904857Y-87020000D01*
X172047714Y-86948571D01*
X172333428Y-86948571D01*
X172476285Y-87020000D01*
X172547714Y-87162857D01*
X172547714Y-87305714D01*
X171833428Y-87448571D01*
X173190571Y-87948571D02*
X173190571Y-86948571D01*
X173190571Y-87234285D02*
X173262000Y-87091428D01*
X173333428Y-87020000D01*
X173476285Y-86948571D01*
X173619142Y-86948571D01*
X175904857Y-87948571D02*
X175904857Y-87162857D01*
X175833428Y-87020000D01*
X175690571Y-86948571D01*
X175404857Y-86948571D01*
X175262000Y-87020000D01*
X175904857Y-87877142D02*
X175762000Y-87948571D01*
X175404857Y-87948571D01*
X175262000Y-87877142D01*
X175190571Y-87734285D01*
X175190571Y-87591428D01*
X175262000Y-87448571D01*
X175404857Y-87377142D01*
X175762000Y-87377142D01*
X175904857Y-87305714D01*
X176619142Y-87948571D02*
X176619142Y-86948571D01*
X176619142Y-87234285D02*
X176690571Y-87091428D01*
X176762000Y-87020000D01*
X176904857Y-86948571D01*
X177047714Y-86948571D01*
X178119142Y-87877142D02*
X177976285Y-87948571D01*
X177690571Y-87948571D01*
X177547714Y-87877142D01*
X177476285Y-87734285D01*
X177476285Y-87162857D01*
X177547714Y-87020000D01*
X177690571Y-86948571D01*
X177976285Y-86948571D01*
X178119142Y-87020000D01*
X178190571Y-87162857D01*
X178190571Y-87305714D01*
X177476285Y-87448571D01*
X145262000Y-90378571D02*
X145262000Y-89592857D01*
X145190571Y-89450000D01*
X145047714Y-89378571D01*
X144762000Y-89378571D01*
X144619142Y-89450000D01*
X145262000Y-90307142D02*
X145119142Y-90378571D01*
X144762000Y-90378571D01*
X144619142Y-90307142D01*
X144547714Y-90164285D01*
X144547714Y-90021428D01*
X144619142Y-89878571D01*
X144762000Y-89807142D01*
X145119142Y-89807142D01*
X145262000Y-89735714D01*
X145762000Y-89378571D02*
X146333428Y-89378571D01*
X145976285Y-88878571D02*
X145976285Y-90164285D01*
X146047714Y-90307142D01*
X146190571Y-90378571D01*
X146333428Y-90378571D01*
X146619142Y-89378571D02*
X147190571Y-89378571D01*
X146833428Y-88878571D02*
X146833428Y-90164285D01*
X146904857Y-90307142D01*
X147047714Y-90378571D01*
X147190571Y-90378571D01*
X148333428Y-90378571D02*
X148333428Y-89592857D01*
X148262000Y-89450000D01*
X148119142Y-89378571D01*
X147833428Y-89378571D01*
X147690571Y-89450000D01*
X148333428Y-90307142D02*
X148190571Y-90378571D01*
X147833428Y-90378571D01*
X147690571Y-90307142D01*
X147619142Y-90164285D01*
X147619142Y-90021428D01*
X147690571Y-89878571D01*
X147833428Y-89807142D01*
X148190571Y-89807142D01*
X148333428Y-89735714D01*
X149690571Y-90307142D02*
X149547714Y-90378571D01*
X149262000Y-90378571D01*
X149119142Y-90307142D01*
X149047714Y-90235714D01*
X148976285Y-90092857D01*
X148976285Y-89664285D01*
X149047714Y-89521428D01*
X149119142Y-89450000D01*
X149262000Y-89378571D01*
X149547714Y-89378571D01*
X149690571Y-89450000D01*
X150333428Y-90378571D02*
X150333428Y-88878571D01*
X150976285Y-90378571D02*
X150976285Y-89592857D01*
X150904857Y-89450000D01*
X150762000Y-89378571D01*
X150547714Y-89378571D01*
X150404857Y-89450000D01*
X150333428Y-89521428D01*
X152262000Y-90307142D02*
X152119142Y-90378571D01*
X151833428Y-90378571D01*
X151690571Y-90307142D01*
X151619142Y-90164285D01*
X151619142Y-89592857D01*
X151690571Y-89450000D01*
X151833428Y-89378571D01*
X152119142Y-89378571D01*
X152262000Y-89450000D01*
X152333428Y-89592857D01*
X152333428Y-89735714D01*
X151619142Y-89878571D01*
X153619142Y-90378571D02*
X153619142Y-88878571D01*
X153619142Y-90307142D02*
X153476285Y-90378571D01*
X153190571Y-90378571D01*
X153047714Y-90307142D01*
X152976285Y-90235714D01*
X152904857Y-90092857D01*
X152904857Y-89664285D01*
X152976285Y-89521428D01*
X153047714Y-89450000D01*
X153190571Y-89378571D01*
X153476285Y-89378571D01*
X153619142Y-89450000D01*
X155262000Y-89378571D02*
X155833428Y-89378571D01*
X155476285Y-88878571D02*
X155476285Y-90164285D01*
X155547714Y-90307142D01*
X155690571Y-90378571D01*
X155833428Y-90378571D01*
X156547714Y-90378571D02*
X156404857Y-90307142D01*
X156333428Y-90235714D01*
X156262000Y-90092857D01*
X156262000Y-89664285D01*
X156333428Y-89521428D01*
X156404857Y-89450000D01*
X156547714Y-89378571D01*
X156762000Y-89378571D01*
X156904857Y-89450000D01*
X156976285Y-89521428D01*
X157047714Y-89664285D01*
X157047714Y-90092857D01*
X156976285Y-90235714D01*
X156904857Y-90307142D01*
X156762000Y-90378571D01*
X156547714Y-90378571D01*
X158619142Y-89378571D02*
X159190571Y-89378571D01*
X158833428Y-88878571D02*
X158833428Y-90164285D01*
X158904857Y-90307142D01*
X159047714Y-90378571D01*
X159190571Y-90378571D01*
X159690571Y-90378571D02*
X159690571Y-88878571D01*
X160333428Y-90378571D02*
X160333428Y-89592857D01*
X160262000Y-89450000D01*
X160119142Y-89378571D01*
X159904857Y-89378571D01*
X159762000Y-89450000D01*
X159690571Y-89521428D01*
X161047714Y-90378571D02*
X161047714Y-89378571D01*
X161047714Y-88878571D02*
X160976285Y-88950000D01*
X161047714Y-89021428D01*
X161119142Y-88950000D01*
X161047714Y-88878571D01*
X161047714Y-89021428D01*
X161690571Y-90307142D02*
X161833428Y-90378571D01*
X162119142Y-90378571D01*
X162262000Y-90307142D01*
X162333428Y-90164285D01*
X162333428Y-90092857D01*
X162262000Y-89950000D01*
X162119142Y-89878571D01*
X161904857Y-89878571D01*
X161762000Y-89807142D01*
X161690571Y-89664285D01*
X161690571Y-89592857D01*
X161762000Y-89450000D01*
X161904857Y-89378571D01*
X162119142Y-89378571D01*
X162262000Y-89450000D01*
X164047714Y-90307142D02*
X164190571Y-90378571D01*
X164476285Y-90378571D01*
X164619142Y-90307142D01*
X164690571Y-90164285D01*
X164690571Y-90092857D01*
X164619142Y-89950000D01*
X164476285Y-89878571D01*
X164262000Y-89878571D01*
X164119142Y-89807142D01*
X164047714Y-89664285D01*
X164047714Y-89592857D01*
X164119142Y-89450000D01*
X164262000Y-89378571D01*
X164476285Y-89378571D01*
X164619142Y-89450000D01*
X165333428Y-90378571D02*
X165333428Y-89378571D01*
X165333428Y-88878571D02*
X165262000Y-88950000D01*
X165333428Y-89021428D01*
X165404857Y-88950000D01*
X165333428Y-88878571D01*
X165333428Y-89021428D01*
X166690571Y-90378571D02*
X166690571Y-88878571D01*
X166690571Y-90307142D02*
X166547714Y-90378571D01*
X166262000Y-90378571D01*
X166119142Y-90307142D01*
X166047714Y-90235714D01*
X165976285Y-90092857D01*
X165976285Y-89664285D01*
X166047714Y-89521428D01*
X166119142Y-89450000D01*
X166262000Y-89378571D01*
X166547714Y-89378571D01*
X166690571Y-89450000D01*
X167976285Y-90307142D02*
X167833428Y-90378571D01*
X167547714Y-90378571D01*
X167404857Y-90307142D01*
X167333428Y-90164285D01*
X167333428Y-89592857D01*
X167404857Y-89450000D01*
X167547714Y-89378571D01*
X167833428Y-89378571D01*
X167976285Y-89450000D01*
X168047714Y-89592857D01*
X168047714Y-89735714D01*
X167333428Y-89878571D01*
X168690571Y-90235714D02*
X168762000Y-90307142D01*
X168690571Y-90378571D01*
X168619142Y-90307142D01*
X168690571Y-90235714D01*
X168690571Y-90378571D01*
X170333428Y-88878571D02*
X171190571Y-88878571D01*
X170762000Y-90378571D02*
X170762000Y-88878571D01*
X171690571Y-90378571D02*
X171690571Y-88878571D01*
X172333428Y-90378571D02*
X172333428Y-89592857D01*
X172262000Y-89450000D01*
X172119142Y-89378571D01*
X171904857Y-89378571D01*
X171762000Y-89450000D01*
X171690571Y-89521428D01*
X173619142Y-90307142D02*
X173476285Y-90378571D01*
X173190571Y-90378571D01*
X173047714Y-90307142D01*
X172976285Y-90164285D01*
X172976285Y-89592857D01*
X173047714Y-89450000D01*
X173190571Y-89378571D01*
X173476285Y-89378571D01*
X173619142Y-89450000D01*
X173690571Y-89592857D01*
X173690571Y-89735714D01*
X172976285Y-89878571D01*
X175476285Y-90378571D02*
X175476285Y-89378571D01*
X175476285Y-89664285D02*
X175547714Y-89521428D01*
X175619142Y-89450000D01*
X175762000Y-89378571D01*
X175904857Y-89378571D01*
X176976285Y-90307142D02*
X176833428Y-90378571D01*
X176547714Y-90378571D01*
X176404857Y-90307142D01*
X176333428Y-90164285D01*
X176333428Y-89592857D01*
X176404857Y-89450000D01*
X176547714Y-89378571D01*
X176833428Y-89378571D01*
X176976285Y-89450000D01*
X177047714Y-89592857D01*
X177047714Y-89735714D01*
X176333428Y-89878571D01*
X177619142Y-90307142D02*
X177762000Y-90378571D01*
X178047714Y-90378571D01*
X178190571Y-90307142D01*
X178262000Y-90164285D01*
X178262000Y-90092857D01*
X178190571Y-89950000D01*
X178047714Y-89878571D01*
X177833428Y-89878571D01*
X177690571Y-89807142D01*
X177619142Y-89664285D01*
X177619142Y-89592857D01*
X177690571Y-89450000D01*
X177833428Y-89378571D01*
X178047714Y-89378571D01*
X178190571Y-89450000D01*
X178690571Y-89378571D02*
X179262000Y-89378571D01*
X178904857Y-88878571D02*
X178904857Y-90164285D01*
X178976285Y-90307142D01*
X179119142Y-90378571D01*
X179262000Y-90378571D01*
X144833428Y-92808571D02*
X144690571Y-92737142D01*
X144619142Y-92665714D01*
X144547714Y-92522857D01*
X144547714Y-92094285D01*
X144619142Y-91951428D01*
X144690571Y-91880000D01*
X144833428Y-91808571D01*
X145047714Y-91808571D01*
X145190571Y-91880000D01*
X145262000Y-91951428D01*
X145333428Y-92094285D01*
X145333428Y-92522857D01*
X145262000Y-92665714D01*
X145190571Y-92737142D01*
X145047714Y-92808571D01*
X144833428Y-92808571D01*
X145762000Y-91808571D02*
X146333428Y-91808571D01*
X145976285Y-92808571D02*
X145976285Y-91522857D01*
X146047714Y-91380000D01*
X146190571Y-91308571D01*
X146333428Y-91308571D01*
X147762000Y-91808571D02*
X148333428Y-91808571D01*
X147976285Y-91308571D02*
X147976285Y-92594285D01*
X148047714Y-92737142D01*
X148190571Y-92808571D01*
X148333428Y-92808571D01*
X148833428Y-92808571D02*
X148833428Y-91308571D01*
X149476285Y-92808571D02*
X149476285Y-92022857D01*
X149404857Y-91880000D01*
X149262000Y-91808571D01*
X149047714Y-91808571D01*
X148904857Y-91880000D01*
X148833428Y-91951428D01*
X150762000Y-92737142D02*
X150619142Y-92808571D01*
X150333428Y-92808571D01*
X150190571Y-92737142D01*
X150119142Y-92594285D01*
X150119142Y-92022857D01*
X150190571Y-91880000D01*
X150333428Y-91808571D01*
X150619142Y-91808571D01*
X150762000Y-91880000D01*
X150833428Y-92022857D01*
X150833428Y-92165714D01*
X150119142Y-92308571D01*
X153262000Y-92737142D02*
X153119142Y-92808571D01*
X152833428Y-92808571D01*
X152690571Y-92737142D01*
X152619142Y-92665714D01*
X152547714Y-92522857D01*
X152547714Y-92094285D01*
X152619142Y-91951428D01*
X152690571Y-91880000D01*
X152833428Y-91808571D01*
X153119142Y-91808571D01*
X153262000Y-91880000D01*
X154119142Y-92808571D02*
X153976285Y-92737142D01*
X153904857Y-92665714D01*
X153833428Y-92522857D01*
X153833428Y-92094285D01*
X153904857Y-91951428D01*
X153976285Y-91880000D01*
X154119142Y-91808571D01*
X154333428Y-91808571D01*
X154476285Y-91880000D01*
X154547714Y-91951428D01*
X154619142Y-92094285D01*
X154619142Y-92522857D01*
X154547714Y-92665714D01*
X154476285Y-92737142D01*
X154333428Y-92808571D01*
X154119142Y-92808571D01*
X155262000Y-92808571D02*
X155262000Y-91808571D01*
X155262000Y-91951428D02*
X155333428Y-91880000D01*
X155476285Y-91808571D01*
X155690571Y-91808571D01*
X155833428Y-91880000D01*
X155904857Y-92022857D01*
X155904857Y-92808571D01*
X155904857Y-92022857D02*
X155976285Y-91880000D01*
X156119142Y-91808571D01*
X156333428Y-91808571D01*
X156476285Y-91880000D01*
X156547714Y-92022857D01*
X156547714Y-92808571D01*
X157262000Y-91808571D02*
X157262000Y-93308571D01*
X157262000Y-91880000D02*
X157404857Y-91808571D01*
X157690571Y-91808571D01*
X157833428Y-91880000D01*
X157904857Y-91951428D01*
X157976285Y-92094285D01*
X157976285Y-92522857D01*
X157904857Y-92665714D01*
X157833428Y-92737142D01*
X157690571Y-92808571D01*
X157404857Y-92808571D01*
X157262000Y-92737142D01*
X158833428Y-92808571D02*
X158690571Y-92737142D01*
X158619142Y-92665714D01*
X158547714Y-92522857D01*
X158547714Y-92094285D01*
X158619142Y-91951428D01*
X158690571Y-91880000D01*
X158833428Y-91808571D01*
X159047714Y-91808571D01*
X159190571Y-91880000D01*
X159262000Y-91951428D01*
X159333428Y-92094285D01*
X159333428Y-92522857D01*
X159262000Y-92665714D01*
X159190571Y-92737142D01*
X159047714Y-92808571D01*
X158833428Y-92808571D01*
X159976285Y-91808571D02*
X159976285Y-92808571D01*
X159976285Y-91951428D02*
X160047714Y-91880000D01*
X160190571Y-91808571D01*
X160404857Y-91808571D01*
X160547714Y-91880000D01*
X160619142Y-92022857D01*
X160619142Y-92808571D01*
X161904857Y-92737142D02*
X161762000Y-92808571D01*
X161476285Y-92808571D01*
X161333428Y-92737142D01*
X161262000Y-92594285D01*
X161262000Y-92022857D01*
X161333428Y-91880000D01*
X161476285Y-91808571D01*
X161762000Y-91808571D01*
X161904857Y-91880000D01*
X161976285Y-92022857D01*
X161976285Y-92165714D01*
X161262000Y-92308571D01*
X162619142Y-91808571D02*
X162619142Y-92808571D01*
X162619142Y-91951428D02*
X162690571Y-91880000D01*
X162833428Y-91808571D01*
X163047714Y-91808571D01*
X163190571Y-91880000D01*
X163262000Y-92022857D01*
X163262000Y-92808571D01*
X163762000Y-91808571D02*
X164333428Y-91808571D01*
X163976285Y-91308571D02*
X163976285Y-92594285D01*
X164047714Y-92737142D01*
X164190571Y-92808571D01*
X164333428Y-92808571D01*
X164762000Y-92737142D02*
X164904857Y-92808571D01*
X165190571Y-92808571D01*
X165333428Y-92737142D01*
X165404857Y-92594285D01*
X165404857Y-92522857D01*
X165333428Y-92380000D01*
X165190571Y-92308571D01*
X164976285Y-92308571D01*
X164833428Y-92237142D01*
X164762000Y-92094285D01*
X164762000Y-92022857D01*
X164833428Y-91880000D01*
X164976285Y-91808571D01*
X165190571Y-91808571D01*
X165333428Y-91880000D01*
X167833428Y-92808571D02*
X167833428Y-92022857D01*
X167762000Y-91880000D01*
X167619142Y-91808571D01*
X167333428Y-91808571D01*
X167190571Y-91880000D01*
X167833428Y-92737142D02*
X167690571Y-92808571D01*
X167333428Y-92808571D01*
X167190571Y-92737142D01*
X167119142Y-92594285D01*
X167119142Y-92451428D01*
X167190571Y-92308571D01*
X167333428Y-92237142D01*
X167690571Y-92237142D01*
X167833428Y-92165714D01*
X168547714Y-92808571D02*
X168547714Y-91808571D01*
X168547714Y-92094285D02*
X168619142Y-91951428D01*
X168690571Y-91880000D01*
X168833428Y-91808571D01*
X168976285Y-91808571D01*
X170047714Y-92737142D02*
X169904857Y-92808571D01*
X169619142Y-92808571D01*
X169476285Y-92737142D01*
X169404857Y-92594285D01*
X169404857Y-92022857D01*
X169476285Y-91880000D01*
X169619142Y-91808571D01*
X169904857Y-91808571D01*
X170047714Y-91880000D01*
X170119142Y-92022857D01*
X170119142Y-92165714D01*
X169404857Y-92308571D01*
X172119142Y-92808571D02*
X171976285Y-92737142D01*
X171904857Y-92665714D01*
X171833428Y-92522857D01*
X171833428Y-92094285D01*
X171904857Y-91951428D01*
X171976285Y-91880000D01*
X172119142Y-91808571D01*
X172333428Y-91808571D01*
X172476285Y-91880000D01*
X172547714Y-91951428D01*
X172619142Y-92094285D01*
X172619142Y-92522857D01*
X172547714Y-92665714D01*
X172476285Y-92737142D01*
X172333428Y-92808571D01*
X172119142Y-92808571D01*
X173262000Y-91808571D02*
X173262000Y-92808571D01*
X173262000Y-91951428D02*
X173333428Y-91880000D01*
X173476285Y-91808571D01*
X173690571Y-91808571D01*
X173833428Y-91880000D01*
X173904857Y-92022857D01*
X173904857Y-92808571D01*
X175547714Y-91808571D02*
X176119142Y-91808571D01*
X175762000Y-91308571D02*
X175762000Y-92594285D01*
X175833428Y-92737142D01*
X175976285Y-92808571D01*
X176119142Y-92808571D01*
X176619142Y-92808571D02*
X176619142Y-91308571D01*
X177262000Y-92808571D02*
X177262000Y-92022857D01*
X177190571Y-91880000D01*
X177047714Y-91808571D01*
X176833428Y-91808571D01*
X176690571Y-91880000D01*
X176619142Y-91951428D01*
X178547714Y-92737142D02*
X178404857Y-92808571D01*
X178119142Y-92808571D01*
X177976285Y-92737142D01*
X177904857Y-92594285D01*
X177904857Y-92022857D01*
X177976285Y-91880000D01*
X178119142Y-91808571D01*
X178404857Y-91808571D01*
X178547714Y-91880000D01*
X178619142Y-92022857D01*
X178619142Y-92165714D01*
X177904857Y-92308571D01*
X144833428Y-95238571D02*
X144690571Y-95167142D01*
X144619142Y-95095714D01*
X144547714Y-94952857D01*
X144547714Y-94524285D01*
X144619142Y-94381428D01*
X144690571Y-94310000D01*
X144833428Y-94238571D01*
X145047714Y-94238571D01*
X145190571Y-94310000D01*
X145262000Y-94381428D01*
X145333428Y-94524285D01*
X145333428Y-94952857D01*
X145262000Y-95095714D01*
X145190571Y-95167142D01*
X145047714Y-95238571D01*
X144833428Y-95238571D01*
X145762000Y-94238571D02*
X146333428Y-94238571D01*
X145976285Y-93738571D02*
X145976285Y-95024285D01*
X146047714Y-95167142D01*
X146190571Y-95238571D01*
X146333428Y-95238571D01*
X146833428Y-95238571D02*
X146833428Y-93738571D01*
X147476285Y-95238571D02*
X147476285Y-94452857D01*
X147404857Y-94310000D01*
X147262000Y-94238571D01*
X147047714Y-94238571D01*
X146904857Y-94310000D01*
X146833428Y-94381428D01*
X148762000Y-95167142D02*
X148619142Y-95238571D01*
X148333428Y-95238571D01*
X148190571Y-95167142D01*
X148119142Y-95024285D01*
X148119142Y-94452857D01*
X148190571Y-94310000D01*
X148333428Y-94238571D01*
X148619142Y-94238571D01*
X148762000Y-94310000D01*
X148833428Y-94452857D01*
X148833428Y-94595714D01*
X148119142Y-94738571D01*
X149476285Y-95238571D02*
X149476285Y-94238571D01*
X149476285Y-94524285D02*
X149547714Y-94381428D01*
X149619142Y-94310000D01*
X149762000Y-94238571D01*
X149904857Y-94238571D01*
X151476285Y-95167142D02*
X151619142Y-95238571D01*
X151904857Y-95238571D01*
X152047714Y-95167142D01*
X152119142Y-95024285D01*
X152119142Y-94952857D01*
X152047714Y-94810000D01*
X151904857Y-94738571D01*
X151690571Y-94738571D01*
X151547714Y-94667142D01*
X151476285Y-94524285D01*
X151476285Y-94452857D01*
X151547714Y-94310000D01*
X151690571Y-94238571D01*
X151904857Y-94238571D01*
X152047714Y-94310000D01*
X152762000Y-95238571D02*
X152762000Y-94238571D01*
X152762000Y-93738571D02*
X152690571Y-93810000D01*
X152762000Y-93881428D01*
X152833428Y-93810000D01*
X152762000Y-93738571D01*
X152762000Y-93881428D01*
X154119142Y-95238571D02*
X154119142Y-93738571D01*
X154119142Y-95167142D02*
X153976285Y-95238571D01*
X153690571Y-95238571D01*
X153547714Y-95167142D01*
X153476285Y-95095714D01*
X153404857Y-94952857D01*
X153404857Y-94524285D01*
X153476285Y-94381428D01*
X153547714Y-94310000D01*
X153690571Y-94238571D01*
X153976285Y-94238571D01*
X154119142Y-94310000D01*
X155404857Y-95167142D02*
X155262000Y-95238571D01*
X154976285Y-95238571D01*
X154833428Y-95167142D01*
X154762000Y-95024285D01*
X154762000Y-94452857D01*
X154833428Y-94310000D01*
X154976285Y-94238571D01*
X155262000Y-94238571D01*
X155404857Y-94310000D01*
X155476285Y-94452857D01*
X155476285Y-94595714D01*
X154762000Y-94738571D01*
X156119142Y-95095714D02*
X156190571Y-95167142D01*
X156119142Y-95238571D01*
X156047714Y-95167142D01*
X156119142Y-95095714D01*
X156119142Y-95238571D01*
X158476285Y-94452857D02*
X158690571Y-94524285D01*
X158762000Y-94595714D01*
X158833428Y-94738571D01*
X158833428Y-94952857D01*
X158762000Y-95095714D01*
X158690571Y-95167142D01*
X158547714Y-95238571D01*
X157976285Y-95238571D01*
X157976285Y-93738571D01*
X158476285Y-93738571D01*
X158619142Y-93810000D01*
X158690571Y-93881428D01*
X158762000Y-94024285D01*
X158762000Y-94167142D01*
X158690571Y-94310000D01*
X158619142Y-94381428D01*
X158476285Y-94452857D01*
X157976285Y-94452857D01*
X160047714Y-95167142D02*
X159904857Y-95238571D01*
X159619142Y-95238571D01*
X159476285Y-95167142D01*
X159404857Y-95024285D01*
X159404857Y-94452857D01*
X159476285Y-94310000D01*
X159619142Y-94238571D01*
X159904857Y-94238571D01*
X160047714Y-94310000D01*
X160119142Y-94452857D01*
X160119142Y-94595714D01*
X159404857Y-94738571D01*
X161833428Y-95167142D02*
X161976285Y-95238571D01*
X162262000Y-95238571D01*
X162404857Y-95167142D01*
X162476285Y-95024285D01*
X162476285Y-94952857D01*
X162404857Y-94810000D01*
X162262000Y-94738571D01*
X162047714Y-94738571D01*
X161904857Y-94667142D01*
X161833428Y-94524285D01*
X161833428Y-94452857D01*
X161904857Y-94310000D01*
X162047714Y-94238571D01*
X162262000Y-94238571D01*
X162404857Y-94310000D01*
X163762000Y-94238571D02*
X163762000Y-95238571D01*
X163119142Y-94238571D02*
X163119142Y-95024285D01*
X163190571Y-95167142D01*
X163333428Y-95238571D01*
X163547714Y-95238571D01*
X163690571Y-95167142D01*
X163762000Y-95095714D01*
X164476285Y-95238571D02*
X164476285Y-94238571D01*
X164476285Y-94524285D02*
X164547714Y-94381428D01*
X164619142Y-94310000D01*
X164762000Y-94238571D01*
X164904857Y-94238571D01*
X165976285Y-95167142D02*
X165833428Y-95238571D01*
X165547714Y-95238571D01*
X165404857Y-95167142D01*
X165333428Y-95024285D01*
X165333428Y-94452857D01*
X165404857Y-94310000D01*
X165547714Y-94238571D01*
X165833428Y-94238571D01*
X165976285Y-94310000D01*
X166047714Y-94452857D01*
X166047714Y-94595714D01*
X165333428Y-94738571D01*
X167619142Y-94238571D02*
X168190571Y-94238571D01*
X167833428Y-93738571D02*
X167833428Y-95024285D01*
X167904857Y-95167142D01*
X168047714Y-95238571D01*
X168190571Y-95238571D01*
X168904857Y-95238571D02*
X168762000Y-95167142D01*
X168690571Y-95095714D01*
X168619142Y-94952857D01*
X168619142Y-94524285D01*
X168690571Y-94381428D01*
X168762000Y-94310000D01*
X168904857Y-94238571D01*
X169119142Y-94238571D01*
X169262000Y-94310000D01*
X169333428Y-94381428D01*
X169404857Y-94524285D01*
X169404857Y-94952857D01*
X169333428Y-95095714D01*
X169262000Y-95167142D01*
X169119142Y-95238571D01*
X168904857Y-95238571D01*
X171119142Y-95167142D02*
X171262000Y-95238571D01*
X171547714Y-95238571D01*
X171690571Y-95167142D01*
X171762000Y-95024285D01*
X171762000Y-94952857D01*
X171690571Y-94810000D01*
X171547714Y-94738571D01*
X171333428Y-94738571D01*
X171190571Y-94667142D01*
X171119142Y-94524285D01*
X171119142Y-94452857D01*
X171190571Y-94310000D01*
X171333428Y-94238571D01*
X171547714Y-94238571D01*
X171690571Y-94310000D01*
X172619142Y-95238571D02*
X172476285Y-95167142D01*
X172404857Y-95095714D01*
X172333428Y-94952857D01*
X172333428Y-94524285D01*
X172404857Y-94381428D01*
X172476285Y-94310000D01*
X172619142Y-94238571D01*
X172833428Y-94238571D01*
X172976285Y-94310000D01*
X173047714Y-94381428D01*
X173119142Y-94524285D01*
X173119142Y-94952857D01*
X173047714Y-95095714D01*
X172976285Y-95167142D01*
X172833428Y-95238571D01*
X172619142Y-95238571D01*
X173976285Y-95238571D02*
X173833428Y-95167142D01*
X173762000Y-95024285D01*
X173762000Y-93738571D01*
X175190571Y-95238571D02*
X175190571Y-93738571D01*
X175190571Y-95167142D02*
X175047714Y-95238571D01*
X174762000Y-95238571D01*
X174619142Y-95167142D01*
X174547714Y-95095714D01*
X174476285Y-94952857D01*
X174476285Y-94524285D01*
X174547714Y-94381428D01*
X174619142Y-94310000D01*
X174762000Y-94238571D01*
X175047714Y-94238571D01*
X175190571Y-94310000D01*
X176476285Y-95167142D02*
X176333428Y-95238571D01*
X176047714Y-95238571D01*
X175904857Y-95167142D01*
X175833428Y-95024285D01*
X175833428Y-94452857D01*
X175904857Y-94310000D01*
X176047714Y-94238571D01*
X176333428Y-94238571D01*
X176476285Y-94310000D01*
X176547714Y-94452857D01*
X176547714Y-94595714D01*
X175833428Y-94738571D01*
X177190571Y-95238571D02*
X177190571Y-94238571D01*
X177190571Y-94524285D02*
X177262000Y-94381428D01*
X177333428Y-94310000D01*
X177476285Y-94238571D01*
X177619142Y-94238571D01*
X179047714Y-94238571D02*
X179619142Y-94238571D01*
X179262000Y-93738571D02*
X179262000Y-95024285D01*
X179333428Y-95167142D01*
X179476285Y-95238571D01*
X179619142Y-95238571D01*
X180119142Y-95238571D02*
X180119142Y-93738571D01*
X180762000Y-95238571D02*
X180762000Y-94452857D01*
X180690571Y-94310000D01*
X180547714Y-94238571D01*
X180333428Y-94238571D01*
X180190571Y-94310000D01*
X180119142Y-94381428D01*
X182047714Y-95167142D02*
X181904857Y-95238571D01*
X181619142Y-95238571D01*
X181476285Y-95167142D01*
X181404857Y-95024285D01*
X181404857Y-94452857D01*
X181476285Y-94310000D01*
X181619142Y-94238571D01*
X181904857Y-94238571D01*
X182047714Y-94310000D01*
X182119142Y-94452857D01*
X182119142Y-94595714D01*
X181404857Y-94738571D01*
X145262000Y-97597142D02*
X145119142Y-97668571D01*
X144833428Y-97668571D01*
X144690571Y-97597142D01*
X144619142Y-97525714D01*
X144547714Y-97382857D01*
X144547714Y-96954285D01*
X144619142Y-96811428D01*
X144690571Y-96740000D01*
X144833428Y-96668571D01*
X145119142Y-96668571D01*
X145262000Y-96740000D01*
X146119142Y-97668571D02*
X145976285Y-97597142D01*
X145904857Y-97525714D01*
X145833428Y-97382857D01*
X145833428Y-96954285D01*
X145904857Y-96811428D01*
X145976285Y-96740000D01*
X146119142Y-96668571D01*
X146333428Y-96668571D01*
X146476285Y-96740000D01*
X146547714Y-96811428D01*
X146619142Y-96954285D01*
X146619142Y-97382857D01*
X146547714Y-97525714D01*
X146476285Y-97597142D01*
X146333428Y-97668571D01*
X146119142Y-97668571D01*
X147262000Y-97668571D02*
X147262000Y-96668571D01*
X147262000Y-96811428D02*
X147333428Y-96740000D01*
X147476285Y-96668571D01*
X147690571Y-96668571D01*
X147833428Y-96740000D01*
X147904857Y-96882857D01*
X147904857Y-97668571D01*
X147904857Y-96882857D02*
X147976285Y-96740000D01*
X148119142Y-96668571D01*
X148333428Y-96668571D01*
X148476285Y-96740000D01*
X148547714Y-96882857D01*
X148547714Y-97668571D01*
X149262000Y-96668571D02*
X149262000Y-98168571D01*
X149262000Y-96740000D02*
X149404857Y-96668571D01*
X149690571Y-96668571D01*
X149833428Y-96740000D01*
X149904857Y-96811428D01*
X149976285Y-96954285D01*
X149976285Y-97382857D01*
X149904857Y-97525714D01*
X149833428Y-97597142D01*
X149690571Y-97668571D01*
X149404857Y-97668571D01*
X149262000Y-97597142D01*
X150833428Y-97668571D02*
X150690571Y-97597142D01*
X150619142Y-97525714D01*
X150547714Y-97382857D01*
X150547714Y-96954285D01*
X150619142Y-96811428D01*
X150690571Y-96740000D01*
X150833428Y-96668571D01*
X151047714Y-96668571D01*
X151190571Y-96740000D01*
X151262000Y-96811428D01*
X151333428Y-96954285D01*
X151333428Y-97382857D01*
X151262000Y-97525714D01*
X151190571Y-97597142D01*
X151047714Y-97668571D01*
X150833428Y-97668571D01*
X151976285Y-96668571D02*
X151976285Y-97668571D01*
X151976285Y-96811428D02*
X152047714Y-96740000D01*
X152190571Y-96668571D01*
X152404857Y-96668571D01*
X152547714Y-96740000D01*
X152619142Y-96882857D01*
X152619142Y-97668571D01*
X153904857Y-97597142D02*
X153762000Y-97668571D01*
X153476285Y-97668571D01*
X153333428Y-97597142D01*
X153262000Y-97454285D01*
X153262000Y-96882857D01*
X153333428Y-96740000D01*
X153476285Y-96668571D01*
X153762000Y-96668571D01*
X153904857Y-96740000D01*
X153976285Y-96882857D01*
X153976285Y-97025714D01*
X153262000Y-97168571D01*
X154619142Y-96668571D02*
X154619142Y-97668571D01*
X154619142Y-96811428D02*
X154690571Y-96740000D01*
X154833428Y-96668571D01*
X155047714Y-96668571D01*
X155190571Y-96740000D01*
X155262000Y-96882857D01*
X155262000Y-97668571D01*
X155762000Y-96668571D02*
X156333428Y-96668571D01*
X155976285Y-96168571D02*
X155976285Y-97454285D01*
X156047714Y-97597142D01*
X156190571Y-97668571D01*
X156333428Y-97668571D01*
X156762000Y-97597142D02*
X156904857Y-97668571D01*
X157190571Y-97668571D01*
X157333428Y-97597142D01*
X157404857Y-97454285D01*
X157404857Y-97382857D01*
X157333428Y-97240000D01*
X157190571Y-97168571D01*
X156976285Y-97168571D01*
X156833428Y-97097142D01*
X156762000Y-96954285D01*
X156762000Y-96882857D01*
X156833428Y-96740000D01*
X156976285Y-96668571D01*
X157190571Y-96668571D01*
X157333428Y-96740000D01*
X159404857Y-97668571D02*
X159262000Y-97597142D01*
X159190571Y-97525714D01*
X159119142Y-97382857D01*
X159119142Y-96954285D01*
X159190571Y-96811428D01*
X159262000Y-96740000D01*
X159404857Y-96668571D01*
X159619142Y-96668571D01*
X159762000Y-96740000D01*
X159833428Y-96811428D01*
X159904857Y-96954285D01*
X159904857Y-97382857D01*
X159833428Y-97525714D01*
X159762000Y-97597142D01*
X159619142Y-97668571D01*
X159404857Y-97668571D01*
X160547714Y-96668571D02*
X160547714Y-97668571D01*
X160547714Y-96811428D02*
X160619142Y-96740000D01*
X160762000Y-96668571D01*
X160976285Y-96668571D01*
X161119142Y-96740000D01*
X161190571Y-96882857D01*
X161190571Y-97668571D01*
X162833428Y-96668571D02*
X163404857Y-96668571D01*
X163047714Y-96168571D02*
X163047714Y-97454285D01*
X163119142Y-97597142D01*
X163262000Y-97668571D01*
X163404857Y-97668571D01*
X163904857Y-97668571D02*
X163904857Y-96168571D01*
X164547714Y-97668571D02*
X164547714Y-96882857D01*
X164476285Y-96740000D01*
X164333428Y-96668571D01*
X164119142Y-96668571D01*
X163976285Y-96740000D01*
X163904857Y-96811428D01*
X165833428Y-97597142D02*
X165690571Y-97668571D01*
X165404857Y-97668571D01*
X165262000Y-97597142D01*
X165190571Y-97454285D01*
X165190571Y-96882857D01*
X165262000Y-96740000D01*
X165404857Y-96668571D01*
X165690571Y-96668571D01*
X165833428Y-96740000D01*
X165904857Y-96882857D01*
X165904857Y-97025714D01*
X165190571Y-97168571D01*
X167904857Y-97668571D02*
X167762000Y-97597142D01*
X167690571Y-97525714D01*
X167619142Y-97382857D01*
X167619142Y-96954285D01*
X167690571Y-96811428D01*
X167762000Y-96740000D01*
X167904857Y-96668571D01*
X168119142Y-96668571D01*
X168262000Y-96740000D01*
X168333428Y-96811428D01*
X168404857Y-96954285D01*
X168404857Y-97382857D01*
X168333428Y-97525714D01*
X168262000Y-97597142D01*
X168119142Y-97668571D01*
X167904857Y-97668571D01*
X168833428Y-96668571D02*
X169404857Y-96668571D01*
X169047714Y-96168571D02*
X169047714Y-97454285D01*
X169119142Y-97597142D01*
X169262000Y-97668571D01*
X169404857Y-97668571D01*
X169904857Y-97668571D02*
X169904857Y-96168571D01*
X170547714Y-97668571D02*
X170547714Y-96882857D01*
X170476285Y-96740000D01*
X170333428Y-96668571D01*
X170119142Y-96668571D01*
X169976285Y-96740000D01*
X169904857Y-96811428D01*
X171833428Y-97597142D02*
X171690571Y-97668571D01*
X171404857Y-97668571D01*
X171262000Y-97597142D01*
X171190571Y-97454285D01*
X171190571Y-96882857D01*
X171262000Y-96740000D01*
X171404857Y-96668571D01*
X171690571Y-96668571D01*
X171833428Y-96740000D01*
X171904857Y-96882857D01*
X171904857Y-97025714D01*
X171190571Y-97168571D01*
X172547714Y-97668571D02*
X172547714Y-96668571D01*
X172547714Y-96954285D02*
X172619142Y-96811428D01*
X172690571Y-96740000D01*
X172833428Y-96668571D01*
X172976285Y-96668571D01*
X174547714Y-97597142D02*
X174690571Y-97668571D01*
X174976285Y-97668571D01*
X175119142Y-97597142D01*
X175190571Y-97454285D01*
X175190571Y-97382857D01*
X175119142Y-97240000D01*
X174976285Y-97168571D01*
X174762000Y-97168571D01*
X174619142Y-97097142D01*
X174547714Y-96954285D01*
X174547714Y-96882857D01*
X174619142Y-96740000D01*
X174762000Y-96668571D01*
X174976285Y-96668571D01*
X175119142Y-96740000D01*
X175833428Y-97668571D02*
X175833428Y-96668571D01*
X175833428Y-96168571D02*
X175762000Y-96240000D01*
X175833428Y-96311428D01*
X175904857Y-96240000D01*
X175833428Y-96168571D01*
X175833428Y-96311428D01*
X177190571Y-97668571D02*
X177190571Y-96168571D01*
X177190571Y-97597142D02*
X177047714Y-97668571D01*
X176762000Y-97668571D01*
X176619142Y-97597142D01*
X176547714Y-97525714D01*
X176476285Y-97382857D01*
X176476285Y-96954285D01*
X176547714Y-96811428D01*
X176619142Y-96740000D01*
X176762000Y-96668571D01*
X177047714Y-96668571D01*
X177190571Y-96740000D01*
X178476285Y-97597142D02*
X178333428Y-97668571D01*
X178047714Y-97668571D01*
X177904857Y-97597142D01*
X177833428Y-97454285D01*
X177833428Y-96882857D01*
X177904857Y-96740000D01*
X178047714Y-96668571D01*
X178333428Y-96668571D01*
X178476285Y-96740000D01*
X178547714Y-96882857D01*
X178547714Y-97025714D01*
X177833428Y-97168571D01*
X144833428Y-98598571D02*
X144833428Y-98955714D01*
X144476285Y-98812857D02*
X144833428Y-98955714D01*
X145190571Y-98812857D01*
X144619142Y-99241428D02*
X144833428Y-98955714D01*
X145047714Y-99241428D01*
X145762000Y-100098571D02*
X145762000Y-98598571D01*
X145762000Y-99170000D02*
X145904857Y-99098571D01*
X146190571Y-99098571D01*
X146333428Y-99170000D01*
X146404857Y-99241428D01*
X146476285Y-99384285D01*
X146476285Y-99812857D01*
X146404857Y-99955714D01*
X146333428Y-100027142D01*
X146190571Y-100098571D01*
X145904857Y-100098571D01*
X145762000Y-100027142D01*
X147690571Y-100027142D02*
X147547714Y-100098571D01*
X147262000Y-100098571D01*
X147119142Y-100027142D01*
X147047714Y-99884285D01*
X147047714Y-99312857D01*
X147119142Y-99170000D01*
X147262000Y-99098571D01*
X147547714Y-99098571D01*
X147690571Y-99170000D01*
X147762000Y-99312857D01*
X147762000Y-99455714D01*
X147047714Y-99598571D01*
X148190571Y-99098571D02*
X148762000Y-99098571D01*
X148404857Y-100098571D02*
X148404857Y-98812857D01*
X148476285Y-98670000D01*
X148619142Y-98598571D01*
X148762000Y-98598571D01*
X149476285Y-100098571D02*
X149333428Y-100027142D01*
X149262000Y-99955714D01*
X149190571Y-99812857D01*
X149190571Y-99384285D01*
X149262000Y-99241428D01*
X149333428Y-99170000D01*
X149476285Y-99098571D01*
X149690571Y-99098571D01*
X149833428Y-99170000D01*
X149904857Y-99241428D01*
X149976285Y-99384285D01*
X149976285Y-99812857D01*
X149904857Y-99955714D01*
X149833428Y-100027142D01*
X149690571Y-100098571D01*
X149476285Y-100098571D01*
X150619142Y-100098571D02*
X150619142Y-99098571D01*
X150619142Y-99384285D02*
X150690571Y-99241428D01*
X150762000Y-99170000D01*
X150904857Y-99098571D01*
X151047714Y-99098571D01*
X152119142Y-100027142D02*
X151976285Y-100098571D01*
X151690571Y-100098571D01*
X151547714Y-100027142D01*
X151476285Y-99884285D01*
X151476285Y-99312857D01*
X151547714Y-99170000D01*
X151690571Y-99098571D01*
X151976285Y-99098571D01*
X152119142Y-99170000D01*
X152190571Y-99312857D01*
X152190571Y-99455714D01*
X151476285Y-99598571D01*
X153047714Y-98598571D02*
X153047714Y-98955714D01*
X152690571Y-98812857D02*
X153047714Y-98955714D01*
X153404857Y-98812857D01*
X152833428Y-99241428D02*
X153047714Y-98955714D01*
X153262000Y-99241428D01*
X155047714Y-100027142D02*
X155190571Y-100098571D01*
X155476285Y-100098571D01*
X155619142Y-100027142D01*
X155690571Y-99884285D01*
X155690571Y-99812857D01*
X155619142Y-99670000D01*
X155476285Y-99598571D01*
X155262000Y-99598571D01*
X155119142Y-99527142D01*
X155047714Y-99384285D01*
X155047714Y-99312857D01*
X155119142Y-99170000D01*
X155262000Y-99098571D01*
X155476285Y-99098571D01*
X155619142Y-99170000D01*
X156547714Y-100098571D02*
X156404857Y-100027142D01*
X156333428Y-99955714D01*
X156262000Y-99812857D01*
X156262000Y-99384285D01*
X156333428Y-99241428D01*
X156404857Y-99170000D01*
X156547714Y-99098571D01*
X156762000Y-99098571D01*
X156904857Y-99170000D01*
X156976285Y-99241428D01*
X157047714Y-99384285D01*
X157047714Y-99812857D01*
X156976285Y-99955714D01*
X156904857Y-100027142D01*
X156762000Y-100098571D01*
X156547714Y-100098571D01*
X157904857Y-100098571D02*
X157762000Y-100027142D01*
X157690571Y-99884285D01*
X157690571Y-98598571D01*
X159119142Y-100098571D02*
X159119142Y-98598571D01*
X159119142Y-100027142D02*
X158976285Y-100098571D01*
X158690571Y-100098571D01*
X158547714Y-100027142D01*
X158476285Y-99955714D01*
X158404857Y-99812857D01*
X158404857Y-99384285D01*
X158476285Y-99241428D01*
X158547714Y-99170000D01*
X158690571Y-99098571D01*
X158976285Y-99098571D01*
X159119142Y-99170000D01*
X160404857Y-100027142D02*
X160262000Y-100098571D01*
X159976285Y-100098571D01*
X159833428Y-100027142D01*
X159762000Y-99884285D01*
X159762000Y-99312857D01*
X159833428Y-99170000D01*
X159976285Y-99098571D01*
X160262000Y-99098571D01*
X160404857Y-99170000D01*
X160476285Y-99312857D01*
X160476285Y-99455714D01*
X159762000Y-99598571D01*
X161119142Y-100098571D02*
X161119142Y-99098571D01*
X161119142Y-99384285D02*
X161190571Y-99241428D01*
X161262000Y-99170000D01*
X161404857Y-99098571D01*
X161547714Y-99098571D01*
X162047714Y-100098571D02*
X162047714Y-99098571D01*
X162047714Y-98598571D02*
X161976285Y-98670000D01*
X162047714Y-98741428D01*
X162119142Y-98670000D01*
X162047714Y-98598571D01*
X162047714Y-98741428D01*
X162762000Y-99098571D02*
X162762000Y-100098571D01*
X162762000Y-99241428D02*
X162833428Y-99170000D01*
X162976285Y-99098571D01*
X163190571Y-99098571D01*
X163333428Y-99170000D01*
X163404857Y-99312857D01*
X163404857Y-100098571D01*
X164762000Y-99098571D02*
X164762000Y-100312857D01*
X164690571Y-100455714D01*
X164619142Y-100527142D01*
X164476285Y-100598571D01*
X164262000Y-100598571D01*
X164119142Y-100527142D01*
X164762000Y-100027142D02*
X164619142Y-100098571D01*
X164333428Y-100098571D01*
X164190571Y-100027142D01*
X164119142Y-99955714D01*
X164047714Y-99812857D01*
X164047714Y-99384285D01*
X164119142Y-99241428D01*
X164190571Y-99170000D01*
X164333428Y-99098571D01*
X164619142Y-99098571D01*
X164762000Y-99170000D01*
X166404857Y-99098571D02*
X166976285Y-99098571D01*
X166619142Y-98598571D02*
X166619142Y-99884285D01*
X166690571Y-100027142D01*
X166833428Y-100098571D01*
X166976285Y-100098571D01*
X167476285Y-100098571D02*
X167476285Y-98598571D01*
X168119142Y-100098571D02*
X168119142Y-99312857D01*
X168047714Y-99170000D01*
X167904857Y-99098571D01*
X167690571Y-99098571D01*
X167547714Y-99170000D01*
X167476285Y-99241428D01*
X169404857Y-100027142D02*
X169262000Y-100098571D01*
X168976285Y-100098571D01*
X168833428Y-100027142D01*
X168762000Y-99884285D01*
X168762000Y-99312857D01*
X168833428Y-99170000D01*
X168976285Y-99098571D01*
X169262000Y-99098571D01*
X169404857Y-99170000D01*
X169476285Y-99312857D01*
X169476285Y-99455714D01*
X168762000Y-99598571D01*
X171904857Y-100098571D02*
X171904857Y-98598571D01*
X171904857Y-100027142D02*
X171762000Y-100098571D01*
X171476285Y-100098571D01*
X171333428Y-100027142D01*
X171262000Y-99955714D01*
X171190571Y-99812857D01*
X171190571Y-99384285D01*
X171262000Y-99241428D01*
X171333428Y-99170000D01*
X171476285Y-99098571D01*
X171762000Y-99098571D01*
X171904857Y-99170000D01*
X172619142Y-100098571D02*
X172619142Y-99098571D01*
X172619142Y-98598571D02*
X172547714Y-98670000D01*
X172619142Y-98741428D01*
X172690571Y-98670000D01*
X172619142Y-98598571D01*
X172619142Y-98741428D01*
X173262000Y-100027142D02*
X173404857Y-100098571D01*
X173690571Y-100098571D01*
X173833428Y-100027142D01*
X173904857Y-99884285D01*
X173904857Y-99812857D01*
X173833428Y-99670000D01*
X173690571Y-99598571D01*
X173476285Y-99598571D01*
X173333428Y-99527142D01*
X173262000Y-99384285D01*
X173262000Y-99312857D01*
X173333428Y-99170000D01*
X173476285Y-99098571D01*
X173690571Y-99098571D01*
X173833428Y-99170000D01*
X174547714Y-99098571D02*
X174547714Y-100598571D01*
X174547714Y-99170000D02*
X174690571Y-99098571D01*
X174976285Y-99098571D01*
X175119142Y-99170000D01*
X175190571Y-99241428D01*
X175262000Y-99384285D01*
X175262000Y-99812857D01*
X175190571Y-99955714D01*
X175119142Y-100027142D01*
X174976285Y-100098571D01*
X174690571Y-100098571D01*
X174547714Y-100027142D01*
X176119142Y-100098571D02*
X175976285Y-100027142D01*
X175904857Y-99884285D01*
X175904857Y-98598571D01*
X177333428Y-100098571D02*
X177333428Y-99312857D01*
X177262000Y-99170000D01*
X177119142Y-99098571D01*
X176833428Y-99098571D01*
X176690571Y-99170000D01*
X177333428Y-100027142D02*
X177190571Y-100098571D01*
X176833428Y-100098571D01*
X176690571Y-100027142D01*
X176619142Y-99884285D01*
X176619142Y-99741428D01*
X176690571Y-99598571D01*
X176833428Y-99527142D01*
X177190571Y-99527142D01*
X177333428Y-99455714D01*
X177904857Y-99098571D02*
X178262000Y-100098571D01*
X178619142Y-99098571D02*
X178262000Y-100098571D01*
X178119142Y-100455714D01*
X178047714Y-100527142D01*
X177904857Y-100598571D01*
X179190571Y-99955714D02*
X179262000Y-100027142D01*
X179190571Y-100098571D01*
X179119142Y-100027142D01*
X179190571Y-99955714D01*
X179190571Y-100098571D01*
D12*
%TO.C,U3*%
X194130000Y-128505000D02*
X194130000Y-110763000D01*
X108130000Y-128505000D02*
X108130000Y-78505000D01*
X108130000Y-128505000D02*
X194130000Y-128505000D01*
X189230000Y-78505000D02*
X108130000Y-78505000D01*
%TO.C,LS1*%
X208200000Y-112385000D02*
G75*
G03*
X208200000Y-112385000I-5000000J0D01*
G01*
D13*
%TO.C,G\u002A\u002A\u002A*%
G36*
X188933666Y-130843866D02*
G01*
X188459533Y-130843866D01*
X188459533Y-130268133D01*
X188933666Y-130268133D01*
X188933666Y-130843866D01*
G37*
X188933666Y-130843866D02*
X188459533Y-130843866D01*
X188459533Y-130268133D01*
X188933666Y-130268133D01*
X188933666Y-130843866D01*
G36*
X197385404Y-131135125D02*
G01*
X197530662Y-131165818D01*
X197607766Y-131194296D01*
X197671266Y-131221543D01*
X197671266Y-131670490D01*
X197550531Y-131608545D01*
X197493412Y-131580189D01*
X197448424Y-131562166D01*
X197404617Y-131552173D01*
X197351040Y-131547908D01*
X197276743Y-131547066D01*
X197258431Y-131547105D01*
X197128941Y-131554312D01*
X197024604Y-131576448D01*
X196939252Y-131615563D01*
X196866717Y-131673705D01*
X196861555Y-131678958D01*
X196832963Y-131709420D01*
X196809634Y-131738365D01*
X196790974Y-131769535D01*
X196776389Y-131806670D01*
X196765283Y-131853512D01*
X196757061Y-131913801D01*
X196751130Y-131991279D01*
X196746894Y-132089686D01*
X196743759Y-132212765D01*
X196741130Y-132364255D01*
X196739933Y-132444066D01*
X196731466Y-133019799D01*
X196490166Y-133024498D01*
X196248866Y-133029196D01*
X196248866Y-131164670D01*
X196731466Y-131174066D01*
X196739933Y-131309533D01*
X196745375Y-131376422D01*
X196751490Y-131411004D01*
X196758625Y-131414836D01*
X196761947Y-131407824D01*
X196780816Y-131378358D01*
X196817737Y-131335759D01*
X196864996Y-131288869D01*
X196868717Y-131285448D01*
X196977541Y-131208222D01*
X197103496Y-131156987D01*
X197241233Y-131132401D01*
X197385404Y-131135125D01*
G37*
X197385404Y-131135125D02*
X197530662Y-131165818D01*
X197607766Y-131194296D01*
X197671266Y-131221543D01*
X197671266Y-131670490D01*
X197550531Y-131608545D01*
X197493412Y-131580189D01*
X197448424Y-131562166D01*
X197404617Y-131552173D01*
X197351040Y-131547908D01*
X197276743Y-131547066D01*
X197258431Y-131547105D01*
X197128941Y-131554312D01*
X197024604Y-131576448D01*
X196939252Y-131615563D01*
X196866717Y-131673705D01*
X196861555Y-131678958D01*
X196832963Y-131709420D01*
X196809634Y-131738365D01*
X196790974Y-131769535D01*
X196776389Y-131806670D01*
X196765283Y-131853512D01*
X196757061Y-131913801D01*
X196751130Y-131991279D01*
X196746894Y-132089686D01*
X196743759Y-132212765D01*
X196741130Y-132364255D01*
X196739933Y-132444066D01*
X196731466Y-133019799D01*
X196490166Y-133024498D01*
X196248866Y-133029196D01*
X196248866Y-131164670D01*
X196731466Y-131174066D01*
X196739933Y-131309533D01*
X196745375Y-131376422D01*
X196751490Y-131411004D01*
X196758625Y-131414836D01*
X196761947Y-131407824D01*
X196780816Y-131378358D01*
X196817737Y-131335759D01*
X196864996Y-131288869D01*
X196868717Y-131285448D01*
X196977541Y-131208222D01*
X197103496Y-131156987D01*
X197241233Y-131132401D01*
X197385404Y-131135125D01*
G36*
X191069152Y-131156135D02*
G01*
X191175377Y-131201100D01*
X191260837Y-131271712D01*
X191327652Y-131369376D01*
X191343712Y-131402666D01*
X191362295Y-131446792D01*
X191377699Y-131490770D01*
X191390221Y-131538205D01*
X191400158Y-131592701D01*
X191407808Y-131657860D01*
X191413468Y-131737288D01*
X191417436Y-131834589D01*
X191420007Y-131953366D01*
X191421481Y-132097223D01*
X191422153Y-132269764D01*
X191422271Y-132355166D01*
X191422866Y-133028266D01*
X190952069Y-133028266D01*
X190945731Y-132380566D01*
X190944040Y-132214889D01*
X190942389Y-132079502D01*
X190940564Y-131970829D01*
X190938354Y-131885294D01*
X190935545Y-131819323D01*
X190931926Y-131769338D01*
X190927283Y-131731765D01*
X190921405Y-131703028D01*
X190914079Y-131679550D01*
X190905093Y-131657757D01*
X190902428Y-131651861D01*
X190868692Y-131592935D01*
X190828735Y-131557302D01*
X190806043Y-131546028D01*
X190714611Y-131523105D01*
X190630812Y-131532700D01*
X190556877Y-131573896D01*
X190495037Y-131645778D01*
X190474600Y-131682091D01*
X190432266Y-131766733D01*
X190423800Y-132393266D01*
X190415333Y-133019799D01*
X190173888Y-133024499D01*
X189932443Y-133029198D01*
X189936821Y-132101632D01*
X189941200Y-131174066D01*
X190415333Y-131174066D01*
X190424982Y-131301066D01*
X190429841Y-131356855D01*
X190434165Y-131392091D01*
X190437190Y-131400937D01*
X190437682Y-131398073D01*
X190450455Y-131371894D01*
X190481320Y-131330637D01*
X190523932Y-131282675D01*
X190529633Y-131276764D01*
X190615482Y-131204206D01*
X190709011Y-131158081D01*
X190816975Y-131136061D01*
X190940042Y-131135415D01*
X191069152Y-131156135D01*
G37*
X191069152Y-131156135D02*
X191175377Y-131201100D01*
X191260837Y-131271712D01*
X191327652Y-131369376D01*
X191343712Y-131402666D01*
X191362295Y-131446792D01*
X191377699Y-131490770D01*
X191390221Y-131538205D01*
X191400158Y-131592701D01*
X191407808Y-131657860D01*
X191413468Y-131737288D01*
X191417436Y-131834589D01*
X191420007Y-131953366D01*
X191421481Y-132097223D01*
X191422153Y-132269764D01*
X191422271Y-132355166D01*
X191422866Y-133028266D01*
X190952069Y-133028266D01*
X190945731Y-132380566D01*
X190944040Y-132214889D01*
X190942389Y-132079502D01*
X190940564Y-131970829D01*
X190938354Y-131885294D01*
X190935545Y-131819323D01*
X190931926Y-131769338D01*
X190927283Y-131731765D01*
X190921405Y-131703028D01*
X190914079Y-131679550D01*
X190905093Y-131657757D01*
X190902428Y-131651861D01*
X190868692Y-131592935D01*
X190828735Y-131557302D01*
X190806043Y-131546028D01*
X190714611Y-131523105D01*
X190630812Y-131532700D01*
X190556877Y-131573896D01*
X190495037Y-131645778D01*
X190474600Y-131682091D01*
X190432266Y-131766733D01*
X190423800Y-132393266D01*
X190415333Y-133019799D01*
X190173888Y-133024499D01*
X189932443Y-133029198D01*
X189936821Y-132101632D01*
X189941200Y-131174066D01*
X190415333Y-131174066D01*
X190424982Y-131301066D01*
X190429841Y-131356855D01*
X190434165Y-131392091D01*
X190437190Y-131400937D01*
X190437682Y-131398073D01*
X190450455Y-131371894D01*
X190481320Y-131330637D01*
X190523932Y-131282675D01*
X190529633Y-131276764D01*
X190615482Y-131204206D01*
X190709011Y-131158081D01*
X190816975Y-131136061D01*
X190940042Y-131135415D01*
X191069152Y-131156135D01*
G36*
X188933666Y-132655733D02*
G01*
X189543266Y-132655733D01*
X189543266Y-133028266D01*
X187849933Y-133028266D01*
X187849933Y-132655733D01*
X188459996Y-132655733D01*
X188455531Y-132101166D01*
X188451066Y-131546600D01*
X188218233Y-131541888D01*
X187985399Y-131537177D01*
X187985399Y-131165599D01*
X188933666Y-131165599D01*
X188933666Y-132655733D01*
G37*
X188933666Y-132655733D02*
X189543266Y-132655733D01*
X189543266Y-133028266D01*
X187849933Y-133028266D01*
X187849933Y-132655733D01*
X188459996Y-132655733D01*
X188455531Y-132101166D01*
X188451066Y-131546600D01*
X188218233Y-131541888D01*
X187985399Y-131537177D01*
X187985399Y-131165599D01*
X188933666Y-131165599D01*
X188933666Y-132655733D01*
G36*
X184870920Y-131138701D02*
G01*
X184978058Y-131164313D01*
X185070052Y-131214682D01*
X185147156Y-131285585D01*
X185182590Y-131327956D01*
X185212512Y-131371885D01*
X185237382Y-131420534D01*
X185257656Y-131477066D01*
X185273793Y-131544641D01*
X185286249Y-131626421D01*
X185295483Y-131725569D01*
X185301952Y-131845245D01*
X185306115Y-131988611D01*
X185308428Y-132158830D01*
X185309349Y-132359062D01*
X185309410Y-132406431D01*
X185309933Y-133029196D01*
X185068633Y-133024498D01*
X184827333Y-133019799D01*
X184818866Y-132350933D01*
X184816695Y-132182827D01*
X184814705Y-132045180D01*
X184812678Y-131934587D01*
X184810394Y-131847644D01*
X184807634Y-131780945D01*
X184804179Y-131731086D01*
X184799811Y-131694660D01*
X184794309Y-131668265D01*
X184787456Y-131648493D01*
X184779031Y-131631941D01*
X184771844Y-131620064D01*
X184717502Y-131562166D01*
X184646768Y-131528993D01*
X184568037Y-131522188D01*
X184489700Y-131543394D01*
X184461537Y-131559300D01*
X184413705Y-131604597D01*
X184366932Y-131673238D01*
X184353199Y-131699000D01*
X184302399Y-131800600D01*
X184290741Y-133028266D01*
X183819800Y-133028266D01*
X183819800Y-131165599D01*
X184293933Y-131165599D01*
X184294681Y-131305299D01*
X184295430Y-131445000D01*
X184328006Y-131383344D01*
X184398525Y-131281633D01*
X184488750Y-131206910D01*
X184599582Y-131158637D01*
X184731921Y-131136278D01*
X184742666Y-131135634D01*
X184870920Y-131138701D01*
G37*
X184870920Y-131138701D02*
X184978058Y-131164313D01*
X185070052Y-131214682D01*
X185147156Y-131285585D01*
X185182590Y-131327956D01*
X185212512Y-131371885D01*
X185237382Y-131420534D01*
X185257656Y-131477066D01*
X185273793Y-131544641D01*
X185286249Y-131626421D01*
X185295483Y-131725569D01*
X185301952Y-131845245D01*
X185306115Y-131988611D01*
X185308428Y-132158830D01*
X185309349Y-132359062D01*
X185309410Y-132406431D01*
X185309933Y-133029196D01*
X185068633Y-133024498D01*
X184827333Y-133019799D01*
X184818866Y-132350933D01*
X184816695Y-132182827D01*
X184814705Y-132045180D01*
X184812678Y-131934587D01*
X184810394Y-131847644D01*
X184807634Y-131780945D01*
X184804179Y-131731086D01*
X184799811Y-131694660D01*
X184794309Y-131668265D01*
X184787456Y-131648493D01*
X184779031Y-131631941D01*
X184771844Y-131620064D01*
X184717502Y-131562166D01*
X184646768Y-131528993D01*
X184568037Y-131522188D01*
X184489700Y-131543394D01*
X184461537Y-131559300D01*
X184413705Y-131604597D01*
X184366932Y-131673238D01*
X184353199Y-131699000D01*
X184302399Y-131800600D01*
X184290741Y-133028266D01*
X183819800Y-133028266D01*
X183819800Y-131165599D01*
X184293933Y-131165599D01*
X184294681Y-131305299D01*
X184295430Y-131445000D01*
X184328006Y-131383344D01*
X184398525Y-131281633D01*
X184488750Y-131206910D01*
X184599582Y-131158637D01*
X184731921Y-131136278D01*
X184742666Y-131135634D01*
X184870920Y-131138701D01*
G36*
X198968017Y-131143330D02*
G01*
X199053885Y-131145921D01*
X199122510Y-131151055D01*
X199182195Y-131159538D01*
X199241247Y-131172177D01*
X199288400Y-131184403D01*
X199440800Y-131225770D01*
X199445554Y-131432751D01*
X199446831Y-131511963D01*
X199446849Y-131577173D01*
X199445682Y-131621900D01*
X199443402Y-131639666D01*
X199443222Y-131639733D01*
X199425492Y-131633113D01*
X199385560Y-131615706D01*
X199331846Y-131591188D01*
X199328401Y-131589586D01*
X199172661Y-131529244D01*
X199019143Y-131496310D01*
X198874208Y-131487705D01*
X198750825Y-131495903D01*
X198657256Y-131519868D01*
X198593279Y-131559719D01*
X198558671Y-131615579D01*
X198551800Y-131663360D01*
X198562071Y-131708059D01*
X198594506Y-131748999D01*
X198651532Y-131787556D01*
X198735578Y-131825104D01*
X198849074Y-131863018D01*
X198958200Y-131893362D01*
X199122936Y-131941621D01*
X199256648Y-131993550D01*
X199362161Y-132051837D01*
X199442303Y-132119169D01*
X199499901Y-132198236D01*
X199537783Y-132291725D01*
X199558774Y-132402326D01*
X199564051Y-132469466D01*
X199557961Y-132614330D01*
X199524799Y-132739313D01*
X199464789Y-132844011D01*
X199378152Y-132928018D01*
X199281552Y-132983843D01*
X199131860Y-133034111D01*
X198957688Y-133061713D01*
X198759802Y-133066556D01*
X198650718Y-133060291D01*
X198442167Y-133034452D01*
X198244717Y-132990868D01*
X198217366Y-132983300D01*
X198128466Y-132958130D01*
X198128466Y-132536511D01*
X198200108Y-132573060D01*
X198323903Y-132627569D01*
X198453564Y-132669295D01*
X198584018Y-132697928D01*
X198710190Y-132713156D01*
X198827007Y-132714669D01*
X198929392Y-132702153D01*
X199012273Y-132675300D01*
X199070575Y-132633796D01*
X199076468Y-132626823D01*
X199103394Y-132569123D01*
X199109252Y-132501096D01*
X199093457Y-132438221D01*
X199084172Y-132422337D01*
X199062176Y-132396762D01*
X199031802Y-132374084D01*
X198988326Y-132352366D01*
X198927025Y-132329673D01*
X198843176Y-132304070D01*
X198732057Y-132273620D01*
X198701957Y-132265677D01*
X198566666Y-132227927D01*
X198459313Y-132192268D01*
X198374299Y-132156070D01*
X198306027Y-132116703D01*
X198248898Y-132071536D01*
X198213616Y-132036229D01*
X198148688Y-131942096D01*
X198109414Y-131833294D01*
X198094943Y-131716238D01*
X198104422Y-131597339D01*
X198136999Y-131483011D01*
X198191824Y-131379667D01*
X198268044Y-131293719D01*
X198317081Y-131257251D01*
X198386673Y-131216340D01*
X198451976Y-131186178D01*
X198520160Y-131165241D01*
X198598392Y-131152002D01*
X198693842Y-131144937D01*
X198813679Y-131142520D01*
X198856600Y-131142476D01*
X198968017Y-131143330D01*
G37*
X198968017Y-131143330D02*
X199053885Y-131145921D01*
X199122510Y-131151055D01*
X199182195Y-131159538D01*
X199241247Y-131172177D01*
X199288400Y-131184403D01*
X199440800Y-131225770D01*
X199445554Y-131432751D01*
X199446831Y-131511963D01*
X199446849Y-131577173D01*
X199445682Y-131621900D01*
X199443402Y-131639666D01*
X199443222Y-131639733D01*
X199425492Y-131633113D01*
X199385560Y-131615706D01*
X199331846Y-131591188D01*
X199328401Y-131589586D01*
X199172661Y-131529244D01*
X199019143Y-131496310D01*
X198874208Y-131487705D01*
X198750825Y-131495903D01*
X198657256Y-131519868D01*
X198593279Y-131559719D01*
X198558671Y-131615579D01*
X198551800Y-131663360D01*
X198562071Y-131708059D01*
X198594506Y-131748999D01*
X198651532Y-131787556D01*
X198735578Y-131825104D01*
X198849074Y-131863018D01*
X198958200Y-131893362D01*
X199122936Y-131941621D01*
X199256648Y-131993550D01*
X199362161Y-132051837D01*
X199442303Y-132119169D01*
X199499901Y-132198236D01*
X199537783Y-132291725D01*
X199558774Y-132402326D01*
X199564051Y-132469466D01*
X199557961Y-132614330D01*
X199524799Y-132739313D01*
X199464789Y-132844011D01*
X199378152Y-132928018D01*
X199281552Y-132983843D01*
X199131860Y-133034111D01*
X198957688Y-133061713D01*
X198759802Y-133066556D01*
X198650718Y-133060291D01*
X198442167Y-133034452D01*
X198244717Y-132990868D01*
X198217366Y-132983300D01*
X198128466Y-132958130D01*
X198128466Y-132536511D01*
X198200108Y-132573060D01*
X198323903Y-132627569D01*
X198453564Y-132669295D01*
X198584018Y-132697928D01*
X198710190Y-132713156D01*
X198827007Y-132714669D01*
X198929392Y-132702153D01*
X199012273Y-132675300D01*
X199070575Y-132633796D01*
X199076468Y-132626823D01*
X199103394Y-132569123D01*
X199109252Y-132501096D01*
X199093457Y-132438221D01*
X199084172Y-132422337D01*
X199062176Y-132396762D01*
X199031802Y-132374084D01*
X198988326Y-132352366D01*
X198927025Y-132329673D01*
X198843176Y-132304070D01*
X198732057Y-132273620D01*
X198701957Y-132265677D01*
X198566666Y-132227927D01*
X198459313Y-132192268D01*
X198374299Y-132156070D01*
X198306027Y-132116703D01*
X198248898Y-132071536D01*
X198213616Y-132036229D01*
X198148688Y-131942096D01*
X198109414Y-131833294D01*
X198094943Y-131716238D01*
X198104422Y-131597339D01*
X198136999Y-131483011D01*
X198191824Y-131379667D01*
X198268044Y-131293719D01*
X198317081Y-131257251D01*
X198386673Y-131216340D01*
X198451976Y-131186178D01*
X198520160Y-131165241D01*
X198598392Y-131152002D01*
X198693842Y-131144937D01*
X198813679Y-131142520D01*
X198856600Y-131142476D01*
X198968017Y-131143330D01*
G36*
X194933680Y-131144260D02*
G01*
X195081802Y-131177383D01*
X195214170Y-131231340D01*
X195275199Y-131268132D01*
X195392314Y-131366259D01*
X195484498Y-131482619D01*
X195552531Y-131618990D01*
X195597193Y-131777151D01*
X195619265Y-131958879D01*
X195622073Y-132058624D01*
X195622333Y-132248916D01*
X194377733Y-132257800D01*
X194383068Y-132325533D01*
X194403389Y-132414924D01*
X194446021Y-132502746D01*
X194503679Y-132575057D01*
X194521666Y-132590739D01*
X194613252Y-132642846D01*
X194726810Y-132674632D01*
X194857415Y-132686352D01*
X195000140Y-132678261D01*
X195150057Y-132650614D01*
X195302240Y-132603664D01*
X195440794Y-132543248D01*
X195555589Y-132485475D01*
X195546133Y-132935133D01*
X195408934Y-132981158D01*
X195187497Y-133037818D01*
X194951802Y-133064186D01*
X194702975Y-133060137D01*
X194690999Y-133059198D01*
X194513158Y-133030321D01*
X194354713Y-132974799D01*
X194217063Y-132893780D01*
X194101603Y-132788409D01*
X194009729Y-132659834D01*
X193942839Y-132509201D01*
X193919062Y-132425388D01*
X193904220Y-132336134D01*
X193894920Y-132225096D01*
X193891312Y-132103923D01*
X193893548Y-131984267D01*
X193900547Y-131893733D01*
X194381871Y-131893733D01*
X195148845Y-131893733D01*
X195139100Y-131847166D01*
X195114362Y-131745095D01*
X195086751Y-131670029D01*
X195052183Y-131615128D01*
X195006576Y-131573552D01*
X194958645Y-131544899D01*
X194890970Y-131521914D01*
X194805575Y-131509469D01*
X194717292Y-131508753D01*
X194645203Y-131519762D01*
X194553033Y-131561506D01*
X194477670Y-131630001D01*
X194422821Y-131720769D01*
X194392951Y-131824446D01*
X194381871Y-131893733D01*
X193900547Y-131893733D01*
X193901781Y-131877778D01*
X193911146Y-131817533D01*
X193954288Y-131674260D01*
X194021216Y-131537739D01*
X194107299Y-131414474D01*
X194207906Y-131310969D01*
X194318406Y-131233728D01*
X194331924Y-131226628D01*
X194468927Y-131173154D01*
X194619830Y-131141820D01*
X194777219Y-131132297D01*
X194933680Y-131144260D01*
G37*
X194933680Y-131144260D02*
X195081802Y-131177383D01*
X195214170Y-131231340D01*
X195275199Y-131268132D01*
X195392314Y-131366259D01*
X195484498Y-131482619D01*
X195552531Y-131618990D01*
X195597193Y-131777151D01*
X195619265Y-131958879D01*
X195622073Y-132058624D01*
X195622333Y-132248916D01*
X194377733Y-132257800D01*
X194383068Y-132325533D01*
X194403389Y-132414924D01*
X194446021Y-132502746D01*
X194503679Y-132575057D01*
X194521666Y-132590739D01*
X194613252Y-132642846D01*
X194726810Y-132674632D01*
X194857415Y-132686352D01*
X195000140Y-132678261D01*
X195150057Y-132650614D01*
X195302240Y-132603664D01*
X195440794Y-132543248D01*
X195555589Y-132485475D01*
X195546133Y-132935133D01*
X195408934Y-132981158D01*
X195187497Y-133037818D01*
X194951802Y-133064186D01*
X194702975Y-133060137D01*
X194690999Y-133059198D01*
X194513158Y-133030321D01*
X194354713Y-132974799D01*
X194217063Y-132893780D01*
X194101603Y-132788409D01*
X194009729Y-132659834D01*
X193942839Y-132509201D01*
X193919062Y-132425388D01*
X193904220Y-132336134D01*
X193894920Y-132225096D01*
X193891312Y-132103923D01*
X193893548Y-131984267D01*
X193900547Y-131893733D01*
X194381871Y-131893733D01*
X195148845Y-131893733D01*
X195139100Y-131847166D01*
X195114362Y-131745095D01*
X195086751Y-131670029D01*
X195052183Y-131615128D01*
X195006576Y-131573552D01*
X194958645Y-131544899D01*
X194890970Y-131521914D01*
X194805575Y-131509469D01*
X194717292Y-131508753D01*
X194645203Y-131519762D01*
X194553033Y-131561506D01*
X194477670Y-131630001D01*
X194422821Y-131720769D01*
X194392951Y-131824446D01*
X194381871Y-131893733D01*
X193900547Y-131893733D01*
X193901781Y-131877778D01*
X193911146Y-131817533D01*
X193954288Y-131674260D01*
X194021216Y-131537739D01*
X194107299Y-131414474D01*
X194207906Y-131310969D01*
X194318406Y-131233728D01*
X194331924Y-131226628D01*
X194468927Y-131173154D01*
X194619830Y-131141820D01*
X194777219Y-131132297D01*
X194933680Y-131144260D01*
G36*
X192902838Y-131145532D02*
G01*
X193067030Y-131185097D01*
X193209852Y-131250566D01*
X193330984Y-131341783D01*
X193430111Y-131458592D01*
X193453081Y-131494531D01*
X193504215Y-131594769D01*
X193541705Y-131705302D01*
X193567239Y-131833003D01*
X193582501Y-131984750D01*
X193585208Y-132033433D01*
X193595446Y-132249333D01*
X192337266Y-132249333D01*
X192337266Y-132297116D01*
X192350170Y-132379588D01*
X192384645Y-132466308D01*
X192434339Y-132542365D01*
X192448398Y-132557968D01*
X192529241Y-132618100D01*
X192633344Y-132659232D01*
X192755847Y-132681239D01*
X192891894Y-132683998D01*
X193036625Y-132667387D01*
X193185184Y-132631282D01*
X193322493Y-132580113D01*
X193387431Y-132551536D01*
X193441733Y-132527663D01*
X193477069Y-132512155D01*
X193484500Y-132508909D01*
X193493541Y-132512703D01*
X193499768Y-132535935D01*
X193503582Y-132582575D01*
X193505384Y-132656598D01*
X193505666Y-132718566D01*
X193505666Y-132937423D01*
X193391366Y-132973722D01*
X193290162Y-133004690D01*
X193209382Y-133026078D01*
X193137788Y-133040321D01*
X193064143Y-133049858D01*
X193023066Y-133053622D01*
X192952968Y-133059481D01*
X192887581Y-133065024D01*
X192845266Y-133068685D01*
X192799509Y-133069591D01*
X192733354Y-133067156D01*
X192660045Y-133061902D01*
X192649953Y-133060971D01*
X192476592Y-133031242D01*
X192319411Y-132977509D01*
X192182850Y-132901554D01*
X192110600Y-132844190D01*
X192049876Y-132776196D01*
X191989243Y-132686433D01*
X191935511Y-132586326D01*
X191895488Y-132487299D01*
X191892730Y-132478636D01*
X191876750Y-132420737D01*
X191865937Y-132362907D01*
X191859360Y-132296298D01*
X191856089Y-132212060D01*
X191855215Y-132122333D01*
X191861127Y-131945404D01*
X191867920Y-131893733D01*
X192336621Y-131893733D01*
X193099266Y-131893733D01*
X193099172Y-131847166D01*
X193084459Y-131750897D01*
X193044190Y-131662200D01*
X192983573Y-131588450D01*
X192907819Y-131537020D01*
X192870284Y-131523153D01*
X192772200Y-131506893D01*
X192671836Y-131508931D01*
X192583317Y-131528681D01*
X192565721Y-131535847D01*
X192481339Y-131589005D01*
X192416745Y-131664336D01*
X192369597Y-131765171D01*
X192346931Y-131847166D01*
X192336621Y-131893733D01*
X191867920Y-131893733D01*
X191880952Y-131794623D01*
X191916491Y-131664514D01*
X191969546Y-131549597D01*
X192041916Y-131444395D01*
X192099496Y-131379329D01*
X192221044Y-131274244D01*
X192356425Y-131198671D01*
X192507803Y-131151744D01*
X192677342Y-131132597D01*
X192717591Y-131132027D01*
X192902838Y-131145532D01*
G37*
X192902838Y-131145532D02*
X193067030Y-131185097D01*
X193209852Y-131250566D01*
X193330984Y-131341783D01*
X193430111Y-131458592D01*
X193453081Y-131494531D01*
X193504215Y-131594769D01*
X193541705Y-131705302D01*
X193567239Y-131833003D01*
X193582501Y-131984750D01*
X193585208Y-132033433D01*
X193595446Y-132249333D01*
X192337266Y-132249333D01*
X192337266Y-132297116D01*
X192350170Y-132379588D01*
X192384645Y-132466308D01*
X192434339Y-132542365D01*
X192448398Y-132557968D01*
X192529241Y-132618100D01*
X192633344Y-132659232D01*
X192755847Y-132681239D01*
X192891894Y-132683998D01*
X193036625Y-132667387D01*
X193185184Y-132631282D01*
X193322493Y-132580113D01*
X193387431Y-132551536D01*
X193441733Y-132527663D01*
X193477069Y-132512155D01*
X193484500Y-132508909D01*
X193493541Y-132512703D01*
X193499768Y-132535935D01*
X193503582Y-132582575D01*
X193505384Y-132656598D01*
X193505666Y-132718566D01*
X193505666Y-132937423D01*
X193391366Y-132973722D01*
X193290162Y-133004690D01*
X193209382Y-133026078D01*
X193137788Y-133040321D01*
X193064143Y-133049858D01*
X193023066Y-133053622D01*
X192952968Y-133059481D01*
X192887581Y-133065024D01*
X192845266Y-133068685D01*
X192799509Y-133069591D01*
X192733354Y-133067156D01*
X192660045Y-133061902D01*
X192649953Y-133060971D01*
X192476592Y-133031242D01*
X192319411Y-132977509D01*
X192182850Y-132901554D01*
X192110600Y-132844190D01*
X192049876Y-132776196D01*
X191989243Y-132686433D01*
X191935511Y-132586326D01*
X191895488Y-132487299D01*
X191892730Y-132478636D01*
X191876750Y-132420737D01*
X191865937Y-132362907D01*
X191859360Y-132296298D01*
X191856089Y-132212060D01*
X191855215Y-132122333D01*
X191861127Y-131945404D01*
X191867920Y-131893733D01*
X192336621Y-131893733D01*
X193099266Y-131893733D01*
X193099172Y-131847166D01*
X193084459Y-131750897D01*
X193044190Y-131662200D01*
X192983573Y-131588450D01*
X192907819Y-131537020D01*
X192870284Y-131523153D01*
X192772200Y-131506893D01*
X192671836Y-131508931D01*
X192583317Y-131528681D01*
X192565721Y-131535847D01*
X192481339Y-131589005D01*
X192416745Y-131664336D01*
X192369597Y-131765171D01*
X192346931Y-131847166D01*
X192336621Y-131893733D01*
X191867920Y-131893733D01*
X191880952Y-131794623D01*
X191916491Y-131664514D01*
X191969546Y-131549597D01*
X192041916Y-131444395D01*
X192099496Y-131379329D01*
X192221044Y-131274244D01*
X192356425Y-131198671D01*
X192507803Y-131151744D01*
X192677342Y-131132597D01*
X192717591Y-131132027D01*
X192902838Y-131145532D01*
G36*
X182732216Y-131148021D02*
G01*
X182885952Y-131187811D01*
X182974573Y-131225596D01*
X183086729Y-131300118D01*
X183187021Y-131401291D01*
X183270759Y-131522669D01*
X183333253Y-131657806D01*
X183362092Y-131758266D01*
X183371141Y-131814038D01*
X183380024Y-131892222D01*
X183387578Y-131981375D01*
X183391763Y-132050366D01*
X183401449Y-132249333D01*
X182138682Y-132249333D01*
X182148602Y-132333089D01*
X182171569Y-132433979D01*
X182217479Y-132517808D01*
X182261000Y-132567528D01*
X182338956Y-132623068D01*
X182440652Y-132660923D01*
X182560900Y-132681019D01*
X182694510Y-132683279D01*
X182836294Y-132667630D01*
X182981063Y-132633995D01*
X183123628Y-132582300D01*
X183128626Y-132580113D01*
X183193565Y-132551536D01*
X183247867Y-132527663D01*
X183283202Y-132512155D01*
X183290633Y-132508909D01*
X183299675Y-132512703D01*
X183305902Y-132535935D01*
X183309716Y-132582575D01*
X183311517Y-132656598D01*
X183311800Y-132718566D01*
X183311800Y-132937423D01*
X183197500Y-132973722D01*
X183096295Y-133004690D01*
X183015515Y-133026078D01*
X182943922Y-133040321D01*
X182870277Y-133049858D01*
X182829200Y-133053622D01*
X182759101Y-133059481D01*
X182693714Y-133065024D01*
X182651399Y-133068685D01*
X182605643Y-133069591D01*
X182539487Y-133067156D01*
X182466178Y-133061902D01*
X182456086Y-133060971D01*
X182278694Y-133030234D01*
X182120225Y-132974267D01*
X181982642Y-132894269D01*
X181867911Y-132791437D01*
X181777993Y-132666966D01*
X181762388Y-132638076D01*
X181723668Y-132555166D01*
X181695807Y-132475661D01*
X181677242Y-132391326D01*
X181666408Y-132293926D01*
X181661741Y-132175224D01*
X181661232Y-132105400D01*
X181663303Y-131974398D01*
X181668875Y-131893733D01*
X182142754Y-131893733D01*
X182905400Y-131893733D01*
X182905400Y-131849131D01*
X182891202Y-131757187D01*
X182852359Y-131669992D01*
X182794495Y-131595565D01*
X182723233Y-131541924D01*
X182676799Y-131523167D01*
X182578292Y-131506891D01*
X182477746Y-131508955D01*
X182389188Y-131528776D01*
X182371854Y-131535847D01*
X182287472Y-131589005D01*
X182222878Y-131664336D01*
X182175730Y-131765171D01*
X182153064Y-131847166D01*
X182142754Y-131893733D01*
X181668875Y-131893733D01*
X181670612Y-131868601D01*
X181684801Y-131779541D01*
X181707513Y-131698748D01*
X181740389Y-131617752D01*
X181766070Y-131564757D01*
X181815835Y-131486173D01*
X181884827Y-131403027D01*
X181963843Y-131324685D01*
X182043677Y-131260513D01*
X182096882Y-131228146D01*
X182242185Y-131172270D01*
X182402038Y-131140274D01*
X182568146Y-131132183D01*
X182732216Y-131148021D01*
G37*
X182732216Y-131148021D02*
X182885952Y-131187811D01*
X182974573Y-131225596D01*
X183086729Y-131300118D01*
X183187021Y-131401291D01*
X183270759Y-131522669D01*
X183333253Y-131657806D01*
X183362092Y-131758266D01*
X183371141Y-131814038D01*
X183380024Y-131892222D01*
X183387578Y-131981375D01*
X183391763Y-132050366D01*
X183401449Y-132249333D01*
X182138682Y-132249333D01*
X182148602Y-132333089D01*
X182171569Y-132433979D01*
X182217479Y-132517808D01*
X182261000Y-132567528D01*
X182338956Y-132623068D01*
X182440652Y-132660923D01*
X182560900Y-132681019D01*
X182694510Y-132683279D01*
X182836294Y-132667630D01*
X182981063Y-132633995D01*
X183123628Y-132582300D01*
X183128626Y-132580113D01*
X183193565Y-132551536D01*
X183247867Y-132527663D01*
X183283202Y-132512155D01*
X183290633Y-132508909D01*
X183299675Y-132512703D01*
X183305902Y-132535935D01*
X183309716Y-132582575D01*
X183311517Y-132656598D01*
X183311800Y-132718566D01*
X183311800Y-132937423D01*
X183197500Y-132973722D01*
X183096295Y-133004690D01*
X183015515Y-133026078D01*
X182943922Y-133040321D01*
X182870277Y-133049858D01*
X182829200Y-133053622D01*
X182759101Y-133059481D01*
X182693714Y-133065024D01*
X182651399Y-133068685D01*
X182605643Y-133069591D01*
X182539487Y-133067156D01*
X182466178Y-133061902D01*
X182456086Y-133060971D01*
X182278694Y-133030234D01*
X182120225Y-132974267D01*
X181982642Y-132894269D01*
X181867911Y-132791437D01*
X181777993Y-132666966D01*
X181762388Y-132638076D01*
X181723668Y-132555166D01*
X181695807Y-132475661D01*
X181677242Y-132391326D01*
X181666408Y-132293926D01*
X181661741Y-132175224D01*
X181661232Y-132105400D01*
X181663303Y-131974398D01*
X181668875Y-131893733D01*
X182142754Y-131893733D01*
X182905400Y-131893733D01*
X182905400Y-131849131D01*
X182891202Y-131757187D01*
X182852359Y-131669992D01*
X182794495Y-131595565D01*
X182723233Y-131541924D01*
X182676799Y-131523167D01*
X182578292Y-131506891D01*
X182477746Y-131508955D01*
X182389188Y-131528776D01*
X182371854Y-131535847D01*
X182287472Y-131589005D01*
X182222878Y-131664336D01*
X182175730Y-131765171D01*
X182153064Y-131847166D01*
X182142754Y-131893733D01*
X181668875Y-131893733D01*
X181670612Y-131868601D01*
X181684801Y-131779541D01*
X181707513Y-131698748D01*
X181740389Y-131617752D01*
X181766070Y-131564757D01*
X181815835Y-131486173D01*
X181884827Y-131403027D01*
X181963843Y-131324685D01*
X182043677Y-131260513D01*
X182096882Y-131228146D01*
X182242185Y-131172270D01*
X182402038Y-131140274D01*
X182568146Y-131132183D01*
X182732216Y-131148021D01*
G36*
X186521028Y-131137350D02*
G01*
X186617275Y-131158052D01*
X186695101Y-131196074D01*
X186774106Y-131253508D01*
X186841134Y-131319875D01*
X186869929Y-131359296D01*
X186901540Y-131411133D01*
X186901603Y-131287901D01*
X186901666Y-131164670D01*
X187384266Y-131174066D01*
X187384266Y-132105400D01*
X187384134Y-132323829D01*
X187383598Y-132511330D01*
X187382450Y-132670839D01*
X187380483Y-132805293D01*
X187377489Y-132917629D01*
X187373259Y-133010783D01*
X187367587Y-133087694D01*
X187360263Y-133151298D01*
X187351081Y-133204532D01*
X187339832Y-133250333D01*
X187326308Y-133291638D01*
X187310302Y-133331384D01*
X187295104Y-133365033D01*
X187228027Y-133475037D01*
X187138471Y-133563422D01*
X187024461Y-133631537D01*
X186884023Y-133680733D01*
X186808640Y-133697643D01*
X186684054Y-133713774D01*
X186539931Y-133719863D01*
X186389080Y-133715909D01*
X186244307Y-133701912D01*
X186215866Y-133697694D01*
X186140366Y-133684637D01*
X186067715Y-133670265D01*
X186012506Y-133657483D01*
X186008433Y-133656384D01*
X185936466Y-133636561D01*
X185936466Y-133417080D01*
X185937128Y-133335320D01*
X185938937Y-133267383D01*
X185941633Y-133219564D01*
X185944953Y-133198161D01*
X185945607Y-133197599D01*
X185964907Y-133204644D01*
X186003044Y-133222437D01*
X186023178Y-133232509D01*
X186123771Y-133273166D01*
X186242395Y-133304302D01*
X186368829Y-133324612D01*
X186492848Y-133332788D01*
X186604230Y-133327523D01*
X186669296Y-133315115D01*
X186756932Y-133275521D01*
X186823578Y-133210860D01*
X186869604Y-133120457D01*
X186895379Y-133003640D01*
X186901666Y-132890830D01*
X186901666Y-132759542D01*
X186812224Y-132848984D01*
X186733961Y-132916667D01*
X186653920Y-132961227D01*
X186563576Y-132985567D01*
X186454407Y-132992592D01*
X186396030Y-132990836D01*
X186271350Y-132977018D01*
X186169123Y-132947184D01*
X186080131Y-132897316D01*
X185995156Y-132823395D01*
X185982876Y-132810710D01*
X185896691Y-132704484D01*
X185831348Y-132586911D01*
X185785396Y-132453482D01*
X185757389Y-132299687D01*
X185745878Y-132121020D01*
X185745489Y-132080000D01*
X186232849Y-132080000D01*
X186233418Y-132170649D01*
X186235960Y-132236137D01*
X186241803Y-132285162D01*
X186252276Y-132326421D01*
X186268706Y-132368614D01*
X186281124Y-132396152D01*
X186325934Y-132480607D01*
X186372714Y-132538881D01*
X186428427Y-132578288D01*
X186472494Y-132597166D01*
X186522664Y-132613932D01*
X186557665Y-132619574D01*
X186594063Y-132614796D01*
X186634909Y-132604058D01*
X186706670Y-132568236D01*
X186773282Y-132505473D01*
X186828338Y-132422673D01*
X186851539Y-132370647D01*
X186879065Y-132268644D01*
X186895012Y-132148112D01*
X186898428Y-132022674D01*
X186888362Y-131905957D01*
X186885244Y-131887975D01*
X186851752Y-131770317D01*
X186801726Y-131673400D01*
X186738696Y-131598939D01*
X186666190Y-131548649D01*
X186587738Y-131524245D01*
X186506869Y-131527443D01*
X186427110Y-131559958D01*
X186351992Y-131623504D01*
X186348709Y-131627199D01*
X186302148Y-131690753D01*
X186268880Y-131763160D01*
X186247310Y-131850650D01*
X186235846Y-131959451D01*
X186232849Y-132080000D01*
X185745489Y-132080000D01*
X185745408Y-132071533D01*
X185749700Y-131919090D01*
X185763860Y-131790083D01*
X185789812Y-131675022D01*
X185829480Y-131564422D01*
X185863100Y-131491302D01*
X185936871Y-131372276D01*
X186029209Y-131272356D01*
X186134267Y-131197178D01*
X186199625Y-131166795D01*
X186297442Y-131142021D01*
X186409488Y-131132103D01*
X186521028Y-131137350D01*
G37*
X186521028Y-131137350D02*
X186617275Y-131158052D01*
X186695101Y-131196074D01*
X186774106Y-131253508D01*
X186841134Y-131319875D01*
X186869929Y-131359296D01*
X186901540Y-131411133D01*
X186901603Y-131287901D01*
X186901666Y-131164670D01*
X187384266Y-131174066D01*
X187384266Y-132105400D01*
X187384134Y-132323829D01*
X187383598Y-132511330D01*
X187382450Y-132670839D01*
X187380483Y-132805293D01*
X187377489Y-132917629D01*
X187373259Y-133010783D01*
X187367587Y-133087694D01*
X187360263Y-133151298D01*
X187351081Y-133204532D01*
X187339832Y-133250333D01*
X187326308Y-133291638D01*
X187310302Y-133331384D01*
X187295104Y-133365033D01*
X187228027Y-133475037D01*
X187138471Y-133563422D01*
X187024461Y-133631537D01*
X186884023Y-133680733D01*
X186808640Y-133697643D01*
X186684054Y-133713774D01*
X186539931Y-133719863D01*
X186389080Y-133715909D01*
X186244307Y-133701912D01*
X186215866Y-133697694D01*
X186140366Y-133684637D01*
X186067715Y-133670265D01*
X186012506Y-133657483D01*
X186008433Y-133656384D01*
X185936466Y-133636561D01*
X185936466Y-133417080D01*
X185937128Y-133335320D01*
X185938937Y-133267383D01*
X185941633Y-133219564D01*
X185944953Y-133198161D01*
X185945607Y-133197599D01*
X185964907Y-133204644D01*
X186003044Y-133222437D01*
X186023178Y-133232509D01*
X186123771Y-133273166D01*
X186242395Y-133304302D01*
X186368829Y-133324612D01*
X186492848Y-133332788D01*
X186604230Y-133327523D01*
X186669296Y-133315115D01*
X186756932Y-133275521D01*
X186823578Y-133210860D01*
X186869604Y-133120457D01*
X186895379Y-133003640D01*
X186901666Y-132890830D01*
X186901666Y-132759542D01*
X186812224Y-132848984D01*
X186733961Y-132916667D01*
X186653920Y-132961227D01*
X186563576Y-132985567D01*
X186454407Y-132992592D01*
X186396030Y-132990836D01*
X186271350Y-132977018D01*
X186169123Y-132947184D01*
X186080131Y-132897316D01*
X185995156Y-132823395D01*
X185982876Y-132810710D01*
X185896691Y-132704484D01*
X185831348Y-132586911D01*
X185785396Y-132453482D01*
X185757389Y-132299687D01*
X185745878Y-132121020D01*
X185745489Y-132080000D01*
X186232849Y-132080000D01*
X186233418Y-132170649D01*
X186235960Y-132236137D01*
X186241803Y-132285162D01*
X186252276Y-132326421D01*
X186268706Y-132368614D01*
X186281124Y-132396152D01*
X186325934Y-132480607D01*
X186372714Y-132538881D01*
X186428427Y-132578288D01*
X186472494Y-132597166D01*
X186522664Y-132613932D01*
X186557665Y-132619574D01*
X186594063Y-132614796D01*
X186634909Y-132604058D01*
X186706670Y-132568236D01*
X186773282Y-132505473D01*
X186828338Y-132422673D01*
X186851539Y-132370647D01*
X186879065Y-132268644D01*
X186895012Y-132148112D01*
X186898428Y-132022674D01*
X186888362Y-131905957D01*
X186885244Y-131887975D01*
X186851752Y-131770317D01*
X186801726Y-131673400D01*
X186738696Y-131598939D01*
X186666190Y-131548649D01*
X186587738Y-131524245D01*
X186506869Y-131527443D01*
X186427110Y-131559958D01*
X186351992Y-131623504D01*
X186348709Y-131627199D01*
X186302148Y-131690753D01*
X186268880Y-131763160D01*
X186247310Y-131850650D01*
X186235846Y-131959451D01*
X186232849Y-132080000D01*
X185745489Y-132080000D01*
X185745408Y-132071533D01*
X185749700Y-131919090D01*
X185763860Y-131790083D01*
X185789812Y-131675022D01*
X185829480Y-131564422D01*
X185863100Y-131491302D01*
X185936871Y-131372276D01*
X186029209Y-131272356D01*
X186134267Y-131197178D01*
X186199625Y-131166795D01*
X186297442Y-131142021D01*
X186409488Y-131132103D01*
X186521028Y-131137350D01*
G36*
X184894274Y-134050680D02*
G01*
X185007398Y-134088048D01*
X185099939Y-134150543D01*
X185172868Y-134239187D01*
X185227154Y-134355003D01*
X185263766Y-134499014D01*
X185275769Y-134582112D01*
X185279812Y-134634586D01*
X185283517Y-134715738D01*
X185286767Y-134820381D01*
X185289442Y-134943329D01*
X185291423Y-135079392D01*
X185292590Y-135223385D01*
X185292861Y-135326966D01*
X185293000Y-135923866D01*
X184801933Y-135923866D01*
X184801838Y-135293100D01*
X184801323Y-135121808D01*
X184799875Y-134969858D01*
X184797565Y-134839933D01*
X184794459Y-134734717D01*
X184790627Y-134656893D01*
X184786138Y-134609143D01*
X184784117Y-134598861D01*
X184746232Y-134517007D01*
X184687472Y-134460114D01*
X184612296Y-134430727D01*
X184525160Y-134431391D01*
X184500532Y-134436951D01*
X184434511Y-134464387D01*
X184382631Y-134510340D01*
X184338106Y-134581460D01*
X184325048Y-134608966D01*
X184314750Y-134632717D01*
X184306384Y-134656167D01*
X184299712Y-134683039D01*
X184294493Y-134717060D01*
X184290489Y-134761952D01*
X184287461Y-134821441D01*
X184285170Y-134899251D01*
X184283377Y-134999108D01*
X184281842Y-135124735D01*
X184280327Y-135279857D01*
X184280049Y-135310033D01*
X184274405Y-135923866D01*
X183802866Y-135923866D01*
X183802866Y-134078133D01*
X184276999Y-134078133D01*
X184276999Y-134338763D01*
X184325414Y-134263481D01*
X184402719Y-134165041D01*
X184490990Y-134096208D01*
X184594753Y-134054623D01*
X184718537Y-134037930D01*
X184759599Y-134037416D01*
X184894274Y-134050680D01*
G37*
X184894274Y-134050680D02*
X185007398Y-134088048D01*
X185099939Y-134150543D01*
X185172868Y-134239187D01*
X185227154Y-134355003D01*
X185263766Y-134499014D01*
X185275769Y-134582112D01*
X185279812Y-134634586D01*
X185283517Y-134715738D01*
X185286767Y-134820381D01*
X185289442Y-134943329D01*
X185291423Y-135079392D01*
X185292590Y-135223385D01*
X185292861Y-135326966D01*
X185293000Y-135923866D01*
X184801933Y-135923866D01*
X184801838Y-135293100D01*
X184801323Y-135121808D01*
X184799875Y-134969858D01*
X184797565Y-134839933D01*
X184794459Y-134734717D01*
X184790627Y-134656893D01*
X184786138Y-134609143D01*
X184784117Y-134598861D01*
X184746232Y-134517007D01*
X184687472Y-134460114D01*
X184612296Y-134430727D01*
X184525160Y-134431391D01*
X184500532Y-134436951D01*
X184434511Y-134464387D01*
X184382631Y-134510340D01*
X184338106Y-134581460D01*
X184325048Y-134608966D01*
X184314750Y-134632717D01*
X184306384Y-134656167D01*
X184299712Y-134683039D01*
X184294493Y-134717060D01*
X184290489Y-134761952D01*
X184287461Y-134821441D01*
X184285170Y-134899251D01*
X184283377Y-134999108D01*
X184281842Y-135124735D01*
X184280327Y-135279857D01*
X184280049Y-135310033D01*
X184274405Y-135923866D01*
X183802866Y-135923866D01*
X183802866Y-134078133D01*
X184276999Y-134078133D01*
X184276999Y-134338763D01*
X184325414Y-134263481D01*
X184402719Y-134165041D01*
X184490990Y-134096208D01*
X184594753Y-134054623D01*
X184718537Y-134037930D01*
X184759599Y-134037416D01*
X184894274Y-134050680D01*
G36*
X191422866Y-135923866D02*
G01*
X190948733Y-135923866D01*
X190947845Y-135792633D01*
X190947076Y-135727365D01*
X190944823Y-135691243D01*
X190939517Y-135679547D01*
X190929586Y-135687558D01*
X190918211Y-135703581D01*
X190839289Y-135801441D01*
X190751407Y-135879581D01*
X190689919Y-135917839D01*
X190602456Y-135948933D01*
X190497470Y-135966195D01*
X190388978Y-135968139D01*
X190310793Y-135958037D01*
X190182417Y-135914332D01*
X190071251Y-135841777D01*
X189977647Y-135740896D01*
X189901957Y-135612211D01*
X189844531Y-135456245D01*
X189805722Y-135273521D01*
X189795332Y-135191557D01*
X189785553Y-135009466D01*
X190279984Y-135009466D01*
X190282574Y-135135563D01*
X190291585Y-135235261D01*
X190308663Y-135315689D01*
X190335451Y-135383975D01*
X190373593Y-135447247D01*
X190384416Y-135462205D01*
X190451104Y-135526163D01*
X190531772Y-135563385D01*
X190618985Y-135572706D01*
X190705306Y-135552961D01*
X190761156Y-135521267D01*
X190824605Y-135459891D01*
X190872500Y-135379330D01*
X190906605Y-135275419D01*
X190928685Y-135143991D01*
X190931279Y-135119533D01*
X190937109Y-134969014D01*
X190924941Y-134829425D01*
X190896077Y-134705120D01*
X190851821Y-134600455D01*
X190793474Y-134519783D01*
X190738814Y-134476195D01*
X190649772Y-134441349D01*
X190561286Y-134438944D01*
X190477860Y-134467787D01*
X190403996Y-134526682D01*
X190366860Y-134574835D01*
X190333294Y-134632697D01*
X190309331Y-134691312D01*
X190293509Y-134757991D01*
X190284368Y-134840043D01*
X190280445Y-134944779D01*
X190279984Y-135009466D01*
X189785553Y-135009466D01*
X189784783Y-134995148D01*
X189794161Y-134807033D01*
X189822450Y-134631439D01*
X189868634Y-134472590D01*
X189931696Y-134334714D01*
X190010621Y-134222036D01*
X190034687Y-134196312D01*
X190128070Y-134124518D01*
X190240954Y-134071723D01*
X190363845Y-134040404D01*
X190487252Y-134033034D01*
X190595227Y-134050152D01*
X190708539Y-134098029D01*
X190807837Y-134169099D01*
X190877255Y-134247284D01*
X190906720Y-134286498D01*
X190929474Y-134310781D01*
X190936033Y-134314557D01*
X190939293Y-134298501D01*
X190942243Y-134252818D01*
X190944773Y-134181747D01*
X190946769Y-134089527D01*
X190948120Y-133980396D01*
X190948714Y-133858594D01*
X190948733Y-133832600D01*
X190948733Y-133349999D01*
X191422866Y-133349999D01*
X191422866Y-135923866D01*
G37*
X191422866Y-135923866D02*
X190948733Y-135923866D01*
X190947845Y-135792633D01*
X190947076Y-135727365D01*
X190944823Y-135691243D01*
X190939517Y-135679547D01*
X190929586Y-135687558D01*
X190918211Y-135703581D01*
X190839289Y-135801441D01*
X190751407Y-135879581D01*
X190689919Y-135917839D01*
X190602456Y-135948933D01*
X190497470Y-135966195D01*
X190388978Y-135968139D01*
X190310793Y-135958037D01*
X190182417Y-135914332D01*
X190071251Y-135841777D01*
X189977647Y-135740896D01*
X189901957Y-135612211D01*
X189844531Y-135456245D01*
X189805722Y-135273521D01*
X189795332Y-135191557D01*
X189785553Y-135009466D01*
X190279984Y-135009466D01*
X190282574Y-135135563D01*
X190291585Y-135235261D01*
X190308663Y-135315689D01*
X190335451Y-135383975D01*
X190373593Y-135447247D01*
X190384416Y-135462205D01*
X190451104Y-135526163D01*
X190531772Y-135563385D01*
X190618985Y-135572706D01*
X190705306Y-135552961D01*
X190761156Y-135521267D01*
X190824605Y-135459891D01*
X190872500Y-135379330D01*
X190906605Y-135275419D01*
X190928685Y-135143991D01*
X190931279Y-135119533D01*
X190937109Y-134969014D01*
X190924941Y-134829425D01*
X190896077Y-134705120D01*
X190851821Y-134600455D01*
X190793474Y-134519783D01*
X190738814Y-134476195D01*
X190649772Y-134441349D01*
X190561286Y-134438944D01*
X190477860Y-134467787D01*
X190403996Y-134526682D01*
X190366860Y-134574835D01*
X190333294Y-134632697D01*
X190309331Y-134691312D01*
X190293509Y-134757991D01*
X190284368Y-134840043D01*
X190280445Y-134944779D01*
X190279984Y-135009466D01*
X189785553Y-135009466D01*
X189784783Y-134995148D01*
X189794161Y-134807033D01*
X189822450Y-134631439D01*
X189868634Y-134472590D01*
X189931696Y-134334714D01*
X190010621Y-134222036D01*
X190034687Y-134196312D01*
X190128070Y-134124518D01*
X190240954Y-134071723D01*
X190363845Y-134040404D01*
X190487252Y-134033034D01*
X190595227Y-134050152D01*
X190708539Y-134098029D01*
X190807837Y-134169099D01*
X190877255Y-134247284D01*
X190906720Y-134286498D01*
X190929474Y-134310781D01*
X190936033Y-134314557D01*
X190939293Y-134298501D01*
X190942243Y-134252818D01*
X190944773Y-134181747D01*
X190946769Y-134089527D01*
X190948120Y-133980396D01*
X190948714Y-133858594D01*
X190948733Y-133832600D01*
X190948733Y-133349999D01*
X191422866Y-133349999D01*
X191422866Y-135923866D01*
G36*
X188840882Y-134052830D02*
G01*
X188992263Y-134095952D01*
X189043733Y-134118147D01*
X189168216Y-134194125D01*
X189277188Y-134293105D01*
X189363244Y-134407816D01*
X189390785Y-134458964D01*
X189430352Y-134564292D01*
X189461634Y-134693119D01*
X189482841Y-134835708D01*
X189492180Y-134982318D01*
X189492466Y-135011684D01*
X189492466Y-135161866D01*
X188234796Y-135161866D01*
X188245248Y-135238120D01*
X188275410Y-135351144D01*
X188332121Y-135443153D01*
X188415541Y-135514362D01*
X188476466Y-135546321D01*
X188531844Y-135561951D01*
X188610832Y-135573539D01*
X188703363Y-135580613D01*
X188799370Y-135582697D01*
X188888784Y-135579319D01*
X188961539Y-135570004D01*
X188964883Y-135569305D01*
X189139643Y-135519339D01*
X189311815Y-135446927D01*
X189323987Y-135440833D01*
X189408790Y-135397860D01*
X189404061Y-135622057D01*
X189399333Y-135846254D01*
X189274520Y-135885320D01*
X189037190Y-135942889D01*
X188796154Y-135969033D01*
X188557112Y-135963231D01*
X188496332Y-135956469D01*
X188323882Y-135919330D01*
X188172358Y-135855597D01*
X188042206Y-135765647D01*
X187933869Y-135649857D01*
X187847792Y-135508605D01*
X187788457Y-135355876D01*
X187772280Y-135278392D01*
X187761603Y-135177215D01*
X187756427Y-135062059D01*
X187756751Y-134942638D01*
X187762577Y-134828666D01*
X187767086Y-134789333D01*
X188242999Y-134789333D01*
X189001399Y-134789333D01*
X189001399Y-134733103D01*
X188993631Y-134686825D01*
X188973621Y-134627047D01*
X188954833Y-134585287D01*
X188898618Y-134503724D01*
X188824926Y-134448560D01*
X188730846Y-134418228D01*
X188630450Y-134410818D01*
X188513296Y-134424507D01*
X188417991Y-134463740D01*
X188343608Y-134529288D01*
X188289218Y-134621924D01*
X188258556Y-134720095D01*
X188242999Y-134789333D01*
X187767086Y-134789333D01*
X187773906Y-134729856D01*
X187788410Y-134663218D01*
X187849515Y-134506776D01*
X187931294Y-134367677D01*
X188030366Y-134250286D01*
X188143353Y-134158967D01*
X188206628Y-134123163D01*
X188352118Y-134069261D01*
X188512118Y-134039536D01*
X188677937Y-134034042D01*
X188840882Y-134052830D01*
G37*
X188840882Y-134052830D02*
X188992263Y-134095952D01*
X189043733Y-134118147D01*
X189168216Y-134194125D01*
X189277188Y-134293105D01*
X189363244Y-134407816D01*
X189390785Y-134458964D01*
X189430352Y-134564292D01*
X189461634Y-134693119D01*
X189482841Y-134835708D01*
X189492180Y-134982318D01*
X189492466Y-135011684D01*
X189492466Y-135161866D01*
X188234796Y-135161866D01*
X188245248Y-135238120D01*
X188275410Y-135351144D01*
X188332121Y-135443153D01*
X188415541Y-135514362D01*
X188476466Y-135546321D01*
X188531844Y-135561951D01*
X188610832Y-135573539D01*
X188703363Y-135580613D01*
X188799370Y-135582697D01*
X188888784Y-135579319D01*
X188961539Y-135570004D01*
X188964883Y-135569305D01*
X189139643Y-135519339D01*
X189311815Y-135446927D01*
X189323987Y-135440833D01*
X189408790Y-135397860D01*
X189404061Y-135622057D01*
X189399333Y-135846254D01*
X189274520Y-135885320D01*
X189037190Y-135942889D01*
X188796154Y-135969033D01*
X188557112Y-135963231D01*
X188496332Y-135956469D01*
X188323882Y-135919330D01*
X188172358Y-135855597D01*
X188042206Y-135765647D01*
X187933869Y-135649857D01*
X187847792Y-135508605D01*
X187788457Y-135355876D01*
X187772280Y-135278392D01*
X187761603Y-135177215D01*
X187756427Y-135062059D01*
X187756751Y-134942638D01*
X187762577Y-134828666D01*
X187767086Y-134789333D01*
X188242999Y-134789333D01*
X189001399Y-134789333D01*
X189001399Y-134733103D01*
X188993631Y-134686825D01*
X188973621Y-134627047D01*
X188954833Y-134585287D01*
X188898618Y-134503724D01*
X188824926Y-134448560D01*
X188730846Y-134418228D01*
X188630450Y-134410818D01*
X188513296Y-134424507D01*
X188417991Y-134463740D01*
X188343608Y-134529288D01*
X188289218Y-134621924D01*
X188258556Y-134720095D01*
X188242999Y-134789333D01*
X187767086Y-134789333D01*
X187773906Y-134729856D01*
X187788410Y-134663218D01*
X187849515Y-134506776D01*
X187931294Y-134367677D01*
X188030366Y-134250286D01*
X188143353Y-134158967D01*
X188206628Y-134123163D01*
X188352118Y-134069261D01*
X188512118Y-134039536D01*
X188677937Y-134034042D01*
X188840882Y-134052830D01*
G36*
X186808218Y-134054639D02*
G01*
X186954118Y-134096605D01*
X187083422Y-134159893D01*
X187144552Y-134203190D01*
X187242577Y-134297420D01*
X187320321Y-134406684D01*
X187379247Y-134534538D01*
X187420819Y-134684537D01*
X187446499Y-134860238D01*
X187453593Y-134954433D01*
X187465264Y-135161866D01*
X186207400Y-135161866D01*
X186207494Y-135208433D01*
X186223787Y-135311777D01*
X186269288Y-135405386D01*
X186339576Y-135483532D01*
X186430230Y-135540490D01*
X186477304Y-135557925D01*
X186607286Y-135582091D01*
X186754029Y-135584781D01*
X186909056Y-135567097D01*
X187063887Y-135530145D01*
X187210043Y-135475027D01*
X187245422Y-135457936D01*
X187301444Y-135429912D01*
X187344692Y-135409097D01*
X187367307Y-135399254D01*
X187368681Y-135398933D01*
X187371342Y-135414812D01*
X187373550Y-135458238D01*
X187375100Y-135522888D01*
X187375784Y-135602445D01*
X187375799Y-135616797D01*
X187375799Y-135834662D01*
X187274362Y-135871648D01*
X187200081Y-135895952D01*
X187114783Y-135919880D01*
X187058462Y-135933423D01*
X186971430Y-135947579D01*
X186863248Y-135958242D01*
X186745126Y-135964954D01*
X186628272Y-135967257D01*
X186523896Y-135964693D01*
X186452326Y-135958198D01*
X186279482Y-135918763D01*
X186127856Y-135853034D01*
X185998079Y-135761609D01*
X185890781Y-135645083D01*
X185806592Y-135504054D01*
X185746142Y-135339118D01*
X185730485Y-135274808D01*
X185720974Y-135202704D01*
X185716937Y-135108212D01*
X185717903Y-135000512D01*
X185723400Y-134888780D01*
X185732954Y-134782196D01*
X185737236Y-134752128D01*
X186210769Y-134752128D01*
X186221279Y-134769491D01*
X186248098Y-134780470D01*
X186294738Y-134786505D01*
X186364710Y-134789034D01*
X186461524Y-134789497D01*
X186588400Y-134789333D01*
X186711583Y-134789179D01*
X186804992Y-134788498D01*
X186872718Y-134786959D01*
X186918852Y-134784230D01*
X186947485Y-134779982D01*
X186962710Y-134773884D01*
X186968617Y-134765604D01*
X186969400Y-134758540D01*
X186956250Y-134675829D01*
X186921318Y-134589961D01*
X186871378Y-134515985D01*
X186850721Y-134494882D01*
X186812093Y-134460921D01*
X186784854Y-134438717D01*
X186776929Y-134433733D01*
X186758298Y-134430839D01*
X186716790Y-134423388D01*
X186679719Y-134416455D01*
X186560483Y-134408305D01*
X186453652Y-134429961D01*
X186362297Y-134479805D01*
X186289491Y-134556216D01*
X186241990Y-134647351D01*
X186224636Y-134692497D01*
X186213059Y-134726944D01*
X186210769Y-134752128D01*
X185737236Y-134752128D01*
X185746094Y-134689939D01*
X185762346Y-134621186D01*
X185764450Y-134615043D01*
X185836965Y-134454616D01*
X185930074Y-134317908D01*
X186041960Y-134207040D01*
X186170809Y-134124132D01*
X186194426Y-134112901D01*
X186338825Y-134063126D01*
X186493782Y-134037255D01*
X186652510Y-134034641D01*
X186808218Y-134054639D01*
G37*
X186808218Y-134054639D02*
X186954118Y-134096605D01*
X187083422Y-134159893D01*
X187144552Y-134203190D01*
X187242577Y-134297420D01*
X187320321Y-134406684D01*
X187379247Y-134534538D01*
X187420819Y-134684537D01*
X187446499Y-134860238D01*
X187453593Y-134954433D01*
X187465264Y-135161866D01*
X186207400Y-135161866D01*
X186207494Y-135208433D01*
X186223787Y-135311777D01*
X186269288Y-135405386D01*
X186339576Y-135483532D01*
X186430230Y-135540490D01*
X186477304Y-135557925D01*
X186607286Y-135582091D01*
X186754029Y-135584781D01*
X186909056Y-135567097D01*
X187063887Y-135530145D01*
X187210043Y-135475027D01*
X187245422Y-135457936D01*
X187301444Y-135429912D01*
X187344692Y-135409097D01*
X187367307Y-135399254D01*
X187368681Y-135398933D01*
X187371342Y-135414812D01*
X187373550Y-135458238D01*
X187375100Y-135522888D01*
X187375784Y-135602445D01*
X187375799Y-135616797D01*
X187375799Y-135834662D01*
X187274362Y-135871648D01*
X187200081Y-135895952D01*
X187114783Y-135919880D01*
X187058462Y-135933423D01*
X186971430Y-135947579D01*
X186863248Y-135958242D01*
X186745126Y-135964954D01*
X186628272Y-135967257D01*
X186523896Y-135964693D01*
X186452326Y-135958198D01*
X186279482Y-135918763D01*
X186127856Y-135853034D01*
X185998079Y-135761609D01*
X185890781Y-135645083D01*
X185806592Y-135504054D01*
X185746142Y-135339118D01*
X185730485Y-135274808D01*
X185720974Y-135202704D01*
X185716937Y-135108212D01*
X185717903Y-135000512D01*
X185723400Y-134888780D01*
X185732954Y-134782196D01*
X185737236Y-134752128D01*
X186210769Y-134752128D01*
X186221279Y-134769491D01*
X186248098Y-134780470D01*
X186294738Y-134786505D01*
X186364710Y-134789034D01*
X186461524Y-134789497D01*
X186588400Y-134789333D01*
X186711583Y-134789179D01*
X186804992Y-134788498D01*
X186872718Y-134786959D01*
X186918852Y-134784230D01*
X186947485Y-134779982D01*
X186962710Y-134773884D01*
X186968617Y-134765604D01*
X186969400Y-134758540D01*
X186956250Y-134675829D01*
X186921318Y-134589961D01*
X186871378Y-134515985D01*
X186850721Y-134494882D01*
X186812093Y-134460921D01*
X186784854Y-134438717D01*
X186776929Y-134433733D01*
X186758298Y-134430839D01*
X186716790Y-134423388D01*
X186679719Y-134416455D01*
X186560483Y-134408305D01*
X186453652Y-134429961D01*
X186362297Y-134479805D01*
X186289491Y-134556216D01*
X186241990Y-134647351D01*
X186224636Y-134692497D01*
X186213059Y-134726944D01*
X186210769Y-134752128D01*
X185737236Y-134752128D01*
X185746094Y-134689939D01*
X185762346Y-134621186D01*
X185764450Y-134615043D01*
X185836965Y-134454616D01*
X185930074Y-134317908D01*
X186041960Y-134207040D01*
X186170809Y-134124132D01*
X186194426Y-134112901D01*
X186338825Y-134063126D01*
X186493782Y-134037255D01*
X186652510Y-134034641D01*
X186808218Y-134054639D01*
G36*
X193798726Y-133204349D02*
G01*
X193849796Y-133225119D01*
X193882316Y-133259023D01*
X193887160Y-133272469D01*
X193891346Y-133293420D01*
X193901467Y-133345509D01*
X193917117Y-133426609D01*
X193937886Y-133534590D01*
X193963369Y-133667325D01*
X193993155Y-133822685D01*
X194026839Y-133998541D01*
X194064012Y-134192765D01*
X194104266Y-134403228D01*
X194147194Y-134627803D01*
X194192387Y-134864360D01*
X194239439Y-135110770D01*
X194260190Y-135219484D01*
X194308073Y-135469722D01*
X194354513Y-135711154D01*
X194399086Y-135941638D01*
X194441366Y-136159032D01*
X194480930Y-136361193D01*
X194517351Y-136545980D01*
X194550206Y-136711250D01*
X194579070Y-136854860D01*
X194603517Y-136974670D01*
X194623124Y-137068535D01*
X194637465Y-137134314D01*
X194646116Y-137169865D01*
X194647959Y-137175284D01*
X194704631Y-137247789D01*
X194790008Y-137303836D01*
X194902803Y-137342689D01*
X194961933Y-137354332D01*
X195036154Y-137370768D01*
X195082401Y-137395101D01*
X195106487Y-137432890D01*
X195114223Y-137489691D01*
X195114333Y-137500075D01*
X195114333Y-137585370D01*
X194822233Y-137571651D01*
X194666868Y-137565940D01*
X194497843Y-137562490D01*
X194322456Y-137561240D01*
X194148005Y-137562131D01*
X193981786Y-137565103D01*
X193831098Y-137570096D01*
X193703237Y-137577050D01*
X193649600Y-137581293D01*
X193573281Y-137587003D01*
X193509584Y-137589507D01*
X193465936Y-137588655D01*
X193450229Y-137585270D01*
X193441129Y-137561238D01*
X193435257Y-137518200D01*
X193434687Y-137507493D01*
X193440605Y-137454869D01*
X193466133Y-137416497D01*
X193516039Y-137388128D01*
X193593520Y-137365861D01*
X193676790Y-137337033D01*
X193746775Y-137293444D01*
X193796191Y-137240700D01*
X193816297Y-137194346D01*
X193815800Y-137167552D01*
X193810433Y-137112478D01*
X193800956Y-137034243D01*
X193788127Y-136937962D01*
X193772702Y-136828752D01*
X193755442Y-136711731D01*
X193737102Y-136592015D01*
X193718443Y-136474721D01*
X193700221Y-136364966D01*
X193683195Y-136267866D01*
X193668123Y-136188539D01*
X193665072Y-136173633D01*
X193655375Y-136127066D01*
X192407962Y-136127066D01*
X192150717Y-136596966D01*
X192070440Y-136744614D01*
X192005982Y-136866031D01*
X191956193Y-136964292D01*
X191919924Y-137042476D01*
X191896022Y-137103658D01*
X191883339Y-137150916D01*
X191880723Y-137187326D01*
X191887024Y-137215964D01*
X191901091Y-137239908D01*
X191907451Y-137247539D01*
X191964420Y-137291301D01*
X192054395Y-137331290D01*
X192177662Y-137367622D01*
X192231188Y-137380037D01*
X192320842Y-137402848D01*
X192380704Y-137427228D01*
X192414807Y-137456454D01*
X192427182Y-137493804D01*
X192423267Y-137536155D01*
X192420769Y-137552895D01*
X192418598Y-137566123D01*
X192413160Y-137576050D01*
X192400859Y-137582890D01*
X192378099Y-137586855D01*
X192341285Y-137588155D01*
X192286823Y-137587004D01*
X192211115Y-137583613D01*
X192110568Y-137578194D01*
X191981585Y-137570960D01*
X191905080Y-137566716D01*
X191748851Y-137559014D01*
X191617846Y-137554770D01*
X191503601Y-137553959D01*
X191397653Y-137556554D01*
X191291538Y-137562528D01*
X191261613Y-137564729D01*
X191169541Y-137572247D01*
X191087079Y-137579827D01*
X191021282Y-137586759D01*
X190979204Y-137592330D01*
X190970201Y-137594119D01*
X190939440Y-137594419D01*
X190919681Y-137569690D01*
X190915168Y-137558727D01*
X190899327Y-137496406D01*
X190906970Y-137447768D01*
X190940756Y-137409641D01*
X191003343Y-137378855D01*
X191086017Y-137354916D01*
X191229535Y-137312007D01*
X191343133Y-137258906D01*
X191429580Y-137194266D01*
X191441900Y-137181902D01*
X191459909Y-137156482D01*
X191493532Y-137101805D01*
X191542426Y-137018483D01*
X191606248Y-136907133D01*
X191684655Y-136768366D01*
X191777306Y-136602799D01*
X191883855Y-136411045D01*
X192003962Y-136193718D01*
X192137283Y-135951433D01*
X192208104Y-135822266D01*
X192574101Y-135822266D01*
X193606420Y-135822266D01*
X193597851Y-135775700D01*
X193593421Y-135749247D01*
X193584344Y-135693137D01*
X193571226Y-135611172D01*
X193554671Y-135507152D01*
X193535282Y-135384878D01*
X193513666Y-135248150D01*
X193490425Y-135100770D01*
X193480372Y-135036908D01*
X193456847Y-134888109D01*
X193434794Y-134750002D01*
X193414791Y-134626108D01*
X193397416Y-134519950D01*
X193383249Y-134435048D01*
X193372868Y-134374923D01*
X193366850Y-134343098D01*
X193365699Y-134338921D01*
X193360552Y-134345073D01*
X193347276Y-134367094D01*
X193325139Y-134406350D01*
X193293410Y-134464209D01*
X193251356Y-134542038D01*
X193198247Y-134641206D01*
X193133351Y-134763079D01*
X193055936Y-134909026D01*
X192965271Y-135080413D01*
X192860624Y-135278608D01*
X192741264Y-135504979D01*
X192696984Y-135589016D01*
X192574101Y-135822266D01*
X192208104Y-135822266D01*
X192283475Y-135684803D01*
X192442196Y-135394443D01*
X192550580Y-135195733D01*
X192680075Y-134958368D01*
X192805539Y-134728853D01*
X192925977Y-134508988D01*
X193040391Y-134300573D01*
X193147786Y-134105406D01*
X193247165Y-133925288D01*
X193337532Y-133762018D01*
X193417890Y-133617396D01*
X193487244Y-133493222D01*
X193544595Y-133391294D01*
X193588949Y-133313414D01*
X193619309Y-133261380D01*
X193634678Y-133236993D01*
X193635754Y-133235699D01*
X193681550Y-133208155D01*
X193739259Y-133198200D01*
X193798726Y-133204349D01*
G37*
X193798726Y-133204349D02*
X193849796Y-133225119D01*
X193882316Y-133259023D01*
X193887160Y-133272469D01*
X193891346Y-133293420D01*
X193901467Y-133345509D01*
X193917117Y-133426609D01*
X193937886Y-133534590D01*
X193963369Y-133667325D01*
X193993155Y-133822685D01*
X194026839Y-133998541D01*
X194064012Y-134192765D01*
X194104266Y-134403228D01*
X194147194Y-134627803D01*
X194192387Y-134864360D01*
X194239439Y-135110770D01*
X194260190Y-135219484D01*
X194308073Y-135469722D01*
X194354513Y-135711154D01*
X194399086Y-135941638D01*
X194441366Y-136159032D01*
X194480930Y-136361193D01*
X194517351Y-136545980D01*
X194550206Y-136711250D01*
X194579070Y-136854860D01*
X194603517Y-136974670D01*
X194623124Y-137068535D01*
X194637465Y-137134314D01*
X194646116Y-137169865D01*
X194647959Y-137175284D01*
X194704631Y-137247789D01*
X194790008Y-137303836D01*
X194902803Y-137342689D01*
X194961933Y-137354332D01*
X195036154Y-137370768D01*
X195082401Y-137395101D01*
X195106487Y-137432890D01*
X195114223Y-137489691D01*
X195114333Y-137500075D01*
X195114333Y-137585370D01*
X194822233Y-137571651D01*
X194666868Y-137565940D01*
X194497843Y-137562490D01*
X194322456Y-137561240D01*
X194148005Y-137562131D01*
X193981786Y-137565103D01*
X193831098Y-137570096D01*
X193703237Y-137577050D01*
X193649600Y-137581293D01*
X193573281Y-137587003D01*
X193509584Y-137589507D01*
X193465936Y-137588655D01*
X193450229Y-137585270D01*
X193441129Y-137561238D01*
X193435257Y-137518200D01*
X193434687Y-137507493D01*
X193440605Y-137454869D01*
X193466133Y-137416497D01*
X193516039Y-137388128D01*
X193593520Y-137365861D01*
X193676790Y-137337033D01*
X193746775Y-137293444D01*
X193796191Y-137240700D01*
X193816297Y-137194346D01*
X193815800Y-137167552D01*
X193810433Y-137112478D01*
X193800956Y-137034243D01*
X193788127Y-136937962D01*
X193772702Y-136828752D01*
X193755442Y-136711731D01*
X193737102Y-136592015D01*
X193718443Y-136474721D01*
X193700221Y-136364966D01*
X193683195Y-136267866D01*
X193668123Y-136188539D01*
X193665072Y-136173633D01*
X193655375Y-136127066D01*
X192407962Y-136127066D01*
X192150717Y-136596966D01*
X192070440Y-136744614D01*
X192005982Y-136866031D01*
X191956193Y-136964292D01*
X191919924Y-137042476D01*
X191896022Y-137103658D01*
X191883339Y-137150916D01*
X191880723Y-137187326D01*
X191887024Y-137215964D01*
X191901091Y-137239908D01*
X191907451Y-137247539D01*
X191964420Y-137291301D01*
X192054395Y-137331290D01*
X192177662Y-137367622D01*
X192231188Y-137380037D01*
X192320842Y-137402848D01*
X192380704Y-137427228D01*
X192414807Y-137456454D01*
X192427182Y-137493804D01*
X192423267Y-137536155D01*
X192420769Y-137552895D01*
X192418598Y-137566123D01*
X192413160Y-137576050D01*
X192400859Y-137582890D01*
X192378099Y-137586855D01*
X192341285Y-137588155D01*
X192286823Y-137587004D01*
X192211115Y-137583613D01*
X192110568Y-137578194D01*
X191981585Y-137570960D01*
X191905080Y-137566716D01*
X191748851Y-137559014D01*
X191617846Y-137554770D01*
X191503601Y-137553959D01*
X191397653Y-137556554D01*
X191291538Y-137562528D01*
X191261613Y-137564729D01*
X191169541Y-137572247D01*
X191087079Y-137579827D01*
X191021282Y-137586759D01*
X190979204Y-137592330D01*
X190970201Y-137594119D01*
X190939440Y-137594419D01*
X190919681Y-137569690D01*
X190915168Y-137558727D01*
X190899327Y-137496406D01*
X190906970Y-137447768D01*
X190940756Y-137409641D01*
X191003343Y-137378855D01*
X191086017Y-137354916D01*
X191229535Y-137312007D01*
X191343133Y-137258906D01*
X191429580Y-137194266D01*
X191441900Y-137181902D01*
X191459909Y-137156482D01*
X191493532Y-137101805D01*
X191542426Y-137018483D01*
X191606248Y-136907133D01*
X191684655Y-136768366D01*
X191777306Y-136602799D01*
X191883855Y-136411045D01*
X192003962Y-136193718D01*
X192137283Y-135951433D01*
X192208104Y-135822266D01*
X192574101Y-135822266D01*
X193606420Y-135822266D01*
X193597851Y-135775700D01*
X193593421Y-135749247D01*
X193584344Y-135693137D01*
X193571226Y-135611172D01*
X193554671Y-135507152D01*
X193535282Y-135384878D01*
X193513666Y-135248150D01*
X193490425Y-135100770D01*
X193480372Y-135036908D01*
X193456847Y-134888109D01*
X193434794Y-134750002D01*
X193414791Y-134626108D01*
X193397416Y-134519950D01*
X193383249Y-134435048D01*
X193372868Y-134374923D01*
X193366850Y-134343098D01*
X193365699Y-134338921D01*
X193360552Y-134345073D01*
X193347276Y-134367094D01*
X193325139Y-134406350D01*
X193293410Y-134464209D01*
X193251356Y-134542038D01*
X193198247Y-134641206D01*
X193133351Y-134763079D01*
X193055936Y-134909026D01*
X192965271Y-135080413D01*
X192860624Y-135278608D01*
X192741264Y-135504979D01*
X192696984Y-135589016D01*
X192574101Y-135822266D01*
X192208104Y-135822266D01*
X192283475Y-135684803D01*
X192442196Y-135394443D01*
X192550580Y-135195733D01*
X192680075Y-134958368D01*
X192805539Y-134728853D01*
X192925977Y-134508988D01*
X193040391Y-134300573D01*
X193147786Y-134105406D01*
X193247165Y-133925288D01*
X193337532Y-133762018D01*
X193417890Y-133617396D01*
X193487244Y-133493222D01*
X193544595Y-133391294D01*
X193588949Y-133313414D01*
X193619309Y-133261380D01*
X193634678Y-133236993D01*
X193635754Y-133235699D01*
X193681550Y-133208155D01*
X193739259Y-133198200D01*
X193798726Y-133204349D01*
G36*
X199135200Y-133939967D02*
G01*
X199155425Y-133952517D01*
X199161216Y-133956783D01*
X199193541Y-133990826D01*
X199209149Y-134024834D01*
X199207791Y-134052410D01*
X199200773Y-134107344D01*
X199188998Y-134183772D01*
X199173374Y-134275829D01*
X199154805Y-134377649D01*
X199154115Y-134381307D01*
X199135339Y-134481214D01*
X199118939Y-134569443D01*
X199105884Y-134640698D01*
X199097143Y-134689685D01*
X199093686Y-134711111D01*
X199093666Y-134711471D01*
X199109771Y-134714493D01*
X199154770Y-134717156D01*
X199223692Y-134719316D01*
X199311565Y-134720831D01*
X199413419Y-134721557D01*
X199445772Y-134721600D01*
X199797877Y-134721600D01*
X199753282Y-134899512D01*
X199734376Y-134972689D01*
X199717747Y-135032945D01*
X199705433Y-135073140D01*
X199700058Y-135086052D01*
X199680793Y-135087388D01*
X199635210Y-135084380D01*
X199570491Y-135077642D01*
X199506848Y-135069581D01*
X199411560Y-135058111D01*
X199309787Y-135048262D01*
X199217434Y-135041483D01*
X199179015Y-135039673D01*
X199035763Y-135034866D01*
X198854172Y-136025466D01*
X198821263Y-136205922D01*
X198790235Y-136377868D01*
X198761634Y-136538166D01*
X198736004Y-136683678D01*
X198713889Y-136811266D01*
X198695833Y-136917792D01*
X198682381Y-137000119D01*
X198674078Y-137055107D01*
X198671456Y-137078622D01*
X198685310Y-137149418D01*
X198709167Y-137186325D01*
X198734904Y-137211705D01*
X198763695Y-137225072D01*
X198806879Y-137229883D01*
X198852385Y-137230002D01*
X198928131Y-137223258D01*
X199007196Y-137207626D01*
X199046384Y-137195754D01*
X199148316Y-137158421D01*
X199223194Y-137131293D01*
X199275868Y-137113213D01*
X199311188Y-137103021D01*
X199334003Y-137099560D01*
X199349163Y-137101670D01*
X199361517Y-137108194D01*
X199374853Y-137117280D01*
X199404704Y-137147270D01*
X199415400Y-137175938D01*
X199420430Y-137217228D01*
X199425015Y-137233088D01*
X199417570Y-137258537D01*
X199382687Y-137292662D01*
X199324967Y-137333149D01*
X199249005Y-137377688D01*
X199159401Y-137423966D01*
X199060753Y-137469671D01*
X198957659Y-137512491D01*
X198854716Y-137550113D01*
X198756523Y-137580226D01*
X198712704Y-137591270D01*
X198618027Y-137608352D01*
X198509868Y-137620290D01*
X198399545Y-137626482D01*
X198298376Y-137626324D01*
X198217678Y-137619213D01*
X198210737Y-137618017D01*
X198101408Y-137587033D01*
X198017340Y-137539573D01*
X197971499Y-137492345D01*
X197956568Y-137469331D01*
X197944522Y-137444356D01*
X197935623Y-137415028D01*
X197930135Y-137378959D01*
X197928323Y-137333755D01*
X197930450Y-137277028D01*
X197936779Y-137206385D01*
X197947574Y-137119437D01*
X197963099Y-137013792D01*
X197983617Y-136887059D01*
X198009393Y-136736848D01*
X198040689Y-136560768D01*
X198077769Y-136356429D01*
X198120897Y-136121438D01*
X198125318Y-136097433D01*
X198325746Y-135009466D01*
X198073565Y-135009466D01*
X197976243Y-135009178D01*
X197907961Y-135007924D01*
X197863896Y-135005118D01*
X197839224Y-135000177D01*
X197829120Y-134992514D01*
X197828760Y-134981545D01*
X197829181Y-134979833D01*
X197838011Y-134946097D01*
X197851301Y-134895138D01*
X197857686Y-134870614D01*
X197873570Y-134817937D01*
X197893186Y-134780260D01*
X197922147Y-134754891D01*
X197966066Y-134739134D01*
X198030559Y-134730298D01*
X198121238Y-134725689D01*
X198162209Y-134724524D01*
X198378773Y-134718982D01*
X198410107Y-134563657D01*
X198428754Y-134441132D01*
X198439570Y-134304067D01*
X198441587Y-134220389D01*
X198441733Y-134032446D01*
X198619533Y-134012066D01*
X198717808Y-133999175D01*
X198826316Y-133982401D01*
X198926531Y-133964680D01*
X198958016Y-133958427D01*
X199032418Y-133943386D01*
X199081528Y-133935338D01*
X199113178Y-133934220D01*
X199135200Y-133939967D01*
G37*
X199135200Y-133939967D02*
X199155425Y-133952517D01*
X199161216Y-133956783D01*
X199193541Y-133990826D01*
X199209149Y-134024834D01*
X199207791Y-134052410D01*
X199200773Y-134107344D01*
X199188998Y-134183772D01*
X199173374Y-134275829D01*
X199154805Y-134377649D01*
X199154115Y-134381307D01*
X199135339Y-134481214D01*
X199118939Y-134569443D01*
X199105884Y-134640698D01*
X199097143Y-134689685D01*
X199093686Y-134711111D01*
X199093666Y-134711471D01*
X199109771Y-134714493D01*
X199154770Y-134717156D01*
X199223692Y-134719316D01*
X199311565Y-134720831D01*
X199413419Y-134721557D01*
X199445772Y-134721600D01*
X199797877Y-134721600D01*
X199753282Y-134899512D01*
X199734376Y-134972689D01*
X199717747Y-135032945D01*
X199705433Y-135073140D01*
X199700058Y-135086052D01*
X199680793Y-135087388D01*
X199635210Y-135084380D01*
X199570491Y-135077642D01*
X199506848Y-135069581D01*
X199411560Y-135058111D01*
X199309787Y-135048262D01*
X199217434Y-135041483D01*
X199179015Y-135039673D01*
X199035763Y-135034866D01*
X198854172Y-136025466D01*
X198821263Y-136205922D01*
X198790235Y-136377868D01*
X198761634Y-136538166D01*
X198736004Y-136683678D01*
X198713889Y-136811266D01*
X198695833Y-136917792D01*
X198682381Y-137000119D01*
X198674078Y-137055107D01*
X198671456Y-137078622D01*
X198685310Y-137149418D01*
X198709167Y-137186325D01*
X198734904Y-137211705D01*
X198763695Y-137225072D01*
X198806879Y-137229883D01*
X198852385Y-137230002D01*
X198928131Y-137223258D01*
X199007196Y-137207626D01*
X199046384Y-137195754D01*
X199148316Y-137158421D01*
X199223194Y-137131293D01*
X199275868Y-137113213D01*
X199311188Y-137103021D01*
X199334003Y-137099560D01*
X199349163Y-137101670D01*
X199361517Y-137108194D01*
X199374853Y-137117280D01*
X199404704Y-137147270D01*
X199415400Y-137175938D01*
X199420430Y-137217228D01*
X199425015Y-137233088D01*
X199417570Y-137258537D01*
X199382687Y-137292662D01*
X199324967Y-137333149D01*
X199249005Y-137377688D01*
X199159401Y-137423966D01*
X199060753Y-137469671D01*
X198957659Y-137512491D01*
X198854716Y-137550113D01*
X198756523Y-137580226D01*
X198712704Y-137591270D01*
X198618027Y-137608352D01*
X198509868Y-137620290D01*
X198399545Y-137626482D01*
X198298376Y-137626324D01*
X198217678Y-137619213D01*
X198210737Y-137618017D01*
X198101408Y-137587033D01*
X198017340Y-137539573D01*
X197971499Y-137492345D01*
X197956568Y-137469331D01*
X197944522Y-137444356D01*
X197935623Y-137415028D01*
X197930135Y-137378959D01*
X197928323Y-137333755D01*
X197930450Y-137277028D01*
X197936779Y-137206385D01*
X197947574Y-137119437D01*
X197963099Y-137013792D01*
X197983617Y-136887059D01*
X198009393Y-136736848D01*
X198040689Y-136560768D01*
X198077769Y-136356429D01*
X198120897Y-136121438D01*
X198125318Y-136097433D01*
X198325746Y-135009466D01*
X198073565Y-135009466D01*
X197976243Y-135009178D01*
X197907961Y-135007924D01*
X197863896Y-135005118D01*
X197839224Y-135000177D01*
X197829120Y-134992514D01*
X197828760Y-134981545D01*
X197829181Y-134979833D01*
X197838011Y-134946097D01*
X197851301Y-134895138D01*
X197857686Y-134870614D01*
X197873570Y-134817937D01*
X197893186Y-134780260D01*
X197922147Y-134754891D01*
X197966066Y-134739134D01*
X198030559Y-134730298D01*
X198121238Y-134725689D01*
X198162209Y-134724524D01*
X198378773Y-134718982D01*
X198410107Y-134563657D01*
X198428754Y-134441132D01*
X198439570Y-134304067D01*
X198441587Y-134220389D01*
X198441733Y-134032446D01*
X198619533Y-134012066D01*
X198717808Y-133999175D01*
X198826316Y-133982401D01*
X198926531Y-133964680D01*
X198958016Y-133958427D01*
X199032418Y-133943386D01*
X199081528Y-133935338D01*
X199113178Y-133934220D01*
X199135200Y-133939967D01*
G36*
X197580813Y-134655054D02*
G01*
X197690703Y-134689042D01*
X197703467Y-134695338D01*
X197752622Y-134720757D01*
X197702884Y-134875427D01*
X197679110Y-134957632D01*
X197653731Y-135058936D01*
X197630192Y-135164950D01*
X197615639Y-135239887D01*
X197578133Y-135449677D01*
X197518219Y-135449705D01*
X197479009Y-135445231D01*
X197445927Y-135427378D01*
X197408250Y-135389562D01*
X197395068Y-135374082D01*
X197328969Y-135310705D01*
X197259051Y-135275781D01*
X197183641Y-135269744D01*
X197101067Y-135293029D01*
X197009658Y-135346070D01*
X196907740Y-135429303D01*
X196809569Y-135526247D01*
X196652015Y-135713717D01*
X196508973Y-135926809D01*
X196382853Y-136159511D01*
X196276067Y-136405816D01*
X196191022Y-136659712D01*
X196130131Y-136915191D01*
X196095802Y-137166243D01*
X196088879Y-137323273D01*
X196087999Y-137528880D01*
X195935599Y-137548781D01*
X195848342Y-137562145D01*
X195745664Y-137580813D01*
X195644915Y-137601547D01*
X195608277Y-137609874D01*
X195535737Y-137626781D01*
X195476205Y-137640325D01*
X195436888Y-137648887D01*
X195424941Y-137651066D01*
X195408845Y-137640217D01*
X195378775Y-137613086D01*
X195367166Y-137601704D01*
X195333914Y-137560866D01*
X195324528Y-137523548D01*
X195326620Y-137504338D01*
X195331346Y-137479847D01*
X195342075Y-137425004D01*
X195358243Y-137342680D01*
X195379283Y-137235747D01*
X195404629Y-137107077D01*
X195433716Y-136959539D01*
X195465979Y-136796006D01*
X195500851Y-136619349D01*
X195537767Y-136432439D01*
X195555938Y-136340469D01*
X195593269Y-136150523D01*
X195628342Y-135970061D01*
X195660639Y-135801875D01*
X195689644Y-135648753D01*
X195714839Y-135513486D01*
X195735707Y-135398864D01*
X195751731Y-135307677D01*
X195762394Y-135242714D01*
X195767180Y-135206767D01*
X195767203Y-135200535D01*
X195759007Y-135188426D01*
X195742853Y-135184601D01*
X195713129Y-135190216D01*
X195664221Y-135206423D01*
X195590518Y-135234375D01*
X195577111Y-135239600D01*
X195512279Y-135261290D01*
X195450288Y-135276087D01*
X195412356Y-135280400D01*
X195372746Y-135276701D01*
X195346598Y-135259967D01*
X195322244Y-135221735D01*
X195316695Y-135211024D01*
X195297201Y-135164329D01*
X195289289Y-135127417D01*
X195290418Y-135117896D01*
X195309039Y-135101530D01*
X195353916Y-135074180D01*
X195420180Y-135038210D01*
X195502961Y-134995985D01*
X195597390Y-134949868D01*
X195698599Y-134902225D01*
X195801717Y-134855420D01*
X195901876Y-134811817D01*
X195994207Y-134773781D01*
X196019490Y-134763871D01*
X196151804Y-134714555D01*
X196257858Y-134679478D01*
X196341696Y-134657761D01*
X196407363Y-134648521D01*
X196458903Y-134650879D01*
X196493172Y-134660728D01*
X196521328Y-134674448D01*
X196542350Y-134691485D01*
X196556008Y-134715328D01*
X196562074Y-134749465D01*
X196560316Y-134797382D01*
X196550505Y-134862569D01*
X196532411Y-134948512D01*
X196505804Y-135058699D01*
X196470455Y-135196618D01*
X196453613Y-135261106D01*
X196422395Y-135380894D01*
X196394197Y-135490248D01*
X196370120Y-135584813D01*
X196351262Y-135660233D01*
X196338721Y-135712153D01*
X196333597Y-135736218D01*
X196333533Y-135737037D01*
X196337780Y-135753122D01*
X196351521Y-135746639D01*
X196376257Y-135715709D01*
X196413488Y-135658453D01*
X196464717Y-135572990D01*
X196465298Y-135571998D01*
X196577721Y-135390323D01*
X196693154Y-135222954D01*
X196808994Y-135072915D01*
X196922637Y-134943227D01*
X197031478Y-134836914D01*
X197132913Y-134756998D01*
X197202485Y-134716241D01*
X197330338Y-134668919D01*
X197458569Y-134648435D01*
X197580813Y-134655054D01*
G37*
X197580813Y-134655054D02*
X197690703Y-134689042D01*
X197703467Y-134695338D01*
X197752622Y-134720757D01*
X197702884Y-134875427D01*
X197679110Y-134957632D01*
X197653731Y-135058936D01*
X197630192Y-135164950D01*
X197615639Y-135239887D01*
X197578133Y-135449677D01*
X197518219Y-135449705D01*
X197479009Y-135445231D01*
X197445927Y-135427378D01*
X197408250Y-135389562D01*
X197395068Y-135374082D01*
X197328969Y-135310705D01*
X197259051Y-135275781D01*
X197183641Y-135269744D01*
X197101067Y-135293029D01*
X197009658Y-135346070D01*
X196907740Y-135429303D01*
X196809569Y-135526247D01*
X196652015Y-135713717D01*
X196508973Y-135926809D01*
X196382853Y-136159511D01*
X196276067Y-136405816D01*
X196191022Y-136659712D01*
X196130131Y-136915191D01*
X196095802Y-137166243D01*
X196088879Y-137323273D01*
X196087999Y-137528880D01*
X195935599Y-137548781D01*
X195848342Y-137562145D01*
X195745664Y-137580813D01*
X195644915Y-137601547D01*
X195608277Y-137609874D01*
X195535737Y-137626781D01*
X195476205Y-137640325D01*
X195436888Y-137648887D01*
X195424941Y-137651066D01*
X195408845Y-137640217D01*
X195378775Y-137613086D01*
X195367166Y-137601704D01*
X195333914Y-137560866D01*
X195324528Y-137523548D01*
X195326620Y-137504338D01*
X195331346Y-137479847D01*
X195342075Y-137425004D01*
X195358243Y-137342680D01*
X195379283Y-137235747D01*
X195404629Y-137107077D01*
X195433716Y-136959539D01*
X195465979Y-136796006D01*
X195500851Y-136619349D01*
X195537767Y-136432439D01*
X195555938Y-136340469D01*
X195593269Y-136150523D01*
X195628342Y-135970061D01*
X195660639Y-135801875D01*
X195689644Y-135648753D01*
X195714839Y-135513486D01*
X195735707Y-135398864D01*
X195751731Y-135307677D01*
X195762394Y-135242714D01*
X195767180Y-135206767D01*
X195767203Y-135200535D01*
X195759007Y-135188426D01*
X195742853Y-135184601D01*
X195713129Y-135190216D01*
X195664221Y-135206423D01*
X195590518Y-135234375D01*
X195577111Y-135239600D01*
X195512279Y-135261290D01*
X195450288Y-135276087D01*
X195412356Y-135280400D01*
X195372746Y-135276701D01*
X195346598Y-135259967D01*
X195322244Y-135221735D01*
X195316695Y-135211024D01*
X195297201Y-135164329D01*
X195289289Y-135127417D01*
X195290418Y-135117896D01*
X195309039Y-135101530D01*
X195353916Y-135074180D01*
X195420180Y-135038210D01*
X195502961Y-134995985D01*
X195597390Y-134949868D01*
X195698599Y-134902225D01*
X195801717Y-134855420D01*
X195901876Y-134811817D01*
X195994207Y-134773781D01*
X196019490Y-134763871D01*
X196151804Y-134714555D01*
X196257858Y-134679478D01*
X196341696Y-134657761D01*
X196407363Y-134648521D01*
X196458903Y-134650879D01*
X196493172Y-134660728D01*
X196521328Y-134674448D01*
X196542350Y-134691485D01*
X196556008Y-134715328D01*
X196562074Y-134749465D01*
X196560316Y-134797382D01*
X196550505Y-134862569D01*
X196532411Y-134948512D01*
X196505804Y-135058699D01*
X196470455Y-135196618D01*
X196453613Y-135261106D01*
X196422395Y-135380894D01*
X196394197Y-135490248D01*
X196370120Y-135584813D01*
X196351262Y-135660233D01*
X196338721Y-135712153D01*
X196333597Y-135736218D01*
X196333533Y-135737037D01*
X196337780Y-135753122D01*
X196351521Y-135746639D01*
X196376257Y-135715709D01*
X196413488Y-135658453D01*
X196464717Y-135572990D01*
X196465298Y-135571998D01*
X196577721Y-135390323D01*
X196693154Y-135222954D01*
X196808994Y-135072915D01*
X196922637Y-134943227D01*
X197031478Y-134836914D01*
X197132913Y-134756998D01*
X197202485Y-134716241D01*
X197330338Y-134668919D01*
X197458569Y-134648435D01*
X197580813Y-134655054D01*
G36*
X197856982Y-70526331D02*
G01*
X196804911Y-70526331D01*
X196804911Y-69895089D01*
X197856982Y-69895089D01*
X197856982Y-70526331D01*
G37*
X197856982Y-70526331D02*
X196804911Y-70526331D01*
X196804911Y-69895089D01*
X197856982Y-69895089D01*
X197856982Y-70526331D01*
G36*
X195275343Y-70747438D02*
G01*
X195585730Y-70772741D01*
X195845874Y-70817069D01*
X196063735Y-70884398D01*
X196247273Y-70978703D01*
X196404448Y-71103959D01*
X196543221Y-71264141D01*
X196656414Y-71437104D01*
X196793282Y-71652946D01*
X196921670Y-71820973D01*
X197038315Y-71937134D01*
X197087692Y-71972379D01*
X197155025Y-72009990D01*
X197199627Y-72028715D01*
X197203195Y-72029178D01*
X197209816Y-72000600D01*
X197215668Y-71920582D01*
X197220449Y-71797802D01*
X197223855Y-71640935D01*
X197225585Y-71458658D01*
X197225740Y-71383018D01*
X197225740Y-70736746D01*
X197856982Y-70736746D01*
X197856982Y-72660532D01*
X197443669Y-72658554D01*
X197232796Y-72653682D01*
X197053200Y-72641803D01*
X196916561Y-72623830D01*
X196871948Y-72613929D01*
X196706628Y-72561425D01*
X196568109Y-72496204D01*
X196445658Y-72409464D01*
X196328543Y-72292405D01*
X196206029Y-72136225D01*
X196098635Y-71979797D01*
X195968604Y-71790752D01*
X195855264Y-71648425D01*
X195748106Y-71545923D01*
X195636621Y-71476351D01*
X195510297Y-71432815D01*
X195358626Y-71408422D01*
X195211775Y-71398047D01*
X194896154Y-71383018D01*
X194887575Y-71055198D01*
X194878995Y-70727378D01*
X195275343Y-70747438D01*
G37*
X195275343Y-70747438D02*
X195585730Y-70772741D01*
X195845874Y-70817069D01*
X196063735Y-70884398D01*
X196247273Y-70978703D01*
X196404448Y-71103959D01*
X196543221Y-71264141D01*
X196656414Y-71437104D01*
X196793282Y-71652946D01*
X196921670Y-71820973D01*
X197038315Y-71937134D01*
X197087692Y-71972379D01*
X197155025Y-72009990D01*
X197199627Y-72028715D01*
X197203195Y-72029178D01*
X197209816Y-72000600D01*
X197215668Y-71920582D01*
X197220449Y-71797802D01*
X197223855Y-71640935D01*
X197225585Y-71458658D01*
X197225740Y-71383018D01*
X197225740Y-70736746D01*
X197856982Y-70736746D01*
X197856982Y-72660532D01*
X197443669Y-72658554D01*
X197232796Y-72653682D01*
X197053200Y-72641803D01*
X196916561Y-72623830D01*
X196871948Y-72613929D01*
X196706628Y-72561425D01*
X196568109Y-72496204D01*
X196445658Y-72409464D01*
X196328543Y-72292405D01*
X196206029Y-72136225D01*
X196098635Y-71979797D01*
X195968604Y-71790752D01*
X195855264Y-71648425D01*
X195748106Y-71545923D01*
X195636621Y-71476351D01*
X195510297Y-71432815D01*
X195358626Y-71408422D01*
X195211775Y-71398047D01*
X194896154Y-71383018D01*
X194887575Y-71055198D01*
X194878995Y-70727378D01*
X195275343Y-70747438D01*
G36*
X197856982Y-73502189D02*
G01*
X196684675Y-73502189D01*
X196684675Y-74133432D01*
X197856982Y-74133432D01*
X197856982Y-74794734D01*
X196383139Y-74794734D01*
X196037039Y-74794467D01*
X195746611Y-74793588D01*
X195507409Y-74791978D01*
X195314988Y-74789517D01*
X195164904Y-74786087D01*
X195052711Y-74781569D01*
X194973965Y-74775844D01*
X194924221Y-74768794D01*
X194899033Y-74760298D01*
X194894013Y-74754905D01*
X194888211Y-74708775D01*
X194885378Y-74618243D01*
X194885832Y-74498967D01*
X194887441Y-74431769D01*
X194896154Y-74148461D01*
X195474793Y-74140298D01*
X196053432Y-74132134D01*
X196053432Y-72870947D01*
X197856982Y-72870947D01*
X197856982Y-73502189D01*
G37*
X197856982Y-73502189D02*
X196684675Y-73502189D01*
X196684675Y-74133432D01*
X197856982Y-74133432D01*
X197856982Y-74794734D01*
X196383139Y-74794734D01*
X196037039Y-74794467D01*
X195746611Y-74793588D01*
X195507409Y-74791978D01*
X195314988Y-74789517D01*
X195164904Y-74786087D01*
X195052711Y-74781569D01*
X194973965Y-74775844D01*
X194924221Y-74768794D01*
X194899033Y-74760298D01*
X194894013Y-74754905D01*
X194888211Y-74708775D01*
X194885378Y-74618243D01*
X194885832Y-74498967D01*
X194887441Y-74431769D01*
X194896154Y-74148461D01*
X195474793Y-74140298D01*
X196053432Y-74132134D01*
X196053432Y-72870947D01*
X197856982Y-72870947D01*
X197856982Y-73502189D01*
G36*
X193482842Y-70697380D02*
G01*
X193732550Y-70741503D01*
X193909828Y-70802450D01*
X194068658Y-70900454D01*
X194214450Y-71041550D01*
X194331359Y-71208776D01*
X194375800Y-71301227D01*
X194390769Y-71339141D01*
X194403443Y-71376162D01*
X194414043Y-71417446D01*
X194422788Y-71468148D01*
X194429899Y-71533424D01*
X194435595Y-71618429D01*
X194440095Y-71728319D01*
X194443621Y-71868248D01*
X194446391Y-72043372D01*
X194448627Y-72258846D01*
X194450547Y-72519826D01*
X194452371Y-72831467D01*
X194453980Y-73133964D01*
X194462693Y-74794734D01*
X193588580Y-74794734D01*
X193588580Y-73290282D01*
X193588544Y-72933373D01*
X193588062Y-72631754D01*
X193586576Y-72380596D01*
X193583524Y-72175073D01*
X193578347Y-72010356D01*
X193570486Y-71881616D01*
X193559379Y-71784025D01*
X193544468Y-71712757D01*
X193525193Y-71662981D01*
X193500993Y-71629871D01*
X193471308Y-71608598D01*
X193435580Y-71594334D01*
X193393247Y-71582251D01*
X193390419Y-71581472D01*
X193255442Y-71567104D01*
X193140020Y-71598577D01*
X193055960Y-71671108D01*
X193026667Y-71728807D01*
X193017547Y-71776152D01*
X193009835Y-71862542D01*
X193003457Y-71991048D01*
X192998341Y-72164743D01*
X192994414Y-72386699D01*
X192991602Y-72659989D01*
X192989834Y-72987683D01*
X192989093Y-73314319D01*
X192987396Y-74794734D01*
X192115680Y-74794734D01*
X192115680Y-71725966D01*
X192041899Y-71652184D01*
X191940662Y-71589892D01*
X191818513Y-71570314D01*
X191697147Y-71593754D01*
X191612460Y-71646181D01*
X191545097Y-71708611D01*
X191537312Y-73244157D01*
X191529527Y-74779704D01*
X191086154Y-74788022D01*
X190642781Y-74796341D01*
X190643709Y-73315123D01*
X190644384Y-72931392D01*
X190646090Y-72602631D01*
X190649127Y-72323694D01*
X190653796Y-72089439D01*
X190660396Y-71894719D01*
X190669227Y-71734392D01*
X190680588Y-71603312D01*
X190694779Y-71496336D01*
X190712101Y-71408318D01*
X190732853Y-71334115D01*
X190757335Y-71268581D01*
X190763862Y-71253428D01*
X190861829Y-71090654D01*
X190998575Y-70942989D01*
X191155440Y-70829143D01*
X191218100Y-70797925D01*
X191435224Y-70729541D01*
X191680844Y-70693546D01*
X191936027Y-70689996D01*
X192181844Y-70718946D01*
X192399363Y-70780452D01*
X192432681Y-70794377D01*
X192562305Y-70851716D01*
X192737277Y-70781767D01*
X192965228Y-70717160D01*
X193220409Y-70689148D01*
X193482842Y-70697380D01*
G37*
X193482842Y-70697380D02*
X193732550Y-70741503D01*
X193909828Y-70802450D01*
X194068658Y-70900454D01*
X194214450Y-71041550D01*
X194331359Y-71208776D01*
X194375800Y-71301227D01*
X194390769Y-71339141D01*
X194403443Y-71376162D01*
X194414043Y-71417446D01*
X194422788Y-71468148D01*
X194429899Y-71533424D01*
X194435595Y-71618429D01*
X194440095Y-71728319D01*
X194443621Y-71868248D01*
X194446391Y-72043372D01*
X194448627Y-72258846D01*
X194450547Y-72519826D01*
X194452371Y-72831467D01*
X194453980Y-73133964D01*
X194462693Y-74794734D01*
X193588580Y-74794734D01*
X193588580Y-73290282D01*
X193588544Y-72933373D01*
X193588062Y-72631754D01*
X193586576Y-72380596D01*
X193583524Y-72175073D01*
X193578347Y-72010356D01*
X193570486Y-71881616D01*
X193559379Y-71784025D01*
X193544468Y-71712757D01*
X193525193Y-71662981D01*
X193500993Y-71629871D01*
X193471308Y-71608598D01*
X193435580Y-71594334D01*
X193393247Y-71582251D01*
X193390419Y-71581472D01*
X193255442Y-71567104D01*
X193140020Y-71598577D01*
X193055960Y-71671108D01*
X193026667Y-71728807D01*
X193017547Y-71776152D01*
X193009835Y-71862542D01*
X193003457Y-71991048D01*
X192998341Y-72164743D01*
X192994414Y-72386699D01*
X192991602Y-72659989D01*
X192989834Y-72987683D01*
X192989093Y-73314319D01*
X192987396Y-74794734D01*
X192115680Y-74794734D01*
X192115680Y-71725966D01*
X192041899Y-71652184D01*
X191940662Y-71589892D01*
X191818513Y-71570314D01*
X191697147Y-71593754D01*
X191612460Y-71646181D01*
X191545097Y-71708611D01*
X191537312Y-73244157D01*
X191529527Y-74779704D01*
X191086154Y-74788022D01*
X190642781Y-74796341D01*
X190643709Y-73315123D01*
X190644384Y-72931392D01*
X190646090Y-72602631D01*
X190649127Y-72323694D01*
X190653796Y-72089439D01*
X190660396Y-71894719D01*
X190669227Y-71734392D01*
X190680588Y-71603312D01*
X190694779Y-71496336D01*
X190712101Y-71408318D01*
X190732853Y-71334115D01*
X190757335Y-71268581D01*
X190763862Y-71253428D01*
X190861829Y-71090654D01*
X190998575Y-70942989D01*
X191155440Y-70829143D01*
X191218100Y-70797925D01*
X191435224Y-70729541D01*
X191680844Y-70693546D01*
X191936027Y-70689996D01*
X192181844Y-70718946D01*
X192399363Y-70780452D01*
X192432681Y-70794377D01*
X192562305Y-70851716D01*
X192737277Y-70781767D01*
X192965228Y-70717160D01*
X193220409Y-70689148D01*
X193482842Y-70697380D01*
G36*
X189077472Y-70714973D02*
G01*
X189324564Y-70765704D01*
X189534672Y-70844272D01*
X189540818Y-70847348D01*
X189728853Y-70968093D01*
X189891783Y-71122533D01*
X190013397Y-71294840D01*
X190027925Y-71322983D01*
X190062921Y-71396582D01*
X190092479Y-71466347D01*
X190117061Y-71537932D01*
X190137129Y-71616993D01*
X190153148Y-71709187D01*
X190165578Y-71820167D01*
X190174883Y-71955589D01*
X190181526Y-72121110D01*
X190185969Y-72322384D01*
X190188674Y-72565066D01*
X190190105Y-72854813D01*
X190190724Y-73197280D01*
X190190823Y-73314319D01*
X190191893Y-74794734D01*
X189320177Y-74794734D01*
X189320177Y-73622426D01*
X188147870Y-73622426D01*
X188147870Y-74794734D01*
X187276154Y-74794734D01*
X187276154Y-73326643D01*
X187276284Y-72988688D01*
X187276725Y-72750710D01*
X188142105Y-72750710D01*
X189325814Y-72750710D01*
X189315481Y-72316991D01*
X189309326Y-72127432D01*
X189298809Y-71986736D01*
X189280285Y-71883653D01*
X189250113Y-71806931D01*
X189204649Y-71745319D01*
X189140250Y-71687567D01*
X189102247Y-71658438D01*
X188986982Y-71603255D01*
X188837904Y-71574444D01*
X188675143Y-71571843D01*
X188518830Y-71595286D01*
X188389096Y-71644611D01*
X188358284Y-71664492D01*
X188285886Y-71726519D01*
X188233026Y-71796832D01*
X188196437Y-71886113D01*
X188172852Y-72005044D01*
X188159006Y-72164309D01*
X188152502Y-72337396D01*
X188142105Y-72750710D01*
X187276725Y-72750710D01*
X187276810Y-72705021D01*
X187277941Y-72469810D01*
X187279880Y-72277226D01*
X187282836Y-72121437D01*
X187287014Y-71996613D01*
X187292620Y-71896924D01*
X187299861Y-71816538D01*
X187308943Y-71749625D01*
X187320072Y-71690355D01*
X187333454Y-71632897D01*
X187336502Y-71620785D01*
X187429331Y-71361639D01*
X187565162Y-71142738D01*
X187742091Y-70966303D01*
X187958213Y-70834556D01*
X188039997Y-70800443D01*
X188274658Y-70734814D01*
X188536482Y-70699027D01*
X188809432Y-70692581D01*
X189077472Y-70714973D01*
G37*
X189077472Y-70714973D02*
X189324564Y-70765704D01*
X189534672Y-70844272D01*
X189540818Y-70847348D01*
X189728853Y-70968093D01*
X189891783Y-71122533D01*
X190013397Y-71294840D01*
X190027925Y-71322983D01*
X190062921Y-71396582D01*
X190092479Y-71466347D01*
X190117061Y-71537932D01*
X190137129Y-71616993D01*
X190153148Y-71709187D01*
X190165578Y-71820167D01*
X190174883Y-71955589D01*
X190181526Y-72121110D01*
X190185969Y-72322384D01*
X190188674Y-72565066D01*
X190190105Y-72854813D01*
X190190724Y-73197280D01*
X190190823Y-73314319D01*
X190191893Y-74794734D01*
X189320177Y-74794734D01*
X189320177Y-73622426D01*
X188147870Y-73622426D01*
X188147870Y-74794734D01*
X187276154Y-74794734D01*
X187276154Y-73326643D01*
X187276284Y-72988688D01*
X187276725Y-72750710D01*
X188142105Y-72750710D01*
X189325814Y-72750710D01*
X189315481Y-72316991D01*
X189309326Y-72127432D01*
X189298809Y-71986736D01*
X189280285Y-71883653D01*
X189250113Y-71806931D01*
X189204649Y-71745319D01*
X189140250Y-71687567D01*
X189102247Y-71658438D01*
X188986982Y-71603255D01*
X188837904Y-71574444D01*
X188675143Y-71571843D01*
X188518830Y-71595286D01*
X188389096Y-71644611D01*
X188358284Y-71664492D01*
X188285886Y-71726519D01*
X188233026Y-71796832D01*
X188196437Y-71886113D01*
X188172852Y-72005044D01*
X188159006Y-72164309D01*
X188152502Y-72337396D01*
X188142105Y-72750710D01*
X187276725Y-72750710D01*
X187276810Y-72705021D01*
X187277941Y-72469810D01*
X187279880Y-72277226D01*
X187282836Y-72121437D01*
X187287014Y-71996613D01*
X187292620Y-71896924D01*
X187299861Y-71816538D01*
X187308943Y-71749625D01*
X187320072Y-71690355D01*
X187333454Y-71632897D01*
X187336502Y-71620785D01*
X187429331Y-71361639D01*
X187565162Y-71142738D01*
X187742091Y-70966303D01*
X187958213Y-70834556D01*
X188039997Y-70800443D01*
X188274658Y-70734814D01*
X188536482Y-70699027D01*
X188809432Y-70692581D01*
X189077472Y-70714973D01*
G36*
X184893964Y-70684788D02*
G01*
X185179174Y-70689809D01*
X185412097Y-70695672D01*
X185600567Y-70703374D01*
X185752414Y-70713911D01*
X185875471Y-70728282D01*
X185977570Y-70747482D01*
X186066542Y-70772508D01*
X186150221Y-70804359D01*
X186236437Y-70844030D01*
X186268208Y-70859720D01*
X186402745Y-70947957D01*
X186539487Y-71072766D01*
X186659135Y-71214579D01*
X186729997Y-71327948D01*
X186775206Y-71421938D01*
X186811591Y-71513384D01*
X186840087Y-71610135D01*
X186861628Y-71720040D01*
X186877151Y-71850948D01*
X186887591Y-72010706D01*
X186893882Y-72207165D01*
X186896961Y-72448173D01*
X186897763Y-72735680D01*
X186896928Y-73028055D01*
X186893799Y-73268176D01*
X186887439Y-73463891D01*
X186876915Y-73623050D01*
X186861290Y-73753501D01*
X186839630Y-73863094D01*
X186810998Y-73959677D01*
X186774460Y-74051100D01*
X186729997Y-74143413D01*
X186638179Y-74284688D01*
X186513708Y-74424733D01*
X186375886Y-74543980D01*
X186268208Y-74611640D01*
X186179297Y-74654243D01*
X186095628Y-74688680D01*
X186009368Y-74715950D01*
X185912685Y-74737048D01*
X185797747Y-74752973D01*
X185656723Y-74764721D01*
X185481780Y-74773289D01*
X185265086Y-74779674D01*
X184998810Y-74784873D01*
X184893964Y-74786573D01*
X183969645Y-74801094D01*
X183969645Y-73202311D01*
X184846691Y-73202311D01*
X184847086Y-73416711D01*
X184848285Y-73599313D01*
X184850241Y-73743267D01*
X184852907Y-73841720D01*
X184856235Y-73887820D01*
X184856725Y-73889640D01*
X184874177Y-73907000D01*
X184916497Y-73917623D01*
X184992722Y-73922096D01*
X185111891Y-73921008D01*
X185259869Y-73915902D01*
X185428214Y-73907691D01*
X185549762Y-73897492D01*
X185637835Y-73883088D01*
X185705754Y-73862260D01*
X185766841Y-73832790D01*
X185770169Y-73830929D01*
X185894988Y-73727961D01*
X185953548Y-73637461D01*
X185971982Y-73595369D01*
X185986231Y-73549304D01*
X185996827Y-73491273D01*
X186004303Y-73413280D01*
X186009192Y-73307332D01*
X186012027Y-73165434D01*
X186013342Y-72979592D01*
X186013669Y-72741810D01*
X186013669Y-72735680D01*
X186013358Y-72496613D01*
X186012073Y-72309668D01*
X186009278Y-72166852D01*
X186004442Y-72060168D01*
X185997031Y-71981624D01*
X185986513Y-71923224D01*
X185972354Y-71876974D01*
X185954022Y-71834880D01*
X185953548Y-71833900D01*
X185858470Y-71704943D01*
X185768159Y-71639302D01*
X185710405Y-71609947D01*
X185651581Y-71589890D01*
X185578533Y-71577276D01*
X185478106Y-71570248D01*
X185337145Y-71566950D01*
X185249641Y-71566135D01*
X184856391Y-71563373D01*
X184848507Y-72705526D01*
X184847149Y-72962966D01*
X184846691Y-73202311D01*
X183969645Y-73202311D01*
X183969645Y-70670267D01*
X184893964Y-70684788D01*
G37*
X184893964Y-70684788D02*
X185179174Y-70689809D01*
X185412097Y-70695672D01*
X185600567Y-70703374D01*
X185752414Y-70713911D01*
X185875471Y-70728282D01*
X185977570Y-70747482D01*
X186066542Y-70772508D01*
X186150221Y-70804359D01*
X186236437Y-70844030D01*
X186268208Y-70859720D01*
X186402745Y-70947957D01*
X186539487Y-71072766D01*
X186659135Y-71214579D01*
X186729997Y-71327948D01*
X186775206Y-71421938D01*
X186811591Y-71513384D01*
X186840087Y-71610135D01*
X186861628Y-71720040D01*
X186877151Y-71850948D01*
X186887591Y-72010706D01*
X186893882Y-72207165D01*
X186896961Y-72448173D01*
X186897763Y-72735680D01*
X186896928Y-73028055D01*
X186893799Y-73268176D01*
X186887439Y-73463891D01*
X186876915Y-73623050D01*
X186861290Y-73753501D01*
X186839630Y-73863094D01*
X186810998Y-73959677D01*
X186774460Y-74051100D01*
X186729997Y-74143413D01*
X186638179Y-74284688D01*
X186513708Y-74424733D01*
X186375886Y-74543980D01*
X186268208Y-74611640D01*
X186179297Y-74654243D01*
X186095628Y-74688680D01*
X186009368Y-74715950D01*
X185912685Y-74737048D01*
X185797747Y-74752973D01*
X185656723Y-74764721D01*
X185481780Y-74773289D01*
X185265086Y-74779674D01*
X184998810Y-74784873D01*
X184893964Y-74786573D01*
X183969645Y-74801094D01*
X183969645Y-73202311D01*
X184846691Y-73202311D01*
X184847086Y-73416711D01*
X184848285Y-73599313D01*
X184850241Y-73743267D01*
X184852907Y-73841720D01*
X184856235Y-73887820D01*
X184856725Y-73889640D01*
X184874177Y-73907000D01*
X184916497Y-73917623D01*
X184992722Y-73922096D01*
X185111891Y-73921008D01*
X185259869Y-73915902D01*
X185428214Y-73907691D01*
X185549762Y-73897492D01*
X185637835Y-73883088D01*
X185705754Y-73862260D01*
X185766841Y-73832790D01*
X185770169Y-73830929D01*
X185894988Y-73727961D01*
X185953548Y-73637461D01*
X185971982Y-73595369D01*
X185986231Y-73549304D01*
X185996827Y-73491273D01*
X186004303Y-73413280D01*
X186009192Y-73307332D01*
X186012027Y-73165434D01*
X186013342Y-72979592D01*
X186013669Y-72741810D01*
X186013669Y-72735680D01*
X186013358Y-72496613D01*
X186012073Y-72309668D01*
X186009278Y-72166852D01*
X186004442Y-72060168D01*
X185997031Y-71981624D01*
X185986513Y-71923224D01*
X185972354Y-71876974D01*
X185954022Y-71834880D01*
X185953548Y-71833900D01*
X185858470Y-71704943D01*
X185768159Y-71639302D01*
X185710405Y-71609947D01*
X185651581Y-71589890D01*
X185578533Y-71577276D01*
X185478106Y-71570248D01*
X185337145Y-71566950D01*
X185249641Y-71566135D01*
X184856391Y-71563373D01*
X184848507Y-72705526D01*
X184847149Y-72962966D01*
X184846691Y-73202311D01*
X183969645Y-73202311D01*
X183969645Y-70670267D01*
X184893964Y-70684788D01*
G36*
X182387002Y-70716069D02*
G01*
X182667063Y-70772486D01*
X182903903Y-70867543D01*
X183100355Y-71003063D01*
X183259251Y-71180871D01*
X183383423Y-71402790D01*
X183453690Y-71593432D01*
X183464443Y-71637340D01*
X183473628Y-71696677D01*
X183481419Y-71776503D01*
X183487989Y-71881876D01*
X183493511Y-72017854D01*
X183498158Y-72189497D01*
X183502102Y-72401864D01*
X183505517Y-72660012D01*
X183508576Y-72969001D01*
X183510979Y-73269231D01*
X183522266Y-74794734D01*
X182647041Y-74794734D01*
X182647041Y-73622426D01*
X181474734Y-73622426D01*
X181474734Y-74794734D01*
X181037932Y-74794734D01*
X180861790Y-74793705D01*
X180737151Y-74790061D01*
X180655429Y-74782964D01*
X180608035Y-74771577D01*
X180586380Y-74755062D01*
X180584153Y-74750491D01*
X180581042Y-74712366D01*
X180578681Y-74620156D01*
X180577081Y-74479890D01*
X180576256Y-74297597D01*
X180576217Y-74079307D01*
X180576977Y-73831047D01*
X180578549Y-73558847D01*
X180580945Y-73268736D01*
X180581075Y-73255047D01*
X180584572Y-72913562D01*
X180588110Y-72626658D01*
X180591914Y-72388799D01*
X180592658Y-72355051D01*
X181474734Y-72355051D01*
X181474734Y-72752008D01*
X182632012Y-72735680D01*
X182641424Y-72465148D01*
X182642986Y-72220877D01*
X182627116Y-72027471D01*
X182591388Y-71877583D01*
X182533374Y-71763860D01*
X182450648Y-71678954D01*
X182364527Y-71626585D01*
X182218612Y-71580964D01*
X182048627Y-71566980D01*
X181878977Y-71584139D01*
X181734067Y-71631947D01*
X181719653Y-71639634D01*
X181630627Y-71699582D01*
X181565314Y-71771254D01*
X181520391Y-71864352D01*
X181492537Y-71988582D01*
X181478429Y-72153646D01*
X181474734Y-72355051D01*
X180592658Y-72355051D01*
X180596204Y-72194447D01*
X180601204Y-72038066D01*
X180607136Y-71914118D01*
X180614222Y-71817067D01*
X180622685Y-71741376D01*
X180632747Y-71681508D01*
X180644631Y-71631925D01*
X180646557Y-71625128D01*
X180734014Y-71383952D01*
X180845944Y-71188712D01*
X180968712Y-71046834D01*
X181145512Y-70905738D01*
X181347409Y-70802789D01*
X181581894Y-70735587D01*
X181856456Y-70701728D01*
X182060888Y-70696466D01*
X182387002Y-70716069D01*
G37*
X182387002Y-70716069D02*
X182667063Y-70772486D01*
X182903903Y-70867543D01*
X183100355Y-71003063D01*
X183259251Y-71180871D01*
X183383423Y-71402790D01*
X183453690Y-71593432D01*
X183464443Y-71637340D01*
X183473628Y-71696677D01*
X183481419Y-71776503D01*
X183487989Y-71881876D01*
X183493511Y-72017854D01*
X183498158Y-72189497D01*
X183502102Y-72401864D01*
X183505517Y-72660012D01*
X183508576Y-72969001D01*
X183510979Y-73269231D01*
X183522266Y-74794734D01*
X182647041Y-74794734D01*
X182647041Y-73622426D01*
X181474734Y-73622426D01*
X181474734Y-74794734D01*
X181037932Y-74794734D01*
X180861790Y-74793705D01*
X180737151Y-74790061D01*
X180655429Y-74782964D01*
X180608035Y-74771577D01*
X180586380Y-74755062D01*
X180584153Y-74750491D01*
X180581042Y-74712366D01*
X180578681Y-74620156D01*
X180577081Y-74479890D01*
X180576256Y-74297597D01*
X180576217Y-74079307D01*
X180576977Y-73831047D01*
X180578549Y-73558847D01*
X180580945Y-73268736D01*
X180581075Y-73255047D01*
X180584572Y-72913562D01*
X180588110Y-72626658D01*
X180591914Y-72388799D01*
X180592658Y-72355051D01*
X181474734Y-72355051D01*
X181474734Y-72752008D01*
X182632012Y-72735680D01*
X182641424Y-72465148D01*
X182642986Y-72220877D01*
X182627116Y-72027471D01*
X182591388Y-71877583D01*
X182533374Y-71763860D01*
X182450648Y-71678954D01*
X182364527Y-71626585D01*
X182218612Y-71580964D01*
X182048627Y-71566980D01*
X181878977Y-71584139D01*
X181734067Y-71631947D01*
X181719653Y-71639634D01*
X181630627Y-71699582D01*
X181565314Y-71771254D01*
X181520391Y-71864352D01*
X181492537Y-71988582D01*
X181478429Y-72153646D01*
X181474734Y-72355051D01*
X180592658Y-72355051D01*
X180596204Y-72194447D01*
X180601204Y-72038066D01*
X180607136Y-71914118D01*
X180614222Y-71817067D01*
X180622685Y-71741376D01*
X180632747Y-71681508D01*
X180644631Y-71631925D01*
X180646557Y-71625128D01*
X180734014Y-71383952D01*
X180845944Y-71188712D01*
X180968712Y-71046834D01*
X181145512Y-70905738D01*
X181347409Y-70802789D01*
X181581894Y-70735587D01*
X181856456Y-70701728D01*
X182060888Y-70696466D01*
X182387002Y-70716069D01*
%TO.C,LS1*%
D14*
X201112380Y-113027857D02*
X201112380Y-113504047D01*
X200112380Y-113504047D01*
X201064761Y-112742142D02*
X201112380Y-112599285D01*
X201112380Y-112361190D01*
X201064761Y-112265952D01*
X201017142Y-112218333D01*
X200921904Y-112170714D01*
X200826666Y-112170714D01*
X200731428Y-112218333D01*
X200683809Y-112265952D01*
X200636190Y-112361190D01*
X200588571Y-112551666D01*
X200540952Y-112646904D01*
X200493333Y-112694523D01*
X200398095Y-112742142D01*
X200302857Y-112742142D01*
X200207619Y-112694523D01*
X200160000Y-112646904D01*
X200112380Y-112551666D01*
X200112380Y-112313571D01*
X200160000Y-112170714D01*
X201112380Y-111218333D02*
X201112380Y-111789761D01*
X201112380Y-111504047D02*
X200112380Y-111504047D01*
X200255238Y-111599285D01*
X200350476Y-111694523D01*
X200398095Y-111789761D01*
X205303428Y-109346952D02*
X205303428Y-108585047D01*
X205684380Y-108966000D02*
X204922476Y-108966000D01*
%TD*%
M02*
