%TF.GenerationSoftware,KiCad,Pcbnew,(5.1.10-1-10_14)*%
%TF.CreationDate,2022-08-05T12:13:03-05:00*%
%TF.ProjectId,Adam74,4164616d-3734-42e6-9b69-6361645f7063,rev?*%
%TF.SameCoordinates,Original*%
%TF.FileFunction,Soldermask,Bot*%
%TF.FilePolarity,Negative*%
%FSLAX46Y46*%
G04 Gerber Fmt 4.6, Leading zero omitted, Abs format (unit mm)*
G04 Created by KiCad (PCBNEW (5.1.10-1-10_14)) date 2022-08-05 12:13:03*
%MOMM*%
%LPD*%
G01*
G04 APERTURE LIST*
%ADD10C,1.800000*%
%ADD11O,1.700000X1.700000*%
%ADD12R,1.700000X1.700000*%
%ADD13C,1.600000*%
%ADD14C,1.700000*%
%ADD15O,1.800000X1.800000*%
%ADD16R,1.800000X1.800000*%
%ADD17R,2.000000X2.000000*%
%ADD18C,2.000000*%
%ADD19C,2.500000*%
%ADD20O,1.600000X1.600000*%
%ADD21R,1.600000X1.600000*%
G04 APERTURE END LIST*
D10*
%TO.C,U3*%
X191770000Y-99695000D03*
X191770000Y-102235000D03*
X191770000Y-104775000D03*
X191770000Y-107315000D03*
X110490000Y-120015000D03*
X110490000Y-117475000D03*
X110490000Y-114935000D03*
X110490000Y-112395000D03*
X110490000Y-109855000D03*
X110490000Y-107315000D03*
X110490000Y-104775000D03*
X110490000Y-102235000D03*
X110490000Y-99695000D03*
X110490000Y-97155000D03*
X110490000Y-94615000D03*
X110490000Y-92075000D03*
X110490000Y-89535000D03*
X110490000Y-86995000D03*
%TD*%
D11*
%TO.C,J1*%
X168910000Y-135255000D03*
X168910000Y-132715000D03*
X166370000Y-135255000D03*
X166370000Y-132715000D03*
X163830000Y-135255000D03*
X163830000Y-132715000D03*
X161290000Y-135255000D03*
X161290000Y-132715000D03*
X158750000Y-135255000D03*
X158750000Y-132715000D03*
X156210000Y-135255000D03*
X156210000Y-132715000D03*
X153670000Y-135255000D03*
X153670000Y-132715000D03*
X151130000Y-135255000D03*
X151130000Y-132715000D03*
X148590000Y-135255000D03*
X148590000Y-132715000D03*
X146050000Y-135255000D03*
D12*
X146050000Y-132715000D03*
%TD*%
D13*
%TO.C,U1*%
X119380000Y-132715000D03*
X119380000Y-130175000D03*
X119380000Y-127635000D03*
X119380000Y-125095000D03*
X119380000Y-122555000D03*
X119380000Y-120015000D03*
X119380000Y-117475000D03*
X119380000Y-114935000D03*
X119380000Y-112395000D03*
X119380000Y-109855000D03*
X119380000Y-107315000D03*
X119380000Y-104775000D03*
X119380000Y-102235000D03*
X134620000Y-132715000D03*
X134620000Y-130175000D03*
X134620000Y-127635000D03*
X134620000Y-125095000D03*
X134620000Y-122555000D03*
X134620000Y-120015000D03*
X134620000Y-117475000D03*
X134620000Y-114935000D03*
X134620000Y-112395000D03*
X134620000Y-109855000D03*
X134620000Y-107315000D03*
X134620000Y-104775000D03*
X134620000Y-102235000D03*
X119380000Y-99695000D03*
X134620000Y-99695000D03*
%TD*%
D11*
%TO.C,J2*%
X177800000Y-118872000D03*
X180340000Y-118872000D03*
X177800000Y-121412000D03*
X180340000Y-121412000D03*
X177800000Y-123952000D03*
D14*
X180340000Y-123952000D03*
%TD*%
D10*
%TO.C,REF\u002A\u002A*%
X194310000Y-107315000D03*
X194310000Y-104775000D03*
X194310000Y-102235000D03*
X194310000Y-99695000D03*
%TD*%
D15*
%TO.C,D1*%
X119380000Y-84328000D03*
D16*
X119380000Y-91948000D03*
%TD*%
D17*
%TO.C,LS1*%
X203200000Y-110385000D03*
D18*
X203100000Y-114385000D03*
%TD*%
D19*
%TO.C,REF\u002A\u002A*%
X112395000Y-134620000D03*
%TD*%
%TO.C,REF\u002A\u002A*%
X202565000Y-134620000D03*
%TD*%
%TO.C,REF\u002A\u002A*%
X202565000Y-72390000D03*
%TD*%
%TO.C,REF\u002A\u002A*%
X112395000Y-72390000D03*
%TD*%
D20*
%TO.C,R2*%
X173990000Y-109855000D03*
D13*
X186690000Y-109855000D03*
%TD*%
%TO.C,C3*%
X114935000Y-87075000D03*
X114935000Y-92075000D03*
%TD*%
%TO.C,C2*%
X139446000Y-135048000D03*
X139446000Y-130048000D03*
%TD*%
%TO.C,C1*%
X153590000Y-114855000D03*
X148590000Y-114855000D03*
%TD*%
D20*
%TO.C,R1*%
X124460000Y-83185000D03*
D13*
X124460000Y-95885000D03*
%TD*%
D20*
%TO.C,U2*%
X146050000Y-125095000D03*
X168910000Y-117475000D03*
X148590000Y-125095000D03*
X166370000Y-117475000D03*
X151130000Y-125095000D03*
X163830000Y-117475000D03*
X153670000Y-125095000D03*
X161290000Y-117475000D03*
X156210000Y-125095000D03*
X158750000Y-117475000D03*
X158750000Y-125095000D03*
X156210000Y-117475000D03*
X161290000Y-125095000D03*
X153670000Y-117475000D03*
X163830000Y-125095000D03*
X151130000Y-117475000D03*
X166370000Y-125095000D03*
X148590000Y-117475000D03*
X168910000Y-125095000D03*
D21*
X146050000Y-117475000D03*
%TD*%
M02*
